<svg width="36" height="36" viewBox="0 0 36 36" fill="none" xmlns="http://www.w3.org/2000/svg">
<g clip-path="url(#clip0_273_126)">
<rect width="36" height="36" rx="12" fill="#D1D6DB"/>
<path d="M19.2594 18.4491C23.0796 17.856 25.6522 14.2853 25.0054 10.4738C24.3586 6.66226 20.7373 4.05328 16.9171 4.64644C13.0969 5.23961 10.5243 8.81029 11.1711 12.6218C11.8179 16.4333 15.4392 19.0423 19.2594 18.4491Z" fill="#F3F5F8"/>
<path d="M18.5 44C24.9863 44 30.8368 41.1357 35 36.5408C34.037 27.7914 27.0196 21 18.5 21C9.98041 21 2.96301 27.7914 2 36.5408C6.16323 41.1357 12.0137 44 18.5 44Z" fill="#F3F5F8"/>
</g>
<defs>
<clipPath id="clip0_273_126">
<rect width="36" height="36" rx="12" fill="white"/>
</clipPath>
</defs>
</svg>
