<svg width="36" height="36" viewBox="0 0 36 36" fill="none" xmlns="http://www.w3.org/2000/svg">
<rect width="36" height="36" rx="12" fill="#FDE021"/>
<mask id="mask0_365_483" style="mask-type:alpha" maskUnits="userSpaceOnUse" x="0" y="0" width="36" height="36">
<rect width="36" height="36" rx="12" fill="#FDE021"/>
</mask>
<g mask="url(#mask0_365_483)">
<ellipse cx="18.0801" cy="15" rx="6.5" ry="6" fill="black"/>
<mask id="path-4-outside-1_365_483" maskUnits="userSpaceOnUse" x="-3.88281" y="4" width="42" height="37" fill="black">
<rect fill="white" x="-3.88281" y="4" width="42" height="37"/>
<path fill-rule="evenodd" clip-rule="evenodd" d="M13.6263 22.2229C13.6171 21.7634 13.6077 21.298 13.0174 20.9694C10.0276 19.5281 8.82806 17.4643 9.17361 13.9702C9.43545 9.41202 12.8043 7.23195 18.0348 7.00561H18.0637C23.0735 6.8783 25.9111 8.91062 26.7879 13.703C26.9843 14.6084 27.0102 15.5546 26.8914 16.4772C26.5763 19.3677 24.8272 20.7886 22.4585 21.5525C21.7436 21.7814 21.6482 22.0884 21.5338 22.4561C21.4667 22.6717 21.3932 22.9082 21.1844 23.162C20.9271 23.4088 20.5907 23.5298 20.2436 23.61C20.2308 23.4344 20.2001 23.2455 20.1718 23.0712C20.1533 22.9569 20.1357 22.8489 20.1249 22.755L20.1155 22.7022C20.0689 22.4404 20.0217 22.175 19.8448 22.0351C19.4308 21.8722 19.5742 22.7762 19.6325 23.1437L19.6332 23.1479C19.6469 23.2291 19.6585 23.3074 19.6696 23.3826C19.687 23.4996 19.7032 23.6092 19.7245 23.7106C19.6667 23.72 19.6104 23.7295 19.5556 23.7405C19.0578 23.8175 18.5448 23.8694 18.0257 23.8929C18.0491 23.7372 18.0337 23.5512 18.0177 23.3589V23.3589L18.0177 23.3588L18.0177 23.3586C18.0098 23.2638 18.0018 23.1674 17.9983 23.0725C17.9895 22.9956 17.983 22.9138 17.9764 22.8309C17.9464 22.4539 17.9146 22.054 17.6588 21.9973H17.6497C17.4042 22.0893 17.4382 22.5322 17.464 22.8689C17.4691 22.9352 17.4739 22.9974 17.4761 23.052C17.4839 23.1074 17.4893 23.1853 17.4955 23.2749L17.4955 23.275L17.4955 23.275V23.2751L17.4955 23.2752C17.509 23.4681 17.5262 23.715 17.5781 23.9071C16.9616 23.9165 16.3405 23.8851 15.7331 23.8033C15.7619 23.688 15.7806 23.5595 15.7999 23.4269C15.8132 23.3354 15.8268 23.2419 15.8442 23.1495C15.8528 23.0726 15.8645 22.992 15.8764 22.9104L15.8764 22.9103L15.8764 22.9103C15.9319 22.528 15.9904 22.1257 15.7407 22.0052H15.7316C15.4581 22.0367 15.3897 22.5008 15.3382 22.8506L15.3382 22.8506L15.3382 22.8507C15.3281 22.9194 15.3186 22.9837 15.3084 23.0394C15.304 23.0922 15.2932 23.1637 15.281 23.2457C15.2596 23.3883 15.2335 23.5624 15.2277 23.7232C15.2171 23.7216 15.2068 23.7196 15.1965 23.7177C15.1862 23.7157 15.176 23.7137 15.1653 23.7122C13.6515 23.473 13.639 22.8536 13.6263 22.2229ZM24.5608 13.4248C23.6825 11.5434 21.6563 10.1869 20.3197 11.0042L20.3182 11.0058C18.9817 11.8232 18.8416 14.5046 19.72 16.3845C20.5983 18.2643 22.113 18.6667 23.4998 17.8148C25.0495 16.8639 25.4392 15.3047 24.5608 13.4248ZM18.8096 17.9484C18.5432 17.6215 18.1627 17.4124 17.8826 17.4156C17.6025 17.4124 17.2219 17.6215 16.9555 17.9484C16.6343 18.3398 16.5993 18.7485 16.8763 18.8616C17.1321 18.9654 17.5659 18.7799 17.8826 18.442C18.1992 18.7799 18.6331 18.9654 18.8888 18.8616C19.1659 18.7485 19.1308 18.3398 18.8096 17.9484ZM15.7757 11.0027C14.4392 10.1869 12.413 11.5434 11.5347 13.4232L11.5331 13.4217C10.6548 15.3031 11.0445 16.8607 12.5942 17.8117C13.9825 18.6636 15.4956 18.2612 16.374 16.3813C17.2524 14.5015 17.1123 11.82 15.7757 11.0027ZM20.5118 28.1323C20.0589 27.9807 19.5973 27.826 19.1437 27.931L19.1416 27.9289C18.9481 27.9884 18.8535 28.1711 18.9158 28.3517C19.0454 28.7001 19.5385 28.8725 19.9162 29.0044C19.9523 29.0171 19.9874 29.0293 20.0209 29.0413C21.1862 29.4477 22.0548 29.6591 23.2309 29.1275C23.7726 28.912 24.6025 28.6555 24.9659 29.2301C25.4465 30.1117 24.2656 30.6001 23.5551 30.894L23.5039 30.9151C22.7192 31.262 21.9602 31.4898 21.0959 31.2435C20.8972 31.198 20.6971 31.1347 20.4964 31.0712L20.4964 31.0712L20.4963 31.0712L20.4963 31.0712C20.1998 30.9774 19.9021 30.8833 19.606 30.8454C18.8384 30.7222 18.6514 31.3236 19.2663 31.6725C19.4813 31.8018 19.7436 31.8941 19.9865 31.9762C20.0785 32.0049 20.1688 32.0337 20.2577 32.0621C20.9903 32.2958 21.6307 32.5001 22.3343 32.3518C22.6076 32.3097 22.8805 32.2048 23.1541 32.0996C23.6404 31.9127 24.1287 31.7251 24.624 31.888C25.14 32.087 25.226 32.7541 24.8412 33.1153C24.5167 33.4337 24.0394 33.6337 23.5934 33.8207L23.5933 33.8207L23.5932 33.8208C23.5074 33.8568 23.4227 33.8923 23.3405 33.928C22.6289 34.2318 21.9409 34.4103 21.1604 34.2031C20.9454 34.159 20.7257 34.0887 20.5043 34.0179C20.128 33.8975 19.7468 33.7756 19.3759 33.7782C18.8384 33.7905 18.746 34.2174 19.133 34.5232C19.3394 34.6854 19.6318 34.7962 19.8898 34.8865C19.9927 34.9191 20.0943 34.9522 20.1948 34.9849L20.1949 34.985L20.1949 34.985C20.8424 35.196 21.4465 35.3928 22.0699 35.336C22.4311 35.311 22.778 35.1811 23.1231 35.0518C23.544 34.8942 23.9621 34.7375 24.4004 34.7736C24.9014 34.8167 25.2131 35.3503 25.0175 35.7854C24.8627 36.1528 24.4413 36.3786 24.0521 36.5612C23.5921 36.7685 23.1212 36.9779 22.6353 37.1216C21.8803 37.4162 20.9607 37.1087 20.1916 36.8516C19.4715 36.6108 18.8833 36.4142 18.6858 36.7973C18.6724 36.8321 18.6591 36.8669 18.6459 36.9017C18.4366 37.4516 18.234 37.984 17.4818 37.9918C16.7548 37.9991 16.5442 37.5267 16.3168 37.0165C16.2914 36.9594 16.2657 36.9019 16.2391 36.8445C15.9926 36.4656 15.3024 36.7159 14.7251 36.9253C14.4767 37.0154 14.2493 37.0979 14.087 37.1195C13.2679 37.3617 12.5433 37.1934 11.7887 36.8691C11.6839 36.8205 11.5669 36.7718 11.4446 36.7208L11.4445 36.7207C10.7715 36.4402 9.93654 36.0922 10.073 35.3298C10.3957 34.4611 11.25 34.7745 12.0177 35.0561C12.2984 35.159 12.5675 35.2577 12.7949 35.2929C13.2464 35.3893 13.672 35.338 14.1214 35.2251C14.2311 35.1882 14.3664 35.1509 14.514 35.1101C15.13 34.94 15.9611 34.7105 16.0478 34.2072C16.0542 34.0266 15.8994 33.8767 15.607 33.8521C15.2567 33.8261 14.8682 33.9428 14.4906 34.0563C14.2727 34.1218 14.0583 34.1862 13.8569 34.2215C13.1023 34.4083 12.3799 34.1825 11.6919 33.8849C11.6121 33.8497 11.5316 33.8153 11.4515 33.7809C10.8824 33.5369 10.3298 33.3 10.1224 32.8628C9.90743 32.4154 10.217 31.8633 10.7567 31.8264C11.1508 31.7891 11.5581 31.9422 11.9399 32.0856L11.94 32.0856L11.9401 32.0857C12.0206 32.1159 12.0999 32.1457 12.1778 32.1732C12.883 32.4585 13.5989 32.4606 14.317 32.2307C14.3974 32.2058 14.4801 32.1813 14.564 32.1564C15.0119 32.0236 15.494 31.8806 15.8435 31.6109C16.1811 31.3379 16.1015 30.9521 15.607 30.909C15.2567 30.8829 14.8682 30.9997 14.4906 31.1132C14.2727 31.1787 14.0583 31.2431 13.8569 31.2784C13.1023 31.4652 12.3799 31.2394 11.6919 30.9418C11.5821 30.8912 11.4695 30.8426 11.3573 30.7942C10.6878 30.5055 10.0325 30.223 10.0601 29.5339C10.1138 28.951 10.7825 28.7622 11.3178 28.9346C11.4945 28.9881 11.6706 29.0495 11.8468 29.1109L11.8469 29.1109C12.5348 29.3506 13.2251 29.5911 13.9644 29.3738C14.0532 29.347 14.1659 29.3176 14.2927 29.2845C14.9617 29.1101 16.0246 28.8329 16.0499 28.286C16.037 28.1157 15.8758 27.9782 15.5834 27.9617C15.2033 27.96 14.8159 28.0708 14.4256 28.1824L14.4256 28.1824C13.9216 28.3265 13.4128 28.4721 12.9088 28.3784C12.4874 28.3189 12.0596 28.1485 11.6618 27.9843L11.6173 27.9655C11.0294 27.7162 10.3899 27.4451 10.1697 27.0608C9.84938 26.5559 10.245 25.8888 10.8986 25.9319C11.2645 25.9479 11.645 26.0863 12.0235 26.2241L12.0235 26.2241C12.4257 26.3704 12.8257 26.5159 13.2034 26.5128C13.6161 26.5271 14.0225 26.4266 14.4181 26.3137C14.4864 26.2928 14.5554 26.2721 14.6246 26.2513L14.6246 26.2513C15.1538 26.0922 15.6928 25.9302 16.0198 25.6815L16.0794 25.629C16.7136 25.0701 17.3584 24.5018 18.2236 25.1028C18.3694 25.1982 18.4926 25.3008 18.6142 25.402C18.8171 25.5709 19.0155 25.7362 19.3071 25.8581C19.4923 25.9176 19.6774 25.9824 19.8627 26.0474L19.8627 26.0474L19.8628 26.0474C20.7514 26.359 21.6462 26.6727 22.5837 26.406C22.7819 26.354 22.9783 26.2807 23.1751 26.2072C23.4672 26.0982 23.7601 25.9888 24.0607 25.9484C24.8648 25.7924 25.3894 26.5825 24.8949 27.1695C24.7208 27.3891 24.3596 27.5903 24.0543 27.7319C23.9912 27.7598 23.9282 27.7879 23.8652 27.816C23.0286 28.1894 22.1959 28.5609 21.2722 28.3414L21.2421 28.3353C21.0031 28.2969 20.7588 28.2151 20.5118 28.1323ZM3.19025 36.2268C3.18716 36.1491 3.16851 36.0723 3.14987 35.9956C3.12988 35.9133 3.1099 35.831 3.10909 35.7476L3.10965 35.7189C3.1139 35.6048 3.1667 35.4897 3.22549 35.3883C3.86735 34.2735 4.5681 33.189 5.32485 32.1468C6.1513 31.0057 7.04225 29.9041 8.00044 28.8631C8.13518 28.7004 8.32634 28.6763 8.52732 28.651H8.52734C8.64579 28.636 8.76765 28.6207 8.88338 28.5762C9.07634 28.4979 9.23612 28.3472 9.32124 28.1637C9.50654 27.7788 9.33768 27.2857 8.92636 27.0499C8.81727 26.9723 8.68628 26.9479 8.55691 26.9237C8.44494 26.9028 8.33419 26.8822 8.2399 26.8275C8.15412 26.762 8.09997 26.6684 8.04545 26.5741C7.99115 26.4803 7.93649 26.3858 7.84987 26.3178C7.5319 26.0226 7.04151 25.9729 6.70667 26.1831C6.36338 26.3851 6.23767 26.8206 6.3732 27.1921C6.4372 27.4029 6.41191 27.5925 6.30012 27.771C4.90857 30.1206 3.29715 32.3628 1.38536 34.3465C1.26139 34.44 1.09905 34.4653 0.934419 34.4909C0.741439 34.5209 0.545321 34.5514 0.404205 34.6929C-0.0857372 35.0872 0.07534 35.9001 0.706637 36.1497C0.787826 36.1894 0.878929 36.204 0.969737 36.2187H0.969754C1.07613 36.2358 1.18211 36.2528 1.27127 36.3099C1.35577 36.3722 1.40739 36.4631 1.45929 36.5545C1.5034 36.6322 1.54771 36.7103 1.61261 36.7715C2.18287 37.3912 3.24225 37.0144 3.19107 36.225L3.19025 36.2268ZM31.7181 35.9956C31.6994 36.0723 31.6808 36.1491 31.6777 36.2268L31.6768 36.225C31.6257 37.0144 32.6851 37.3912 33.2553 36.7715C33.3202 36.7103 33.3645 36.6322 33.4086 36.5545C33.4605 36.4631 33.5121 36.3722 33.5967 36.3099C33.6858 36.2528 33.7918 36.2358 33.8982 36.2187C33.989 36.204 34.0801 36.1894 34.1613 36.1497C34.7926 35.9001 34.9537 35.0872 34.4637 34.6929C34.3226 34.5514 34.1265 34.5209 33.9335 34.4909C33.7689 34.4653 33.6065 34.44 33.4826 34.3465C31.5708 32.3628 29.9593 30.1206 28.5678 27.771C28.456 27.5925 28.4307 27.4029 28.4947 27.1921C28.6303 26.8206 28.5045 26.3851 28.1613 26.1831C27.8264 25.9729 27.336 26.0226 27.018 26.3178C26.9314 26.3858 26.8768 26.4803 26.8225 26.5741C26.768 26.6684 26.7138 26.762 26.628 26.8275C26.5337 26.8822 26.423 26.9028 26.311 26.9237C26.1816 26.9479 26.0506 26.9723 25.9416 27.0499C25.5302 27.2857 25.3614 27.7788 25.5467 28.1637C25.6318 28.3472 25.7916 28.4979 25.9845 28.5762C26.1003 28.6207 26.2221 28.636 26.3406 28.651C26.5416 28.6763 26.7327 28.7004 26.8675 28.8631C27.8257 29.9041 28.7166 31.0057 29.5431 32.1468C30.2998 33.189 31.0006 34.2735 31.6424 35.3883C31.7012 35.4897 31.754 35.6048 31.7583 35.7189L31.7588 35.7476C31.758 35.831 31.738 35.9133 31.7181 35.9956Z"/>
</mask>
<path fill-rule="evenodd" clip-rule="evenodd" d="M13.6263 22.2229C13.6171 21.7634 13.6077 21.298 13.0174 20.9694C10.0276 19.5281 8.82806 17.4643 9.17361 13.9702C9.43545 9.41202 12.8043 7.23195 18.0348 7.00561H18.0637C23.0735 6.8783 25.9111 8.91062 26.7879 13.703C26.9843 14.6084 27.0102 15.5546 26.8914 16.4772C26.5763 19.3677 24.8272 20.7886 22.4585 21.5525C21.7436 21.7814 21.6482 22.0884 21.5338 22.4561C21.4667 22.6717 21.3932 22.9082 21.1844 23.162C20.9271 23.4088 20.5907 23.5298 20.2436 23.61C20.2308 23.4344 20.2001 23.2455 20.1718 23.0712C20.1533 22.9569 20.1357 22.8489 20.1249 22.755L20.1155 22.7022C20.0689 22.4404 20.0217 22.175 19.8448 22.0351C19.4308 21.8722 19.5742 22.7762 19.6325 23.1437L19.6332 23.1479C19.6469 23.2291 19.6585 23.3074 19.6696 23.3826C19.687 23.4996 19.7032 23.6092 19.7245 23.7106C19.6667 23.72 19.6104 23.7295 19.5556 23.7405C19.0578 23.8175 18.5448 23.8694 18.0257 23.8929C18.0491 23.7372 18.0337 23.5512 18.0177 23.3589V23.3589L18.0177 23.3588L18.0177 23.3586C18.0098 23.2638 18.0018 23.1674 17.9983 23.0725C17.9895 22.9956 17.983 22.9138 17.9764 22.8309C17.9464 22.4539 17.9146 22.054 17.6588 21.9973H17.6497C17.4042 22.0893 17.4382 22.5322 17.464 22.8689C17.4691 22.9352 17.4739 22.9974 17.4761 23.052C17.4839 23.1074 17.4893 23.1853 17.4955 23.2749L17.4955 23.275L17.4955 23.275V23.2751L17.4955 23.2752C17.509 23.4681 17.5262 23.715 17.5781 23.9071C16.9616 23.9165 16.3405 23.8851 15.7331 23.8033C15.7619 23.688 15.7806 23.5595 15.7999 23.4269C15.8132 23.3354 15.8268 23.2419 15.8442 23.1495C15.8528 23.0726 15.8645 22.992 15.8764 22.9104L15.8764 22.9103L15.8764 22.9103C15.9319 22.528 15.9904 22.1257 15.7407 22.0052H15.7316C15.4581 22.0367 15.3897 22.5008 15.3382 22.8506L15.3382 22.8506L15.3382 22.8507C15.3281 22.9194 15.3186 22.9837 15.3084 23.0394C15.304 23.0922 15.2932 23.1637 15.281 23.2457C15.2596 23.3883 15.2335 23.5624 15.2277 23.7232C15.2171 23.7216 15.2068 23.7196 15.1965 23.7177C15.1862 23.7157 15.176 23.7137 15.1653 23.7122C13.6515 23.473 13.639 22.8536 13.6263 22.2229ZM24.5608 13.4248C23.6825 11.5434 21.6563 10.1869 20.3197 11.0042L20.3182 11.0058C18.9817 11.8232 18.8416 14.5046 19.72 16.3845C20.5983 18.2643 22.113 18.6667 23.4998 17.8148C25.0495 16.8639 25.4392 15.3047 24.5608 13.4248ZM18.8096 17.9484C18.5432 17.6215 18.1627 17.4124 17.8826 17.4156C17.6025 17.4124 17.2219 17.6215 16.9555 17.9484C16.6343 18.3398 16.5993 18.7485 16.8763 18.8616C17.1321 18.9654 17.5659 18.7799 17.8826 18.442C18.1992 18.7799 18.6331 18.9654 18.8888 18.8616C19.1659 18.7485 19.1308 18.3398 18.8096 17.9484ZM15.7757 11.0027C14.4392 10.1869 12.413 11.5434 11.5347 13.4232L11.5331 13.4217C10.6548 15.3031 11.0445 16.8607 12.5942 17.8117C13.9825 18.6636 15.4956 18.2612 16.374 16.3813C17.2524 14.5015 17.1123 11.82 15.7757 11.0027ZM20.5118 28.1323C20.0589 27.9807 19.5973 27.826 19.1437 27.931L19.1416 27.9289C18.9481 27.9884 18.8535 28.1711 18.9158 28.3517C19.0454 28.7001 19.5385 28.8725 19.9162 29.0044C19.9523 29.0171 19.9874 29.0293 20.0209 29.0413C21.1862 29.4477 22.0548 29.6591 23.2309 29.1275C23.7726 28.912 24.6025 28.6555 24.9659 29.2301C25.4465 30.1117 24.2656 30.6001 23.5551 30.894L23.5039 30.9151C22.7192 31.262 21.9602 31.4898 21.0959 31.2435C20.8972 31.198 20.6971 31.1347 20.4964 31.0712L20.4964 31.0712L20.4963 31.0712L20.4963 31.0712C20.1998 30.9774 19.9021 30.8833 19.606 30.8454C18.8384 30.7222 18.6514 31.3236 19.2663 31.6725C19.4813 31.8018 19.7436 31.8941 19.9865 31.9762C20.0785 32.0049 20.1688 32.0337 20.2577 32.0621C20.9903 32.2958 21.6307 32.5001 22.3343 32.3518C22.6076 32.3097 22.8805 32.2048 23.1541 32.0996C23.6404 31.9127 24.1287 31.7251 24.624 31.888C25.14 32.087 25.226 32.7541 24.8412 33.1153C24.5167 33.4337 24.0394 33.6337 23.5934 33.8207L23.5933 33.8207L23.5932 33.8208C23.5074 33.8568 23.4227 33.8923 23.3405 33.928C22.6289 34.2318 21.9409 34.4103 21.1604 34.2031C20.9454 34.159 20.7257 34.0887 20.5043 34.0179C20.128 33.8975 19.7468 33.7756 19.3759 33.7782C18.8384 33.7905 18.746 34.2174 19.133 34.5232C19.3394 34.6854 19.6318 34.7962 19.8898 34.8865C19.9927 34.9191 20.0943 34.9522 20.1948 34.9849L20.1949 34.985L20.1949 34.985C20.8424 35.196 21.4465 35.3928 22.0699 35.336C22.4311 35.311 22.778 35.1811 23.1231 35.0518C23.544 34.8942 23.9621 34.7375 24.4004 34.7736C24.9014 34.8167 25.2131 35.3503 25.0175 35.7854C24.8627 36.1528 24.4413 36.3786 24.0521 36.5612C23.5921 36.7685 23.1212 36.9779 22.6353 37.1216C21.8803 37.4162 20.9607 37.1087 20.1916 36.8516C19.4715 36.6108 18.8833 36.4142 18.6858 36.7973C18.6724 36.8321 18.6591 36.8669 18.6459 36.9017C18.4366 37.4516 18.234 37.984 17.4818 37.9918C16.7548 37.9991 16.5442 37.5267 16.3168 37.0165C16.2914 36.9594 16.2657 36.9019 16.2391 36.8445C15.9926 36.4656 15.3024 36.7159 14.7251 36.9253C14.4767 37.0154 14.2493 37.0979 14.087 37.1195C13.2679 37.3617 12.5433 37.1934 11.7887 36.8691C11.6839 36.8205 11.5669 36.7718 11.4446 36.7208L11.4445 36.7207C10.7715 36.4402 9.93654 36.0922 10.073 35.3298C10.3957 34.4611 11.25 34.7745 12.0177 35.0561C12.2984 35.159 12.5675 35.2577 12.7949 35.2929C13.2464 35.3893 13.672 35.338 14.1214 35.2251C14.2311 35.1882 14.3664 35.1509 14.514 35.1101C15.13 34.94 15.9611 34.7105 16.0478 34.2072C16.0542 34.0266 15.8994 33.8767 15.607 33.8521C15.2567 33.8261 14.8682 33.9428 14.4906 34.0563C14.2727 34.1218 14.0583 34.1862 13.8569 34.2215C13.1023 34.4083 12.3799 34.1825 11.6919 33.8849C11.6121 33.8497 11.5316 33.8153 11.4515 33.7809C10.8824 33.5369 10.3298 33.3 10.1224 32.8628C9.90743 32.4154 10.217 31.8633 10.7567 31.8264C11.1508 31.7891 11.5581 31.9422 11.9399 32.0856L11.94 32.0856L11.9401 32.0857C12.0206 32.1159 12.0999 32.1457 12.1778 32.1732C12.883 32.4585 13.5989 32.4606 14.317 32.2307C14.3974 32.2058 14.4801 32.1813 14.564 32.1564C15.0119 32.0236 15.494 31.8806 15.8435 31.6109C16.1811 31.3379 16.1015 30.9521 15.607 30.909C15.2567 30.8829 14.8682 30.9997 14.4906 31.1132C14.2727 31.1787 14.0583 31.2431 13.8569 31.2784C13.1023 31.4652 12.3799 31.2394 11.6919 30.9418C11.5821 30.8912 11.4695 30.8426 11.3573 30.7942C10.6878 30.5055 10.0325 30.223 10.0601 29.5339C10.1138 28.951 10.7825 28.7622 11.3178 28.9346C11.4945 28.9881 11.6706 29.0495 11.8468 29.1109L11.8469 29.1109C12.5348 29.3506 13.2251 29.5911 13.9644 29.3738C14.0532 29.347 14.1659 29.3176 14.2927 29.2845C14.9617 29.1101 16.0246 28.8329 16.0499 28.286C16.037 28.1157 15.8758 27.9782 15.5834 27.9617C15.2033 27.96 14.8159 28.0708 14.4256 28.1824L14.4256 28.1824C13.9216 28.3265 13.4128 28.4721 12.9088 28.3784C12.4874 28.3189 12.0596 28.1485 11.6618 27.9843L11.6173 27.9655C11.0294 27.7162 10.3899 27.4451 10.1697 27.0608C9.84938 26.5559 10.245 25.8888 10.8986 25.9319C11.2645 25.9479 11.645 26.0863 12.0235 26.2241L12.0235 26.2241C12.4257 26.3704 12.8257 26.5159 13.2034 26.5128C13.6161 26.5271 14.0225 26.4266 14.4181 26.3137C14.4864 26.2928 14.5554 26.2721 14.6246 26.2513L14.6246 26.2513C15.1538 26.0922 15.6928 25.9302 16.0198 25.6815L16.0794 25.629C16.7136 25.0701 17.3584 24.5018 18.2236 25.1028C18.3694 25.1982 18.4926 25.3008 18.6142 25.402C18.8171 25.5709 19.0155 25.7362 19.3071 25.8581C19.4923 25.9176 19.6774 25.9824 19.8627 26.0474L19.8627 26.0474L19.8628 26.0474C20.7514 26.359 21.6462 26.6727 22.5837 26.406C22.7819 26.354 22.9783 26.2807 23.1751 26.2072C23.4672 26.0982 23.7601 25.9888 24.0607 25.9484C24.8648 25.7924 25.3894 26.5825 24.8949 27.1695C24.7208 27.3891 24.3596 27.5903 24.0543 27.7319C23.9912 27.7598 23.9282 27.7879 23.8652 27.816C23.0286 28.1894 22.1959 28.5609 21.2722 28.3414L21.2421 28.3353C21.0031 28.2969 20.7588 28.2151 20.5118 28.1323ZM3.19025 36.2268C3.18716 36.1491 3.16851 36.0723 3.14987 35.9956C3.12988 35.9133 3.1099 35.831 3.10909 35.7476L3.10965 35.7189C3.1139 35.6048 3.1667 35.4897 3.22549 35.3883C3.86735 34.2735 4.5681 33.189 5.32485 32.1468C6.1513 31.0057 7.04225 29.9041 8.00044 28.8631C8.13518 28.7004 8.32634 28.6763 8.52732 28.651H8.52734C8.64579 28.636 8.76765 28.6207 8.88338 28.5762C9.07634 28.4979 9.23612 28.3472 9.32124 28.1637C9.50654 27.7788 9.33768 27.2857 8.92636 27.0499C8.81727 26.9723 8.68628 26.9479 8.55691 26.9237C8.44494 26.9028 8.33419 26.8822 8.2399 26.8275C8.15412 26.762 8.09997 26.6684 8.04545 26.5741C7.99115 26.4803 7.93649 26.3858 7.84987 26.3178C7.5319 26.0226 7.04151 25.9729 6.70667 26.1831C6.36338 26.3851 6.23767 26.8206 6.3732 27.1921C6.4372 27.4029 6.41191 27.5925 6.30012 27.771C4.90857 30.1206 3.29715 32.3628 1.38536 34.3465C1.26139 34.44 1.09905 34.4653 0.934419 34.4909C0.741439 34.5209 0.545321 34.5514 0.404205 34.6929C-0.0857372 35.0872 0.07534 35.9001 0.706637 36.1497C0.787826 36.1894 0.878929 36.204 0.969737 36.2187H0.969754C1.07613 36.2358 1.18211 36.2528 1.27127 36.3099C1.35577 36.3722 1.40739 36.4631 1.45929 36.5545C1.5034 36.6322 1.54771 36.7103 1.61261 36.7715C2.18287 37.3912 3.24225 37.0144 3.19107 36.225L3.19025 36.2268ZM31.7181 35.9956C31.6994 36.0723 31.6808 36.1491 31.6777 36.2268L31.6768 36.225C31.6257 37.0144 32.6851 37.3912 33.2553 36.7715C33.3202 36.7103 33.3645 36.6322 33.4086 36.5545C33.4605 36.4631 33.5121 36.3722 33.5967 36.3099C33.6858 36.2528 33.7918 36.2358 33.8982 36.2187C33.989 36.204 34.0801 36.1894 34.1613 36.1497C34.7926 35.9001 34.9537 35.0872 34.4637 34.6929C34.3226 34.5514 34.1265 34.5209 33.9335 34.4909C33.7689 34.4653 33.6065 34.44 33.4826 34.3465C31.5708 32.3628 29.9593 30.1206 28.5678 27.771C28.456 27.5925 28.4307 27.4029 28.4947 27.1921C28.6303 26.8206 28.5045 26.3851 28.1613 26.1831C27.8264 25.9729 27.336 26.0226 27.018 26.3178C26.9314 26.3858 26.8768 26.4803 26.8225 26.5741C26.768 26.6684 26.7138 26.762 26.628 26.8275C26.5337 26.8822 26.423 26.9028 26.311 26.9237C26.1816 26.9479 26.0506 26.9723 25.9416 27.0499C25.5302 27.2857 25.3614 27.7788 25.5467 28.1637C25.6318 28.3472 25.7916 28.4979 25.9845 28.5762C26.1003 28.6207 26.2221 28.636 26.3406 28.651C26.5416 28.6763 26.7327 28.7004 26.8675 28.8631C27.8257 29.9041 28.7166 31.0057 29.5431 32.1468C30.2998 33.189 31.0006 34.2735 31.6424 35.3883C31.7012 35.4897 31.754 35.6048 31.7583 35.7189L31.7588 35.7476C31.758 35.831 31.738 35.9133 31.7181 35.9956Z" fill="white"/>
<path d="M13.0174 20.9694L14.4765 18.3482L14.3995 18.3053L14.3202 18.267L13.0174 20.9694ZM13.6263 22.2229L16.6257 22.1625V22.1625L13.6263 22.2229ZM9.17361 13.9702L12.159 14.2655L12.1651 14.204L12.1687 14.1423L9.17361 13.9702ZM18.0348 7.00561V4.00561H17.9699L17.9051 4.00842L18.0348 7.00561ZM18.0637 7.00561V10.0056H18.1018L18.1399 10.0046L18.0637 7.00561ZM26.7879 13.703L23.8369 14.2429L23.8457 14.2911L23.8561 14.3389L26.7879 13.703ZM26.8914 16.4772L23.916 16.0943L23.9123 16.1232L23.9091 16.1521L26.8914 16.4772ZM22.4585 21.5525L23.3733 24.4097L23.3793 24.4077L22.4585 21.5525ZM21.5338 22.4561L18.6692 21.565L18.6692 21.565L21.5338 22.4561ZM21.1844 23.162L23.2611 25.3271L23.3891 25.2043L23.5017 25.0674L21.1844 23.162ZM20.2436 23.61L17.2517 23.8293L17.5075 27.3209L20.9187 26.5331L20.2436 23.61ZM20.1718 23.0712L23.1331 22.5906L23.1331 22.5906L20.1718 23.0712ZM20.1249 22.755L23.1051 22.4109L23.0944 22.3185L23.0781 22.2269L20.1249 22.755ZM20.1155 22.7022L17.1619 23.2277L17.1623 23.2302L20.1155 22.7022ZM19.8448 22.0351L21.706 19.6822L21.357 19.4062L20.9429 19.2433L19.8448 22.0351ZM19.6325 23.1437L22.5955 22.6738L22.5955 22.6736L19.6325 23.1437ZM19.6332 23.1479L16.6702 23.6178L16.6726 23.6324L16.675 23.6471L19.6332 23.1479ZM19.6696 23.3826L22.6372 22.9429L22.6372 22.9428L19.6696 23.3826ZM19.7245 23.7106L20.2072 26.6715L23.3061 26.1663L22.6604 23.0936L19.7245 23.7106ZM19.5556 23.7405L20.0143 26.7052L20.0805 26.695L20.1461 26.6818L19.5556 23.7405ZM18.0257 23.8929L15.0591 23.4465L14.5159 27.0554L18.1618 26.8898L18.0257 23.8929ZM18.0177 23.3589H15.0177V23.4833L15.028 23.6072L18.0177 23.3589ZM18.0177 23.3589H21.0177V23.2707L21.0125 23.1827L18.0177 23.3589ZM18.0177 23.3588L21.0125 23.1826L21.0106 23.151L21.0081 23.1195L18.0177 23.3588ZM18.0177 23.3586L21.0081 23.1194L21.0074 23.1103L18.0177 23.3586ZM17.9983 23.0725L20.9962 22.9614L20.9919 22.8462L20.9788 22.7316L17.9983 23.0725ZM17.9764 22.8309L14.9858 23.0687L14.9858 23.0688L17.9764 22.8309ZM17.6588 21.9973L18.3079 19.0684L17.9872 18.9973H17.6588V21.9973ZM17.6497 21.9973V18.9973H17.1064L16.5976 19.1879L17.6497 21.9973ZM17.464 22.8689L20.4552 22.6395L20.4552 22.6395L17.464 22.8689ZM17.4761 23.052L14.4787 23.1758L14.4847 23.322L14.5049 23.4668L17.4761 23.052ZM17.4955 23.2749L14.5028 23.4833L14.505 23.5149L14.5078 23.5465L17.4955 23.2749ZM17.4955 23.275L20.4852 23.0258L20.4842 23.0146L20.4832 23.0034L17.4955 23.275ZM17.4955 23.275H20.4955V23.1503L20.4852 23.0259L17.4955 23.275ZM17.4955 23.2751H14.4955V23.3632L14.5007 23.4512L17.4955 23.2751ZM17.4955 23.2752L14.5007 23.4513L14.5017 23.4675L14.5028 23.4837L17.4955 23.2752ZM17.5781 23.9071L17.624 26.9067L21.4815 26.8477L20.474 23.1237L17.5781 23.9071ZM15.7331 23.8033L12.8226 23.0759L12.0095 26.3293L15.333 26.7765L15.7331 23.8033ZM15.7999 23.4269L12.8312 22.995L12.8312 22.995L15.7999 23.4269ZM15.8442 23.1495L18.7924 23.7047L18.8133 23.5939L18.8258 23.4819L15.8442 23.1495ZM15.8764 22.9104L18.8452 23.3417L18.8462 23.3346L15.8764 22.9104ZM15.8764 22.9103L18.8462 23.3346L18.8529 23.2882L18.858 23.2416L15.8764 22.9103ZM15.8764 22.9103L12.9076 22.479L12.9003 22.5289L12.8947 22.579L15.8764 22.9103ZM15.7407 22.0052L17.0445 19.3033L16.4267 19.0052H15.7407V22.0052ZM15.7316 22.0052V19.0052H15.5593L15.3881 19.0249L15.7316 22.0052ZM15.3382 22.8506L12.3702 22.4136L12.3655 22.446L12.3614 22.4785L15.3382 22.8506ZM15.3382 22.8506L18.3051 23.2957L18.3105 23.2593L18.3151 23.2227L15.3382 22.8506ZM15.3382 22.8507L12.3714 22.4057L12.3702 22.4137L15.3382 22.8507ZM15.3084 23.0394L12.3579 22.497L12.3313 22.6414L12.319 22.7877L15.3084 23.0394ZM15.281 23.2457L12.3141 22.8012L12.3141 22.8012L15.281 23.2457ZM15.2277 23.7232L14.79 26.6911L18.1049 27.1799L18.2258 23.8314L15.2277 23.7232ZM15.1965 23.7177L14.6331 26.6643L14.6332 26.6643L15.1965 23.7177ZM15.1653 23.7122L14.6972 26.6754L14.7124 26.6778L14.7275 26.6801L15.1653 23.7122ZM20.3197 11.0042L18.7546 8.44487L18.4297 8.64358L18.1647 8.9172L20.3197 11.0042ZM24.5608 13.4248L21.8425 14.6939L21.8429 14.6948L24.5608 13.4248ZM20.3182 11.0058L21.8833 13.5652L22.2083 13.3665L22.4733 13.0929L20.3182 11.0058ZM19.72 16.3845L22.4379 15.1145L19.72 16.3845ZM23.4998 17.8148L21.9307 15.2578L21.9295 15.2586L23.4998 17.8148ZM17.8826 17.4156L17.8489 20.4154L17.8826 20.4158L17.9162 20.4154L17.8826 17.4156ZM18.8096 17.9484L16.484 19.8435L16.4906 19.8516L18.8096 17.9484ZM16.9555 17.9484L19.2745 19.8516L19.2812 19.8435L16.9555 17.9484ZM16.8763 18.8616L15.7419 21.6389L15.7487 21.6416L16.8763 18.8616ZM17.8826 18.442L20.0718 16.3908L17.8826 14.0543L15.6934 16.3908L17.8826 18.442ZM18.8888 18.8616L20.0165 21.6416L20.0232 21.6389L18.8888 18.8616ZM11.5347 13.4232L9.37962 15.5103L12.4092 18.6385L14.2526 14.6932L11.5347 13.4232ZM15.7757 11.0027L17.3408 8.44329L17.3387 8.44196L15.7757 11.0027ZM11.5331 13.4217L13.6882 11.3346L10.6576 8.20529L8.81479 12.1526L11.5331 13.4217ZM12.5942 17.8117L11.0251 20.3686L11.0251 20.3687L12.5942 17.8117ZM16.374 16.3813L19.0919 17.6513L16.374 16.3813ZM19.1437 27.931L17.0731 30.1017L18.2437 31.2184L19.8199 30.8538L19.1437 27.931ZM20.5118 28.1323L21.4645 25.2876L21.4645 25.2876L20.5118 28.1323ZM19.1416 27.9289L21.2123 25.7581L19.9401 24.5446L18.2596 25.0615L19.1416 27.9289ZM18.9158 28.3517L16.0801 29.3307L16.0916 29.364L16.1038 29.397L18.9158 28.3517ZM19.9162 29.0044L20.9058 26.1724L20.9058 26.1724L19.9162 29.0044ZM20.0209 29.0413L19.0115 31.8664L19.0223 31.8702L19.0331 31.874L20.0209 29.0413ZM23.2309 29.1275L22.1221 26.3399L22.058 26.3654L21.9952 26.3938L23.2309 29.1275ZM24.9659 29.2301L27.5999 27.7941L27.5534 27.7089L27.5016 27.6269L24.9659 29.2301ZM23.5551 30.894L22.4085 28.1217L22.4078 28.122L23.5551 30.894ZM23.5039 30.9151L22.3567 28.1432L22.3237 28.1568L22.2911 28.1712L23.5039 30.9151ZM21.0959 31.2435L21.9181 28.3584L21.8427 28.3369L21.7663 28.3194L21.0959 31.2435ZM20.4964 31.0712L19.443 33.8802L19.5168 33.9079L19.5919 33.9316L20.4964 31.0712ZM20.4964 31.0712L21.5497 28.2622L21.3226 28.177L21.0847 28.1295L20.4964 31.0712ZM20.4963 31.0712L19.5476 33.9172L19.7248 33.9763L19.908 34.0129L20.4963 31.0712ZM20.4963 31.0712L21.445 28.2251L21.423 28.2178L21.4008 28.2108L20.4963 31.0712ZM19.606 30.8454L19.1307 33.8075L19.1777 33.815L19.2248 33.821L19.606 30.8454ZM19.2663 31.6725L20.8124 29.1016L20.7799 29.082L20.7468 29.0632L19.2663 31.6725ZM19.9865 31.9762L19.0261 34.8183L19.0598 34.8297L19.0936 34.8403L19.9865 31.9762ZM20.2577 32.0621L19.3459 34.9201L19.3459 34.9201L20.2577 32.0621ZM22.3343 32.3518L21.8773 29.3868L21.7962 29.3993L21.7158 29.4163L22.3343 32.3518ZM23.1541 32.0996L22.0779 29.2993L23.1541 32.0996ZM24.624 31.888L25.7039 29.0891L25.6332 29.0618L25.5611 29.0381L24.624 31.888ZM24.8412 33.1153L22.7881 30.9279L22.7639 30.9506L22.7402 30.9739L24.8412 33.1153ZM23.5934 33.8207L24.542 36.6668L24.6491 36.6311L24.7532 36.5875L23.5934 33.8207ZM23.5933 33.8207L22.6447 30.9747L22.5126 31.0187L22.3851 31.0748L23.5933 33.8207ZM23.5932 33.8208L24.7529 36.5876L24.7772 36.5774L24.8014 36.5668L23.5932 33.8208ZM23.3405 33.928L24.5182 36.6872L24.5277 36.6831L24.5372 36.679L23.3405 33.928ZM21.1604 34.2031L21.9305 31.3036L21.8474 31.2815L21.7631 31.2642L21.1604 34.2031ZM20.5043 34.0179L19.5904 36.8753L19.5904 36.8753L20.5043 34.0179ZM19.3759 33.7782L19.355 30.7783L19.3311 30.7785L19.3072 30.779L19.3759 33.7782ZM19.133 34.5232L17.273 36.8771L17.2798 36.8824L19.133 34.5232ZM19.8898 34.8865L18.8987 37.7181L18.9415 37.733L18.9847 37.7467L19.8898 34.8865ZM20.1948 34.9849L21.1435 32.1389L21.1339 32.1357L21.1243 32.1326L20.1948 34.9849ZM20.1949 34.985L19.2462 37.831L19.3555 37.8674L19.4673 37.8954L20.1949 34.985ZM20.1949 34.985L21.1244 32.1326L21.0245 32.1L20.9225 32.0745L20.1949 34.985ZM22.0699 35.336L21.8631 32.3431L21.8302 32.3454L21.7974 32.3484L22.0699 35.336ZM23.1231 35.0518L22.0708 32.2424L22.0708 32.2424L23.1231 35.0518ZM24.4004 34.7736L24.6576 31.7846L24.6466 31.7837L24.4004 34.7736ZM25.0175 35.7854L22.2814 34.5551L22.2667 34.5877L22.2529 34.6206L25.0175 35.7854ZM24.0521 36.5612L25.2845 39.2965L25.3057 39.2869L25.3269 39.277L24.0521 36.5612ZM22.6353 37.1216L21.7847 34.2447L21.6629 34.2807L21.5446 34.3268L22.6353 37.1216ZM20.1916 36.8516L19.2403 39.6968L19.2403 39.6968L20.1916 36.8516ZM18.6858 36.7973L16.0194 35.4224L15.9452 35.5662L15.887 35.7171L18.6858 36.7973ZM18.6459 36.9017L15.842 35.8347L15.842 35.8348L18.6459 36.9017ZM17.4818 37.9918L17.5123 40.9916L17.5126 40.9916L17.4818 37.9918ZM16.3168 37.0165L19.057 35.7953L19.057 35.7953L16.3168 37.0165ZM16.2391 36.8445L18.961 35.583L18.8707 35.3882L18.7536 35.2082L16.2391 36.8445ZM14.7251 36.9253L13.7022 34.1051L13.7022 34.1051L14.7251 36.9253ZM14.087 37.1195L13.6911 34.1457L13.46 34.1765L13.2364 34.2426L14.087 37.1195ZM11.7887 36.8691L10.5265 39.5907L10.5651 39.6086L10.6043 39.6254L11.7887 36.8691ZM11.4446 36.7208L10.2628 39.4782L10.2766 39.4841L10.2905 39.4899L11.4446 36.7208ZM11.4445 36.7207L12.6262 33.9633L12.6125 33.9574L12.5986 33.9516L11.4445 36.7207ZM10.073 35.3298L7.2608 34.285L7.16723 34.5368L7.1199 34.8013L10.073 35.3298ZM12.0177 35.0561L13.0508 32.2395H13.0508L12.0177 35.0561ZM12.7949 35.2929L13.4217 32.3591L13.338 32.3412L13.2534 32.3281L12.7949 35.2929ZM14.1214 35.2251L14.8523 38.1347L14.9663 38.1061L15.0776 38.0687L14.1214 35.2251ZM14.514 35.1101L15.3126 38.0019L15.3126 38.0019L14.514 35.1101ZM16.0478 34.2072L19.0042 34.7165L19.0386 34.5168L19.0459 34.3142L16.0478 34.2072ZM15.607 33.8521L15.8588 30.8627L15.8441 30.8614L15.8293 30.8603L15.607 33.8521ZM14.4906 34.0563L15.3541 36.9294L15.3541 36.9294L14.4906 34.0563ZM13.8569 34.2215L13.3391 31.2666L13.2369 31.2845L13.1362 31.3094L13.8569 34.2215ZM11.6919 33.8849L10.4818 36.63L10.4913 36.6342L10.5009 36.6384L11.6919 33.8849ZM11.4515 33.7809L10.2696 36.5383L10.2696 36.5383L11.4515 33.7809ZM10.1224 32.8628L12.8331 31.5774L12.8298 31.5705L12.8264 31.5635L10.1224 32.8628ZM10.7567 31.8264L10.9616 34.8194L11.0004 34.8167L11.0392 34.8131L10.7567 31.8264ZM11.9399 32.0856L10.8847 34.8939L10.9376 34.9138L10.9913 34.9317L11.9399 32.0856ZM11.94 32.0856L13.0541 29.3002L12.9723 29.2674L12.8887 29.2396L11.94 32.0856ZM11.9401 32.0857L10.8259 34.8711L10.8553 34.8829L10.885 34.894L11.9401 32.0857ZM12.1778 32.1732L13.3029 29.3922L13.2407 29.367L13.1774 29.3447L12.1778 32.1732ZM14.317 32.2307L13.4284 29.3654L13.4154 29.3694L13.4024 29.3735L14.317 32.2307ZM14.564 32.1564L15.417 35.0326L15.417 35.0326L14.564 32.1564ZM15.8435 31.6109L17.6762 33.986L17.7033 33.9651L17.7299 33.9436L15.8435 31.6109ZM15.607 30.909L15.8675 27.9203L15.8484 27.9186L15.8293 27.9172L15.607 30.909ZM14.4906 31.1132L15.3541 33.9862L15.3541 33.9862L14.4906 31.1132ZM13.8569 31.2784L13.3391 28.3234L13.2369 28.3414L13.1362 28.3663L13.8569 31.2784ZM11.6919 30.9418L10.4355 33.666L10.468 33.681L10.5009 33.6953L11.6919 30.9418ZM11.3573 30.7942L10.1695 33.549L10.1695 33.5491L11.3573 30.7942ZM10.0601 29.5339L7.07276 29.2584L7.06561 29.3359L7.06249 29.4137L10.0601 29.5339ZM11.3178 28.9346L10.3982 31.7902L10.4227 31.798L10.4473 31.8055L11.3178 28.9346ZM11.8468 29.1109L12.8378 26.2793L12.8338 26.2779L11.8468 29.1109ZM11.8469 29.1109L10.8558 31.9425L10.8599 31.9439L11.8469 29.1109ZM13.9644 29.3738L14.8104 32.2521L14.8214 32.2488L14.8324 32.2455L13.9644 29.3738ZM14.2927 29.2845L13.5358 26.3816L13.5358 26.3816L14.2927 29.2845ZM16.0499 28.286L19.0467 28.4247L19.0552 28.2419L19.0414 28.0595L16.0499 28.286ZM15.5834 27.9617L15.7516 24.9665L15.6746 24.9621L15.5975 24.9618L15.5834 27.9617ZM14.4256 28.1824L13.6007 25.2981L13.5384 25.3159L13.4769 25.3363L14.4256 28.1824ZM14.4256 28.1824L15.2506 31.0667L15.3128 31.0489L15.3743 31.0285L14.4256 28.1824ZM12.9088 28.3784L13.457 25.4289L13.3929 25.417L13.3284 25.4079L12.9088 28.3784ZM11.6618 27.9843L10.4905 30.7462L10.5038 30.7519L10.5171 30.7573L11.6618 27.9843ZM11.6173 27.9655L12.7886 25.2036L12.7883 25.2034L11.6173 27.9655ZM10.1697 27.0608L12.7728 25.5695L12.7392 25.5107L12.7029 25.4535L10.1697 27.0608ZM10.8986 25.9319L10.7012 28.9254L10.7346 28.9276L10.7681 28.9291L10.8986 25.9319ZM12.0235 26.2241L13.1377 23.4386L13.0938 23.4211L13.0493 23.4049L12.0235 26.2241ZM12.0235 26.2241L10.9094 29.0095L10.9533 29.0271L10.9977 29.0432L12.0235 26.2241ZM13.2034 26.5128L13.3077 23.5146L13.2429 23.5123L13.1782 23.5129L13.2034 26.5128ZM14.4181 26.3137L15.2413 29.1985L15.268 29.1909L15.2945 29.1828L14.4181 26.3137ZM14.6246 26.2513L13.8004 23.3667L13.7807 23.3723L13.7611 23.3782L14.6246 26.2513ZM14.6246 26.2513L15.4488 29.1358L15.4685 29.1302L15.4882 29.1243L14.6246 26.2513ZM16.0198 25.6815L17.8356 28.0696L17.9215 28.0043L18.0025 27.933L16.0198 25.6815ZM16.0794 25.629L18.0622 27.8805L18.0631 27.8797L16.0794 25.629ZM18.2236 25.1028L16.512 27.5666L16.5464 27.5906L16.5816 27.6135L18.2236 25.1028ZM18.6142 25.402L20.534 23.0967L20.534 23.0967L18.6142 25.402ZM19.3071 25.8581L18.1504 28.6261L18.2679 28.6752L18.3892 28.7142L19.3071 25.8581ZM19.8627 26.0474L18.8702 28.8785L18.8921 28.8861L18.914 28.8935L19.8627 26.0474ZM19.8628 26.0474L20.8552 23.2164L20.8334 23.2087L20.8114 23.2014L19.8628 26.0474ZM22.5837 26.406L21.8217 23.5044L21.7923 23.5122L21.7631 23.5205L22.5837 26.406ZM23.1751 26.2072L22.126 23.3966L22.1259 23.3966L23.1751 26.2072ZM24.0607 25.9484L24.461 28.9215L24.5469 28.91L24.632 28.8935L24.0607 25.9484ZM24.8949 27.1695L22.6006 25.2367L22.5719 25.2707L22.5443 25.3055L24.8949 27.1695ZM24.0543 27.7319L25.2671 30.4758L25.292 30.4648L25.3167 30.4534L24.0543 27.7319ZM23.8652 27.816L22.6426 25.0764L22.6426 25.0764L23.8652 27.816ZM21.2722 28.3414L21.9658 25.4227L21.9198 25.4118L21.8734 25.4023L21.2722 28.3414ZM21.2421 28.3353L21.8433 25.3961L21.7808 25.3834L21.7179 25.3732L21.2421 28.3353ZM3.14987 35.9956L6.0651 35.2875L6.0651 35.2875L3.14987 35.9956ZM3.19025 36.2268L0.192629 36.3462L5.93853 37.4297L3.19025 36.2268ZM3.10909 35.7476L0.10966 35.6893L0.108811 35.733L0.109234 35.7767L3.10909 35.7476ZM3.10965 35.7189L0.111734 35.6071L0.110738 35.6338L0.110219 35.6606L3.10965 35.7189ZM3.22549 35.3883L5.82053 36.8936L5.82536 36.8852L3.22549 35.3883ZM5.32485 32.1468L7.75241 33.9094L7.75448 33.9066L5.32485 32.1468ZM8.00044 28.8631L10.2077 30.8948L10.2608 30.8372L10.3108 30.7768L8.00044 28.8631ZM8.52732 28.651V25.651H8.33887L8.1519 25.6746L8.52732 28.651ZM8.52734 28.651V31.651H8.71581L8.90281 31.6274L8.52734 28.651ZM8.88338 28.5762L9.95834 31.377L9.98496 31.3668L10.0114 31.3561L8.88338 28.5762ZM9.32124 28.1637L6.61821 26.8623L6.60889 26.8816L6.59984 26.9011L9.32124 28.1637ZM8.92636 27.0499L7.18693 29.4942L7.30677 29.5795L7.43438 29.6526L8.92636 27.0499ZM8.55691 26.9237L9.10693 23.9746L9.10693 23.9746L8.55691 26.9237ZM8.2399 26.8275L6.41968 29.2122L6.57025 29.3271L6.73408 29.4222L8.2399 26.8275ZM8.04545 26.5741L5.44865 28.0763L5.44865 28.0764L8.04545 26.5741ZM7.84987 26.3178L5.80851 28.5162L5.89999 28.6012L5.9982 28.6782L7.84987 26.3178ZM6.70667 26.1831L8.22817 28.7686L8.26519 28.7469L8.30157 28.724L6.70667 26.1831ZM6.3732 27.1921L9.2439 26.3208L9.21985 26.2416L9.19148 26.1638L6.3732 27.1921ZM6.30012 27.771L3.75763 26.1786L3.73784 26.2102L3.71885 26.2423L6.30012 27.771ZM1.38536 34.3465L3.19244 36.7412L3.38128 36.5987L3.54544 36.4283L1.38536 34.3465ZM0.934419 34.4909L0.473583 31.5265L0.473573 31.5265L0.934419 34.4909ZM0.404205 34.6929L2.28491 37.0302L2.41293 36.9272L2.52894 36.8108L0.404205 34.6929ZM0.706637 36.1497L2.02303 33.454L1.91815 33.4027L1.80961 33.3598L0.706637 36.1497ZM0.969737 36.2187L0.492827 39.1805L0.729756 39.2187H0.969737V36.2187ZM0.969754 36.2187L1.44664 33.2568L1.20972 33.2187H0.969754V36.2187ZM1.27127 36.3099L3.05151 33.8952L2.97188 33.8365L2.88856 33.7832L1.27127 36.3099ZM1.45929 36.5545L-1.14958 38.0357L-1.14957 38.0357L1.45929 36.5545ZM1.61261 36.7715L3.82024 34.7401L3.7481 34.6617L3.67059 34.5887L1.61261 36.7715ZM3.19107 36.225L6.18479 36.0309L0.442793 35.0221L3.19107 36.225ZM31.6777 36.2268L28.929 37.4289L34.6753 36.3463L31.6777 36.2268ZM31.7181 35.9956L28.8028 35.2874L28.8028 35.2875L31.7181 35.9956ZM31.6768 36.225L34.4255 35.023L28.6831 36.0309L31.6768 36.225ZM33.2553 36.7715L31.1973 34.5887L31.1198 34.6617L31.0477 34.7401L33.2553 36.7715ZM33.4086 36.5545L30.7998 35.0734L30.7998 35.0734L33.4086 36.5545ZM33.5967 36.3099L31.9794 33.7832L31.8961 33.8365L31.8165 33.8952L33.5967 36.3099ZM33.8982 36.2187L34.375 39.1805H34.3751L33.8982 36.2187ZM34.1613 36.1497L33.0583 33.3598L32.9498 33.4027L32.8449 33.4539L34.1613 36.1497ZM34.4637 34.6929L32.339 36.8109L32.455 36.9272L32.583 37.0302L34.4637 34.6929ZM33.9335 34.4909L33.4726 37.4553L33.4727 37.4553L33.9335 34.4909ZM33.4826 34.3465L31.3225 36.4283L31.4866 36.5987L31.6755 36.7412L33.4826 34.3465ZM28.5678 27.771L31.1491 26.2423L31.1301 26.2102L31.1103 26.1786L28.5678 27.771ZM28.4947 27.1921L25.6764 26.1638L25.6481 26.2416L25.624 26.3208L28.4947 27.1921ZM28.1613 26.1831L26.5664 28.724L26.6027 28.7469L26.6397 28.7686L28.1613 26.1831ZM27.018 26.3178L28.8697 28.6782L28.9679 28.6012L29.0594 28.5162L27.018 26.3178ZM26.8225 26.5741L29.4193 28.0764L29.4193 28.0763L26.8225 26.5741ZM26.628 26.8275L28.1338 29.4222L28.2977 29.3271L28.4482 29.2122L26.628 26.8275ZM26.311 26.9237L25.761 23.9746L25.761 23.9746L26.311 26.9237ZM25.9416 27.0499L27.4335 29.6526L27.5611 29.5795L27.681 29.4942L25.9416 27.0499ZM25.5467 28.1637L28.2681 26.9011L28.259 26.8816L28.2497 26.8623L25.5467 28.1637ZM25.9845 28.5762L24.8565 31.3561L24.883 31.3668L24.9096 31.377L25.9845 28.5762ZM26.3406 28.651L25.9651 31.6274L25.9652 31.6274L26.3406 28.651ZM26.8675 28.8631L24.5571 30.7768L24.6071 30.8372L24.6602 30.8948L26.8675 28.8631ZM29.5431 32.1468L27.1134 33.9066L27.1155 33.9094L29.5431 32.1468ZM31.6424 35.3883L29.0425 36.8852L29.0474 36.8936L31.6424 35.3883ZM31.7583 35.7189L34.7577 35.6606L34.7572 35.6338L34.7562 35.6071L31.7583 35.7189ZM31.7588 35.7476L34.7587 35.7767L34.7591 35.733L34.7583 35.6893L31.7588 35.7476ZM11.5582 23.5906C11.4419 23.5259 11.2671 23.4048 11.0926 23.2034C10.914 22.9972 10.7921 22.7718 10.7168 22.5625C10.6468 22.3678 10.6295 22.2213 10.6253 22.1797C10.6227 22.1532 10.6242 22.1474 10.6269 22.2834L16.6257 22.1625C16.6229 22.0248 16.6348 21.2884 16.3627 20.5317C16.026 19.5957 15.3687 18.8448 14.4765 18.3482L11.5582 23.5906ZM6.18818 13.675C5.9773 15.8072 6.20283 17.8645 7.2233 19.6984C8.24672 21.5375 9.86184 22.7786 11.7146 23.6718L14.3202 18.267C13.1831 17.7189 12.7036 17.2074 12.4662 16.7808C12.2258 16.3489 12.0244 15.6273 12.159 14.2655L6.18818 13.675ZM17.9051 4.00842C14.9583 4.13593 12.1357 4.82237 9.94444 6.46085C7.63703 8.18616 6.35504 10.7256 6.17855 13.7982L12.1687 14.1423C12.254 12.6566 12.7873 11.827 13.5374 11.2661C14.4037 10.6184 15.8807 10.1016 18.1645 10.0028L17.9051 4.00842ZM18.0637 4.00561H18.0348V10.0056H18.0637V4.00561ZM29.7389 13.1631C29.2113 10.2793 28.0057 7.7932 25.7834 6.11525C23.5994 4.46622 20.8735 3.93324 17.9875 4.00658L18.1399 10.0046C20.2637 9.95067 21.4615 10.3702 22.168 10.9036C22.8361 11.4081 23.4877 12.3343 23.8369 14.2429L29.7389 13.1631ZM29.8669 16.8601C30.0251 15.631 29.9954 14.3382 29.7197 13.0671L23.8561 14.3389C23.9731 14.8785 23.9953 15.4782 23.916 16.0943L29.8669 16.8601ZM23.3793 24.4077C24.8548 23.9319 26.3871 23.1742 27.6183 21.8805C28.8905 20.5436 29.6525 18.8321 29.8738 16.8023L23.9091 16.1521C23.8153 17.0129 23.5451 17.4571 23.2718 17.7443C22.9575 18.0745 22.431 18.4093 21.5378 18.6973L23.3793 24.4077ZM24.3984 23.3472C24.4774 23.093 24.3849 23.5059 24.0649 23.8856C23.7061 24.3114 23.3375 24.4211 23.3733 24.4097L21.5438 18.6954C20.8647 18.9128 20.091 19.2905 19.4771 20.0188C18.902 20.7012 18.7045 21.4514 18.6692 21.565L24.3984 23.3472ZM23.5017 25.0674C24.1103 24.3271 24.321 23.596 24.3984 23.3471L18.6692 21.565C18.6602 21.5938 18.6554 21.6092 18.651 21.6229C18.6471 21.6352 18.6457 21.6392 18.646 21.6382C18.6469 21.6356 18.6566 21.6078 18.6752 21.5664C18.718 21.471 18.7824 21.3598 18.8671 21.2567L23.5017 25.0674ZM20.9187 26.5331C21.44 26.4127 22.4161 26.1376 23.2611 25.3271L19.1077 20.997C19.2785 20.8332 19.4395 20.7471 19.5269 20.7081C19.6056 20.6731 19.6363 20.6713 19.5685 20.687L20.9187 26.5331ZM17.2106 23.5518C17.2255 23.6439 17.2351 23.7038 17.2428 23.7584C17.2503 23.8119 17.2518 23.8317 17.2517 23.8293L23.2356 23.3907C23.2114 23.06 23.1569 22.7376 23.1331 22.5906L17.2106 23.5518ZM17.1447 23.099C17.1651 23.2754 17.1952 23.4571 17.2106 23.5518L23.1331 22.5906C23.1233 22.5303 23.1168 22.4902 23.1114 22.4549C23.1061 22.4199 23.1048 22.4083 23.1051 22.4109L17.1447 23.099ZM17.1623 23.2302L17.1717 23.283L23.0781 22.2269L23.0686 22.1742L17.1623 23.2302ZM17.9836 24.3879C17.438 23.9563 17.2436 23.4498 17.1894 23.2909C17.1415 23.1503 17.1294 23.0451 17.1619 23.2277L23.0691 22.1767C23.055 22.0976 22.996 21.7288 22.8685 21.355C22.7349 20.963 22.4284 20.2537 21.706 19.6822L17.9836 24.3879ZM22.5955 22.6736C22.5555 22.4214 22.5629 22.4022 22.5598 22.4931C22.5582 22.5391 22.5521 22.6628 22.5166 22.8326C22.4855 22.9809 22.3989 23.3302 22.1454 23.7209C21.8635 24.1554 21.3381 24.6842 20.5149 24.9121C19.7343 25.1282 19.0877 24.961 18.7467 24.8269L20.9429 19.2433C20.4984 19.0684 19.7657 18.8938 18.9139 19.1297C18.0196 19.3773 17.4379 19.9529 17.1122 20.4549C16.5893 21.2608 16.5698 22.0974 16.5633 22.2879C16.543 22.882 16.6513 23.4985 16.6696 23.6137L22.5955 22.6736ZM22.5962 22.678L22.5955 22.6738L16.6695 23.6135L16.6702 23.6178L22.5962 22.678ZM22.6372 22.9428C22.6267 22.8714 22.6108 22.7641 22.5914 22.6487L16.675 23.6471C16.6829 23.6941 16.6903 23.7434 16.7021 23.8224L22.6372 22.9428ZM22.6604 23.0936C22.6625 23.1035 22.6613 23.0994 22.6567 23.0711C22.6518 23.0409 22.6465 23.0055 22.6372 22.9429L16.702 23.8223C16.7163 23.9186 16.7453 24.1215 16.7887 24.3276L22.6604 23.0936ZM20.1461 26.6818C20.1418 26.6826 20.1435 26.6822 20.1544 26.6803C20.1658 26.6783 20.1813 26.6757 20.2072 26.6715L19.2419 20.7497C19.1819 20.7595 19.0783 20.7764 18.965 20.7992L20.1461 26.6818ZM18.1618 26.8898C18.7899 26.8613 19.4106 26.7986 20.0143 26.7052L19.0969 20.7757C18.705 20.8364 18.2996 20.8774 17.8895 20.896L18.1618 26.8898ZM15.028 23.6072C15.0322 23.6586 15.0347 23.6881 15.0365 23.7139C15.0382 23.7381 15.0382 23.7434 15.038 23.7372C15.0378 23.7311 15.037 23.7024 15.0387 23.6577C15.0404 23.6134 15.045 23.5402 15.0591 23.4465L20.9923 24.3394C21.0786 23.7658 21.0145 23.1963 21.0074 23.1105L15.028 23.6072ZM15.0177 23.3589V23.3589H21.0177V23.3589H15.0177ZM15.0229 23.5349L15.0229 23.535L21.0125 23.1827L21.0125 23.1826L15.0229 23.5349ZM15.0272 23.5979L15.0272 23.598L21.0081 23.1195L21.0081 23.1194L15.0272 23.5979ZM15.0003 23.1835C15.0068 23.3589 15.0211 23.5242 15.028 23.607L21.0074 23.1103C20.9985 23.0034 20.9968 22.976 20.9962 22.9614L15.0003 23.1835ZM14.9858 23.0688C14.9915 23.1406 15.002 23.2757 15.0177 23.4133L20.9788 22.7316C20.977 22.7156 20.9744 22.687 20.9669 22.593L14.9858 23.0688ZM17.0097 24.9263C16.2842 24.7655 15.7549 24.3453 15.4324 23.9253C15.1522 23.5603 15.0488 23.2281 15.0158 23.1116C14.9621 22.9218 14.9636 22.7898 14.9858 23.0687L20.9669 22.5931C20.9591 22.4951 20.9298 21.9746 20.7887 21.4764C20.6732 21.0687 20.1394 19.4743 18.3079 19.0684L17.0097 24.9263ZM17.6497 24.9973H17.6588V18.9973H17.6497V24.9973ZM20.4552 22.6395C20.4366 22.3965 20.4558 22.5076 20.4353 22.6852C20.4237 22.7865 20.3802 23.1131 20.1774 23.5047C19.946 23.9515 19.4824 24.5145 18.7018 24.8068L16.5976 19.1879C14.7329 19.8862 14.5085 21.7059 14.4749 21.9974C14.4165 22.5036 14.4656 23.0046 14.4728 23.0983L20.4552 22.6395ZM20.4736 22.9282C20.4687 22.8101 20.4592 22.6911 20.4552 22.6395L14.4728 23.0983C14.4755 23.1339 14.4771 23.154 14.4782 23.1708C14.4793 23.1872 14.4791 23.1865 14.4787 23.1758L20.4736 22.9282ZM20.4883 23.0666C20.4852 23.0224 20.4729 22.8203 20.4473 22.6372L14.5049 23.4668C14.5026 23.4501 14.5009 23.4364 14.4997 23.4265C14.4985 23.4164 14.4977 23.4088 14.4972 23.4039C14.4967 23.399 14.4964 23.3959 14.4964 23.3951C14.4963 23.3942 14.4963 23.3948 14.4965 23.3972C14.497 23.4025 14.4977 23.4117 14.4988 23.4271C14.4993 23.4345 14.4999 23.4428 14.5006 23.4523C14.5013 23.4619 14.502 23.4719 14.5028 23.4833L20.4883 23.0666ZM20.4832 23.0034L20.4832 23.0033L14.5078 23.5465L14.5078 23.5466L20.4832 23.0034ZM20.4852 23.0259L20.4852 23.0258L14.5059 23.5241L14.5059 23.5242L20.4852 23.0259ZM20.4955 23.2751V23.275H14.4955V23.2751H20.4955ZM20.4904 23.099L20.4904 23.0989L14.5007 23.4512L14.5007 23.4513L20.4904 23.099ZM20.474 23.1237C20.4831 23.1572 20.4894 23.1844 20.4936 23.2038C20.4978 23.2235 20.5004 23.2381 20.5019 23.2469C20.5047 23.2632 20.5048 23.2666 20.5032 23.253C20.5017 23.2399 20.4997 23.2189 20.497 23.1862C20.4943 23.1523 20.4918 23.117 20.4883 23.0667L14.5028 23.4837C14.5106 23.5958 14.5385 24.1593 14.6822 24.6905L20.474 23.1237ZM15.333 26.7765C16.1055 26.8805 16.8769 26.9182 17.624 26.9067L17.5322 20.9074C17.0463 20.9149 16.5755 20.8897 16.1332 20.8301L15.333 26.7765ZM12.8312 22.995C12.8261 23.0297 12.8226 23.0541 12.8191 23.0768C12.8158 23.0986 12.8137 23.1122 12.8122 23.1207C12.8108 23.1292 12.8107 23.129 12.812 23.1225C12.8133 23.1159 12.8167 23.0996 12.8226 23.0759L18.6436 24.5308C18.7159 24.2413 18.7546 23.9554 18.7687 23.8587L12.8312 22.995ZM12.8961 22.5943C12.8652 22.7583 12.843 22.9137 12.8312 22.995L18.7687 23.8588C18.7835 23.757 18.7885 23.7254 18.7924 23.7047L12.8961 22.5943ZM12.9075 22.4791C12.8972 22.5504 12.8778 22.6818 12.8627 22.8171L18.8258 23.4819C18.8278 23.4635 18.8319 23.4336 18.8452 23.3417L12.9075 22.4791ZM12.9065 22.4861L12.9065 22.4861L18.8462 23.3346L18.8462 23.3346L12.9065 22.4861ZM12.8947 22.579L12.8947 22.579L18.858 23.2416L18.858 23.2416L12.8947 22.579ZM14.437 24.7071C13.806 24.4026 13.3907 23.9062 13.1646 23.4295C12.9672 23.0133 12.9358 22.6653 12.9282 22.5364C12.9161 22.331 12.9488 22.1954 12.9076 22.479L18.8452 23.3416C18.8596 23.2428 18.9492 22.715 18.9178 22.1827C18.8891 21.6976 18.6849 20.0949 17.0445 19.3033L14.437 24.7071ZM15.7316 25.0052H15.7407V19.0052H15.7316V25.0052ZM18.3063 23.2876C18.343 23.0378 18.3385 23.1428 18.281 23.3061C18.2482 23.3989 18.1326 23.7113 17.8419 24.0513C17.5075 24.4423 16.9146 24.8887 16.0751 24.9855L15.3881 19.0249C13.3619 19.2585 12.7202 21.0336 12.6224 21.311C12.4494 21.8017 12.385 22.3136 12.3702 22.4136L18.3063 23.2876ZM18.3151 23.2227L18.3151 23.2227L12.3614 22.4785L12.3614 22.4785L18.3151 23.2227ZM18.305 23.2957L18.3051 23.2957L12.3714 22.4056L12.3714 22.4057L18.305 23.2957ZM18.259 23.5819C18.2808 23.4629 18.2983 23.3414 18.3062 23.2877L12.3702 22.4137C12.3648 22.4505 12.3617 22.4717 12.3589 22.4896C12.3562 22.507 12.356 22.507 12.3579 22.497L18.259 23.5819ZM18.2479 23.6901C18.2541 23.6487 18.2833 23.4637 18.2978 23.2912L12.319 22.7877C12.3203 22.7725 12.3215 22.7601 12.3224 22.751C12.3234 22.7418 12.3242 22.7347 12.3247 22.7302C12.3253 22.7256 12.3256 22.7227 12.3257 22.7218C12.3259 22.7209 12.3258 22.7213 12.3255 22.7234C12.3249 22.728 12.3237 22.7362 12.3217 22.7501C12.3207 22.7569 12.3196 22.7643 12.3183 22.773C12.317 22.7817 12.3156 22.7908 12.3141 22.8012L18.2479 23.6901ZM18.2258 23.8314C18.2254 23.8419 18.225 23.8496 18.2246 23.8544C18.2243 23.8592 18.2241 23.8617 18.2241 23.8618C18.2241 23.8619 18.2242 23.8602 18.2247 23.8564C18.2251 23.8526 18.2257 23.8473 18.2265 23.8402C18.2283 23.8255 18.2308 23.8066 18.2345 23.7809C18.2383 23.7544 18.2423 23.7271 18.2479 23.6901L12.3141 22.8012C12.2974 22.9123 12.2426 23.2559 12.2297 23.615L18.2258 23.8314ZM14.6332 26.6643C14.6339 26.6644 14.7061 26.6787 14.79 26.6911L15.6654 20.7553C15.7005 20.7605 15.7281 20.7653 15.7436 20.768C15.757 20.7705 15.7678 20.7726 15.7599 20.771L14.6332 26.6643ZM14.7275 26.6801C14.6926 26.6749 14.6651 26.6701 14.6497 26.6673C14.6362 26.6649 14.6254 26.6628 14.6331 26.6643L15.7599 20.7711C15.7587 20.7708 15.6868 20.7566 15.6031 20.7443L14.7275 26.6801ZM10.6269 22.2834C10.6298 22.4284 10.5693 23.7408 11.4165 24.8923C12.3107 26.1077 13.6594 26.5115 14.6972 26.6754L15.6334 20.7489C15.1574 20.6737 15.7429 20.6482 16.2493 21.3365C16.496 21.6717 16.5833 21.9951 16.6134 22.1657C16.6344 22.2843 16.6298 22.3646 16.6257 22.1625L10.6269 22.2834ZM21.8849 13.5636C21.5795 13.7503 21.2767 13.7745 21.1057 13.7563C20.9647 13.7413 20.9538 13.7058 21.0636 13.7719C21.1653 13.8332 21.3114 13.9475 21.4659 14.1227C21.6185 14.2956 21.749 14.4938 21.8425 14.6939L27.2792 12.1557C26.6053 10.7122 25.4886 9.43334 24.1606 8.63303C22.8945 7.86999 20.7734 7.21038 18.7546 8.44487L21.8849 13.5636ZM22.4733 13.0929L22.4748 13.0913L18.1647 8.9172L18.1632 8.91877L22.4733 13.0929ZM22.4379 15.1145C22.2326 14.6752 22.1302 14.0699 22.176 13.5704C22.1862 13.4584 22.2025 13.3697 22.2189 13.3049C22.2354 13.2392 22.249 13.21 22.2488 13.2105C22.2486 13.2109 22.2281 13.2545 22.1724 13.321C22.1149 13.3897 22.0208 13.4811 21.8833 13.5652L18.7531 8.44644C16.89 9.58576 16.3278 11.6387 16.201 13.0231C16.0622 14.5386 16.3289 16.2139 17.002 17.6544L22.4379 15.1145ZM21.9295 15.2586C21.8785 15.2899 21.9021 15.2634 22.0019 15.2484C22.1104 15.2321 22.2546 15.2386 22.4005 15.2891C22.4683 15.3126 22.5217 15.3405 22.5596 15.365C22.5971 15.389 22.6139 15.406 22.6132 15.4053C22.6102 15.4023 22.5368 15.3263 22.4379 15.1145L17.002 17.6544C17.6777 19.1005 18.7996 20.3919 20.4379 20.959C22.1105 21.538 23.7694 21.17 25.0701 20.371L21.9295 15.2586ZM21.8429 14.6948C22.0841 15.211 22.0013 15.3597 22.0262 15.2574C22.0381 15.2086 22.0616 15.1672 22.0755 15.1493C22.085 15.1372 22.0545 15.1819 21.9307 15.2578L25.0688 20.3718C26.3971 19.5567 27.4554 18.3191 27.8554 16.6789C28.243 15.0893 27.9159 13.5185 27.2788 12.1549L21.8429 14.6948ZM17.9162 20.4154C17.6155 20.4188 17.3803 20.3662 17.2296 20.32C17.0737 20.2723 16.9548 20.2151 16.8709 20.1675C16.7101 20.0763 16.5853 19.9679 16.484 19.8435L21.1353 16.0534C20.7675 15.602 20.3193 15.2256 19.8316 14.9489C19.3815 14.6935 18.6893 14.4063 17.8489 14.4158L17.9162 20.4154ZM19.2812 19.8435C19.1798 19.9679 19.0551 20.0763 18.8943 20.1675C18.8104 20.2151 18.6915 20.2723 18.5355 20.32C18.3848 20.3662 18.1497 20.4188 17.8489 20.4154L17.9162 14.4158C17.0758 14.4063 16.3836 14.6935 15.9335 14.9489C15.4458 15.2256 14.9976 15.602 14.6298 16.0534L19.2812 19.8435ZM18.0108 16.0844C18.5922 16.3219 19.0976 16.7697 19.4012 17.3673C19.6827 17.9212 19.709 18.4367 19.6805 18.7675C19.6268 19.389 19.3619 19.7451 19.2745 19.8516L14.6365 16.0452C14.2279 16.5431 13.7849 17.2992 13.7027 18.2512C13.6106 19.3173 14.0468 20.9464 15.7419 21.6389L18.0108 16.0844ZM15.6934 16.3908C15.797 16.2802 15.9516 16.1537 16.1944 16.0517C16.3197 15.999 16.5253 15.9293 16.8013 15.9019C17.0722 15.8751 17.5088 15.8807 18.004 16.0816L15.7487 21.6416C16.9406 22.1251 18.0172 21.7939 18.5188 21.5832C19.1217 21.3298 19.6515 20.9417 20.0718 20.4932L15.6934 16.3908ZM17.7611 16.0816C18.2564 15.8807 18.693 15.8751 18.9639 15.9019C19.2398 15.9293 19.4454 15.999 19.5707 16.0517C19.8135 16.1537 19.9682 16.2802 20.0718 16.3908L15.6934 20.4932C16.1136 20.9417 16.6435 21.3298 17.2463 21.5832C17.7479 21.7939 18.8246 22.1251 20.0165 21.6416L17.7611 16.0816ZM16.4906 19.8516C16.4032 19.7451 16.1384 19.389 16.0847 18.7675C16.0561 18.4367 16.0825 17.9212 16.3639 17.3673C16.6676 16.7697 17.1729 16.3219 17.7544 16.0844L20.0232 21.6389C21.7184 20.9464 22.1545 19.3173 22.0624 18.2512C21.9802 17.2992 21.5373 16.5431 21.1287 16.0452L16.4906 19.8516ZM14.2526 14.6932C14.3459 14.4935 14.4764 14.2955 14.629 14.1226C14.7836 13.9475 14.9299 13.833 15.0319 13.7716C15.142 13.7052 15.1316 13.7404 14.9913 13.7554C14.821 13.7736 14.5185 13.7499 14.2128 13.5634L17.3387 8.44196C15.3199 7.20985 13.2 7.87021 11.9349 8.63264C10.6075 9.43257 9.49084 10.7105 8.81672 12.1533L14.2526 14.6932ZM9.3781 15.5087L9.37962 15.5103L13.6897 11.3362L13.6882 11.3346L9.3781 15.5087ZM14.1632 15.2547C14.0391 15.1785 14.0086 15.1337 14.0181 15.146C14.0321 15.1639 14.0557 15.2056 14.0677 15.2547C14.0928 15.3574 14.0097 15.2087 14.2515 14.6907L8.81479 12.1526C8.17823 13.5161 7.85085 15.0868 8.2386 16.6765C8.63876 18.3171 9.69758 19.554 11.0251 20.3686L14.1632 15.2547ZM13.656 15.1114C13.557 15.3235 13.4836 15.3996 13.4805 15.4026C13.4799 15.4033 13.4967 15.3863 13.5343 15.3621C13.5723 15.3376 13.6258 15.3096 13.6937 15.2861C13.84 15.2354 13.9843 15.229 14.0927 15.2452C14.1921 15.2602 14.2151 15.2866 14.1632 15.2547L11.0251 20.3687C12.3254 21.1665 13.9839 21.5351 15.6569 20.9558C17.2954 20.3884 18.4167 19.0965 19.0919 17.6513L13.656 15.1114ZM14.2106 13.5621C14.0731 13.478 13.9791 13.3866 13.9215 13.3179C13.8658 13.2514 13.8454 13.2078 13.8452 13.2074C13.8449 13.2069 13.8585 13.2361 13.8751 13.3017C13.8914 13.3666 13.9077 13.4553 13.918 13.5672C13.9637 14.0667 13.8613 14.6721 13.656 15.1114L19.0919 17.6513C19.765 16.2108 20.0318 14.5354 19.893 13.0199C19.7662 11.6356 19.204 9.58262 17.3408 8.44329L14.2106 13.5621ZM19.8199 30.8538C19.5049 30.9266 19.2826 30.8856 19.2551 30.8802C19.2405 30.8774 19.2533 30.879 19.3094 30.8958C19.3698 30.9139 19.438 30.9365 19.559 30.977L21.4645 25.2876C21.1978 25.1983 19.8941 24.6782 18.4676 25.0082L19.8199 30.8538ZM17.0709 30.0997L17.0731 30.1017L21.2144 25.7602L21.2123 25.7581L17.0709 30.0997ZM21.7516 27.3727C21.9839 28.0455 21.9438 28.8188 21.5845 29.4979C21.2273 30.173 20.6351 30.6082 20.0236 30.7963L18.2596 25.0615C16.5367 25.5914 15.4329 27.4562 16.0801 29.3307L21.7516 27.3727ZM20.9058 26.1724C20.8033 26.1365 20.7589 26.1206 20.7237 26.1067C20.6902 26.0934 20.716 26.1015 20.7736 26.1333C20.8267 26.1626 20.9738 26.2484 21.1462 26.4131C21.3256 26.5845 21.568 26.8764 21.7279 27.3064L16.1038 29.397C16.544 30.581 17.4671 31.1614 17.8723 31.3852C18.3196 31.6323 18.7843 31.7868 18.9266 31.8365L20.9058 26.1724ZM21.0304 26.2162C20.9852 26.2001 20.9399 26.1843 20.9058 26.1724L18.9266 31.8365C18.9647 31.8498 18.9896 31.8585 19.0115 31.8664L21.0304 26.2162ZM21.9952 26.3938C21.8986 26.4374 21.8565 26.4445 21.8561 26.4446C21.8542 26.445 21.8549 26.4448 21.8562 26.4447C21.8572 26.4447 21.8527 26.445 21.8402 26.4441C21.8135 26.4421 21.7441 26.4341 21.6047 26.3978C21.4588 26.3598 21.2759 26.3018 21.0088 26.2086L19.0331 31.874C19.6348 32.0838 20.4669 32.3598 21.4035 32.4282C22.4342 32.5034 23.4437 32.3235 24.4665 31.8612L21.9952 26.3938ZM27.5016 27.6269C26.5032 26.048 24.8799 25.8342 23.9856 25.8879C23.1551 25.9377 22.4339 26.2159 22.1221 26.3399L24.3396 31.9151C24.5696 31.8236 24.5343 31.8658 24.345 31.8771C24.2246 31.8843 23.9168 31.8876 23.5308 31.7375C23.0956 31.5684 22.6966 31.2547 22.4302 30.8334L27.5016 27.6269ZM24.7017 33.6662C24.9487 33.564 25.8826 33.2059 26.6238 32.5904C27.0249 32.2573 27.6206 31.6509 27.9128 30.7116C28.2404 29.6584 28.0531 28.6254 27.5999 27.7941L22.3319 30.6662C22.119 30.2756 21.9643 29.6343 22.1835 28.9297C22.3672 28.3391 22.7134 28.0385 22.7906 27.9745C22.8822 27.8984 22.9138 27.8947 22.8083 27.9472C22.7116 27.9952 22.5977 28.0435 22.4085 28.1217L24.7017 33.6662ZM24.6511 33.6871L24.7023 33.6659L22.4078 28.122L22.3567 28.1432L24.6511 33.6871ZM20.2738 34.1287C22.1772 34.6711 23.7558 34.0838 24.7167 33.6591L22.2911 28.1712C22.1442 28.2361 22.0365 28.2785 21.9527 28.307C21.8705 28.3349 21.8265 28.3442 21.8108 28.347C21.7978 28.3493 21.8108 28.3459 21.8414 28.3471C21.8735 28.3483 21.9015 28.3537 21.9181 28.3584L20.2738 34.1287ZM19.5919 33.9316C19.7706 33.9881 20.0878 34.0902 20.4255 34.1676L21.7663 28.3194C21.7066 28.3057 21.6236 28.2812 21.4009 28.2108L19.5919 33.9316ZM19.443 33.8802L19.443 33.8802L21.5498 28.2622L21.5497 28.2622L19.443 33.8802ZM19.908 34.0129L19.908 34.0129L21.0847 28.1295L21.0847 28.1294L19.908 34.0129ZM19.5476 33.9172L19.5476 33.9172L21.445 28.2251L21.445 28.2251L19.5476 33.9172ZM19.2248 33.821C19.1936 33.817 19.2013 33.8154 19.2708 33.8341C19.3462 33.8544 19.4327 33.8813 19.5918 33.9316L21.4008 28.2108C21.1563 28.1335 20.5975 27.9479 19.9872 27.8697L19.2248 33.821ZM20.7468 29.0632C20.9631 29.186 22.4254 30.2406 21.7325 32.1198C21.0412 33.9944 19.2537 33.8272 19.1307 33.8075L20.0812 27.8832C19.1907 27.7404 16.926 27.8122 16.103 30.044C15.2783 32.2803 16.9546 33.8101 17.7858 34.2817L20.7468 29.0632ZM20.9469 29.1341C20.8912 29.1153 20.8492 29.1008 20.8124 29.0877C20.7761 29.0747 20.7526 29.0657 20.7377 29.0596C20.7227 29.0536 20.7224 29.053 20.733 29.0581C20.7434 29.0631 20.7717 29.0771 20.8124 29.1016L17.7202 34.2434C18.2534 34.564 18.8157 34.7472 19.0261 34.8183L20.9469 29.1341ZM21.1695 29.204C21.0819 29.176 20.9823 29.1443 20.8794 29.1122L19.0936 34.8403C19.1746 34.8655 19.2556 34.8913 19.3459 34.9201L21.1695 29.204ZM21.7158 29.4163C21.839 29.3903 21.909 29.4105 21.8436 29.3986C21.8025 29.3911 21.7331 29.3755 21.616 29.3421C21.494 29.3072 21.3612 29.2651 21.1695 29.204L19.3459 34.9201C19.9406 35.1099 21.347 35.6257 22.9528 35.2874L21.7158 29.4163ZM22.0779 29.2993C22.0065 29.3268 21.9558 29.3462 21.9082 29.3638C21.8623 29.3808 21.8324 29.3912 21.8123 29.3977C21.7676 29.4123 21.7984 29.399 21.8773 29.3868L22.7913 35.3168C23.4406 35.2167 24.0212 34.9803 24.2303 34.9L22.0779 29.2993ZM25.5611 29.0381C23.8765 28.4842 22.3405 29.1984 22.0779 29.2993L24.2303 34.9C24.3617 34.8494 24.4272 34.8247 24.4825 34.806C24.5326 34.789 24.5267 34.7937 24.4851 34.8021C24.3876 34.822 24.0764 34.8659 23.687 34.7379L25.5611 29.0381ZM26.8943 35.3027C28.7023 33.6057 28.5189 30.1751 25.7039 29.0891L23.5442 34.6869C21.7612 33.9989 21.7498 31.9025 22.7881 30.9279L26.8943 35.3027ZM24.7532 36.5875C25.0596 36.459 26.1278 36.0558 26.9422 35.2567L22.7402 30.9739C22.8081 30.9072 22.8606 30.8695 22.8806 30.8558C22.9004 30.8423 22.9001 30.8444 22.8685 30.861C22.8369 30.8776 22.7882 30.9013 22.7123 30.935C22.6338 30.9699 22.5498 31.0053 22.4335 31.054L24.7532 36.5875ZM24.542 36.6668L24.542 36.6668L22.6447 30.9747L22.6447 30.9747L24.542 36.6668ZM24.8014 36.5668L24.8016 36.5667L22.3851 31.0748L22.385 31.0749L24.8014 36.5668ZM24.5372 36.679C24.5978 36.6527 24.6637 36.625 24.7529 36.5876L22.4335 31.054C22.351 31.0886 22.2476 31.1319 22.1438 31.1771L24.5372 36.679ZM20.3903 37.1025C22.1216 37.5624 23.562 37.0954 24.5182 36.6872L22.1628 31.1689C22.0456 31.2189 21.9616 31.2499 21.9002 31.2694C21.8402 31.2885 21.8118 31.2934 21.8076 31.294C21.8055 31.2944 21.8232 31.2915 21.8542 31.2928C21.8861 31.2941 21.9135 31.2991 21.9305 31.3036L20.3903 37.1025ZM19.5904 36.8753C19.7801 36.9359 20.1567 37.0596 20.5578 37.1419L21.7631 31.2642C21.764 31.2644 21.7576 31.2631 21.7421 31.2591C21.7266 31.2552 21.7048 31.2493 21.6747 31.2405C21.6087 31.2212 21.5355 31.198 21.4182 31.1605L19.5904 36.8753ZM19.3968 36.7781C19.3225 36.7787 19.27 36.7728 19.2455 36.7695C19.2216 36.7662 19.2174 36.7642 19.2393 36.7694C19.2615 36.7747 19.2988 36.7846 19.3599 36.8029C19.4237 36.8221 19.4919 36.8438 19.5904 36.8753L21.4182 31.1605C21.1476 31.0739 20.2931 30.7717 19.355 30.7783L19.3968 36.7781ZM20.993 32.1694C21.3038 32.415 22.2185 33.3757 21.792 34.8661C21.3214 36.5104 19.8418 36.7683 19.4447 36.7774L19.3072 30.779C18.3726 30.8004 16.578 31.2779 16.0236 33.2152C15.5132 34.9986 16.5752 36.3256 17.273 36.877L20.993 32.1694ZM20.8809 32.0549C20.8287 32.0367 20.7926 32.0236 20.7645 32.0128C20.7365 32.0021 20.7259 31.9973 20.7274 31.998C20.7284 31.9984 20.7524 32.0092 20.792 32.0319C20.8309 32.0541 20.9004 32.0966 20.9862 32.1641L17.2798 36.8824C17.9338 37.3961 18.6913 37.6455 18.8987 37.7181L20.8809 32.0549ZM21.1243 32.1326C21.0257 32.1004 20.912 32.0633 20.7948 32.0263L18.9847 37.7467C19.0734 37.7748 19.1628 37.8039 19.2653 37.8373L21.1243 32.1326ZM21.1436 32.1389L21.1435 32.1389L19.2461 37.831L19.2462 37.831L21.1436 32.1389ZM20.9225 32.0745L20.9225 32.0745L19.4673 37.8954L19.4673 37.8954L20.9225 32.0745ZM21.7974 32.3484C21.8881 32.3401 21.9063 32.3576 21.7888 32.3316C21.7298 32.3186 21.6499 32.2977 21.5356 32.2634C21.4178 32.228 21.2925 32.1874 21.1244 32.1326L19.2654 37.8373C19.7866 38.0072 20.9949 38.4464 22.3423 38.3236L21.7974 32.3484ZM22.0708 32.2424C21.9803 32.2763 21.9186 32.2993 21.8609 32.3198C21.8058 32.3394 21.7722 32.3501 21.7517 32.3562C21.7079 32.3692 21.7565 32.3505 21.8631 32.3431L22.2767 38.3288C23.1493 38.2685 23.909 37.961 24.1754 37.8612L22.0708 32.2424ZM24.6466 31.7837C23.4233 31.683 22.3641 32.1326 22.0708 32.2424L24.1754 37.8612C24.2296 37.8409 24.273 37.8247 24.3148 37.8093C24.3556 37.7943 24.3885 37.7826 24.4166 37.7729C24.4445 37.7632 24.4648 37.7567 24.4793 37.7522C24.4864 37.75 24.4917 37.7485 24.4953 37.7475C24.4988 37.7464 24.5005 37.746 24.5005 37.746C24.5005 37.746 24.4985 37.7465 24.4948 37.7474C24.491 37.7482 24.4853 37.7494 24.4778 37.7509C24.4629 37.7537 24.44 37.7576 24.4102 37.7609C24.3497 37.7677 24.2619 37.7724 24.1543 37.7635L24.6466 31.7837ZM27.7536 37.0158C28.8249 34.6333 27.1489 31.999 24.6576 31.7847L24.1433 37.7626C22.6539 37.6344 21.6014 36.0673 22.2814 34.5551L27.7536 37.0158ZM25.3269 39.277C25.5453 39.1744 25.9642 38.9744 26.3792 38.6746C26.7942 38.3749 27.4109 37.8312 27.7821 36.9503L22.2529 34.6206C22.4693 34.107 22.7978 33.86 22.8662 33.8106C22.9345 33.7613 22.9482 33.7654 22.7774 33.8455L25.3269 39.277ZM23.4859 39.9984C24.1957 39.7886 24.8436 39.4951 25.2845 39.2965L22.8198 33.826C22.3405 34.042 22.0467 34.1672 21.7847 34.2447L23.4859 39.9984ZM19.2403 39.6968C19.586 39.8124 20.2262 40.0327 20.9111 40.1502C21.6022 40.2689 22.6365 40.3415 23.726 39.9163L21.5446 34.3268C21.7162 34.2599 21.852 34.2452 21.9171 34.2425C21.9772 34.24 21.9865 34.2471 21.9263 34.2368C21.8669 34.2266 21.7746 34.2055 21.6349 34.1646C21.4918 34.1227 21.3431 34.0734 21.1429 34.0064L19.2403 39.6968ZM21.3522 38.1722C21.0304 38.7962 20.4757 39.2465 19.8595 39.4538C19.3567 39.6229 18.968 39.579 18.8857 39.5692C18.7795 39.5564 18.7467 39.5405 18.8438 39.5687C18.9345 39.595 19.0465 39.632 19.2403 39.6968L21.1429 34.0064C20.8954 33.9237 20.2352 33.688 19.5998 33.6118C19.2558 33.5706 18.6379 33.5343 17.9468 33.7668C17.1422 34.0374 16.4399 34.6068 16.0194 35.4224L21.3522 38.1722ZM21.4498 37.9686C21.4634 37.9327 21.4742 37.9045 21.4846 37.8774L15.887 35.7171C15.8706 35.7596 15.8548 35.8011 15.842 35.8347L21.4498 37.9686ZM17.5126 40.9916C18.7409 40.979 19.8142 40.4706 20.562 39.5827C21.1232 38.9164 21.3903 38.1248 21.4498 37.9685L15.842 35.8348C15.8141 35.9082 15.7981 35.95 15.7834 35.9865C15.7697 36.0204 15.7657 36.0284 15.769 36.0215C15.7718 36.0155 15.8323 35.8843 15.973 35.7174C16.1289 35.5323 16.3648 35.325 16.6858 35.1757C17.0016 35.0287 17.2796 34.9937 17.451 34.9919L17.5126 40.9916ZM13.5766 38.2377C13.6388 38.3773 13.9429 39.1393 14.5371 39.7647C15.3212 40.5898 16.3734 41.0032 17.5123 40.9916L17.4513 34.9919C17.6002 34.9904 17.8563 35.0133 18.1584 35.1366C18.4693 35.2634 18.7135 35.4494 18.8867 35.6318C19.0437 35.797 19.118 35.9336 19.1277 35.9513C19.1314 35.9581 19.1235 35.9445 19.057 35.7953L13.5766 38.2377ZM13.5172 38.106C13.533 38.14 13.5497 38.1774 13.5766 38.2378L19.057 35.7953C19.033 35.7415 18.9984 35.6638 18.961 35.583L13.5172 38.106ZM15.748 39.7456C15.9031 39.6893 15.9925 39.6574 16.0688 39.6334C16.1487 39.6084 16.1313 39.6191 16.0519 39.631C15.9961 39.6394 15.6891 39.6853 15.2663 39.5818C14.7635 39.4587 14.1466 39.1292 13.7247 38.4808L18.7536 35.2082C17.586 33.4139 15.6245 33.6279 15.1604 33.6976C14.5288 33.7925 13.9095 34.0299 13.7022 34.1051L15.748 39.7456ZM14.4828 40.0933C15.0467 40.0182 15.6422 39.7839 15.748 39.7456L13.7022 34.1051C13.6706 34.1166 13.6429 34.1266 13.6161 34.1363C13.5896 34.1458 13.5664 34.1541 13.5453 34.1615C13.5243 34.1689 13.5069 34.175 13.4923 34.18C13.4776 34.1849 13.4672 34.1883 13.4604 34.1905C13.4534 34.1927 13.4518 34.1932 13.4547 34.1923C13.4575 34.1915 13.4672 34.1887 13.4828 34.1848C13.4982 34.1809 13.5231 34.1749 13.5559 34.1682C13.5884 34.1617 13.6342 34.1533 13.6911 34.1457L14.4828 40.0933ZM10.6043 39.6254C11.6629 40.0803 13.1619 40.5214 14.9376 39.9964L13.2364 34.2426C13.2406 34.2414 13.2589 34.2368 13.2855 34.235C13.3115 34.2333 13.327 34.2353 13.3252 34.2351C13.3114 34.2332 13.2149 34.2167 12.9731 34.1128L10.6043 39.6254ZM10.2905 39.4899C10.4261 39.5464 10.4855 39.5717 10.5265 39.5907L13.0508 34.1475C12.8822 34.0693 12.7077 33.9971 12.5987 33.9517L10.2905 39.4899ZM10.2627 39.4782L10.2628 39.4782L12.6264 33.9633L12.6262 33.9633L10.2627 39.4782ZM7.1199 34.8013C6.7907 36.6408 7.79195 37.9267 8.59822 38.5622C9.25978 39.0836 10.0526 39.3907 10.2903 39.4898L12.5986 33.9516C12.4162 33.8756 12.3242 33.8362 12.2509 33.8002C12.1765 33.7636 12.2195 33.7768 12.3121 33.8498C12.4051 33.923 12.6485 34.135 12.8369 34.5254C13.0484 34.9636 13.1006 35.4416 13.0261 35.8583L7.1199 34.8013ZM13.0508 32.2395C12.8209 32.1552 11.8892 31.7756 10.9209 31.7619C10.3449 31.7537 9.55407 31.8615 8.78261 32.3575C7.99079 32.8666 7.51829 33.592 7.2608 34.285L12.8852 36.3746C12.7891 36.6333 12.5444 37.0721 12.0275 37.4044C11.531 37.7236 11.0622 37.7645 10.8361 37.7613C10.6319 37.7584 10.5315 37.7196 10.608 37.7415C10.6787 37.7618 10.773 37.7949 10.9847 37.8726L13.0508 32.2395ZM13.2534 32.3281C13.3148 32.3376 13.3535 32.3473 13.3628 32.3497C13.3729 32.3523 13.3678 32.3513 13.3424 32.3432C13.3173 32.3351 13.2821 32.3232 13.2311 32.3051C13.1791 32.2866 13.1235 32.2662 13.0508 32.2395L10.9847 37.8726C11.1698 37.9405 11.7502 38.167 12.3363 38.2576L13.2534 32.3281ZM13.3905 32.3155C13.3337 32.3298 13.2964 32.3374 13.2735 32.3414C13.2512 32.3453 13.2465 32.345 13.2556 32.3444C13.2654 32.3437 13.2875 32.3429 13.319 32.3449C13.3509 32.3469 13.3859 32.3514 13.4217 32.3591L12.1681 38.2267C13.2472 38.4572 14.1787 38.304 14.8523 38.1347L13.3905 32.3155ZM13.7154 32.2184C13.5938 32.2519 13.3698 32.3128 13.1651 32.3816L15.0776 38.0687C15.0742 38.0698 15.089 38.0648 15.1355 38.0514C15.1817 38.0381 15.235 38.0233 15.3126 38.0019L13.7154 32.2184ZM13.0913 33.6978C13.207 33.0267 13.5568 32.5855 13.7895 32.364C14.0024 32.1612 14.1765 32.0813 14.1836 32.0778C14.2055 32.0674 14.1821 32.0802 14.0836 32.1119C13.9863 32.1431 13.878 32.1735 13.7154 32.2184L15.3126 38.0019C15.5607 37.9334 16.1942 37.7675 16.7751 37.4893C17.1868 37.2922 18.6916 36.5309 19.0042 34.7165L13.0913 33.6978ZM15.3552 36.8415C15.0698 36.8175 14.5286 36.708 13.9995 36.2595C13.4146 35.7636 13.0182 34.9814 13.0497 34.1001L19.0459 34.3142C19.0838 33.2523 18.6132 32.3049 17.8795 31.6828C17.2015 31.108 16.4367 30.9114 15.8588 30.8627L15.3552 36.8415ZM15.3541 36.9294C15.4025 36.9148 15.4427 36.9027 15.4819 36.8912C15.5202 36.8799 15.5526 36.8705 15.5812 36.8625C15.64 36.8461 15.6712 36.8388 15.6848 36.8359C15.6984 36.833 15.6784 36.838 15.6331 36.8425C15.5876 36.847 15.5013 36.8525 15.3848 36.8439L15.8293 30.8603C14.815 30.785 13.855 31.1148 13.6271 31.1833L15.3541 36.9294ZM14.3748 37.1765C14.7846 37.1047 15.177 36.9826 15.3541 36.9294L13.6271 31.1833C13.5107 31.2183 13.4426 31.2385 13.3834 31.2545C13.3267 31.2699 13.3179 31.2703 13.3391 31.2666L14.3748 37.1765ZM10.5009 36.6384C11.2992 36.9837 12.8104 37.571 14.5777 37.1337L13.1362 31.3094C13.1961 31.2946 13.2499 31.2897 13.2897 31.2896C13.3273 31.2895 13.3407 31.2937 13.3229 31.2902C13.3037 31.2865 13.2592 31.276 13.1824 31.2498C13.105 31.2234 13.0087 31.1859 12.8829 31.1315L10.5009 36.6384ZM10.2696 36.5383C10.352 36.5736 10.4183 36.6021 10.4818 36.63L12.9021 31.1398C12.8058 31.0974 12.7113 31.0569 12.6335 31.0236L10.2696 36.5383ZM7.41176 34.1482C7.87095 35.1166 8.61659 35.6655 9.08198 35.9511C9.53924 36.2318 10.0346 36.4376 10.2696 36.5383L12.6335 31.0236C12.4824 30.9588 12.3883 30.9181 12.3067 30.8799C12.2276 30.8428 12.2079 30.8297 12.2206 30.8375C12.2327 30.8449 12.3182 30.8978 12.4305 31.0071C12.5484 31.122 12.7058 31.3091 12.8331 31.5774L7.41176 34.1482ZM10.5518 28.8334C7.95909 29.0109 6.25739 31.7461 7.41842 34.1622L12.8264 31.5635C13.5575 33.0848 12.475 34.7158 10.9616 34.8194L10.5518 28.8334ZM12.9951 29.2773C12.7727 29.1937 11.6859 28.7251 10.4741 28.8397L11.0392 34.8131C10.898 34.8264 10.7862 34.8199 10.7145 34.8117C10.6442 34.8037 10.6031 34.793 10.6002 34.7923C10.5978 34.7916 10.6164 34.7964 10.668 34.8143C10.7228 34.8333 10.7833 34.8558 10.8847 34.8939L12.9951 29.2773ZM12.8887 29.2396L12.8886 29.2396L10.9913 34.9317L10.9913 34.9317L12.8887 29.2396ZM13.0542 29.3002L13.0541 29.3002L10.8258 34.8711L10.8259 34.8711L13.0542 29.3002ZM13.1774 29.3447C13.1323 29.3287 13.0811 29.3096 12.9951 29.2773L10.885 34.894C10.9601 34.9222 11.0676 34.9627 11.1782 35.0018L13.1774 29.3447ZM13.4024 29.3735C13.3621 29.3864 13.3353 29.3918 13.3209 29.394C13.3069 29.3962 13.3023 29.3958 13.3051 29.3958C13.3082 29.3959 13.3127 29.3963 13.3163 29.3971C13.3198 29.3978 13.3158 29.3974 13.3029 29.3922L11.0528 34.9543C12.4715 35.5282 13.9139 35.5097 15.2316 35.0879L13.4024 29.3735ZM13.711 29.2802C13.6305 29.3041 13.5297 29.3339 13.4284 29.3654L15.2057 35.0961C15.2652 35.0776 15.3297 35.0584 15.417 35.0326L13.711 29.2802ZM14.0109 29.2357C14.0846 29.1788 14.1398 29.1481 14.1606 29.1371C14.1813 29.1263 14.1808 29.1282 14.1487 29.1408C14.1166 29.1533 14.0673 29.1709 13.991 29.1953C13.912 29.2205 13.8278 29.2456 13.711 29.2802L15.417 35.0326C15.7245 34.9414 16.7982 34.6635 17.6762 33.986L14.0109 29.2357ZM15.3465 33.8976C14.9455 33.8627 13.6016 33.543 13.1564 32.0108C12.7335 30.5553 13.5929 29.5727 13.9571 29.2782L17.7299 33.9436C18.4317 33.3761 19.4201 32.0642 18.9182 30.3367C18.394 28.5325 16.763 27.9984 15.8675 27.9203L15.3465 33.8976ZM15.3541 33.9862C15.4025 33.9717 15.4427 33.9596 15.4819 33.9481C15.5202 33.9367 15.5526 33.9274 15.5812 33.9194C15.64 33.903 15.6712 33.8957 15.6848 33.8928C15.6984 33.8899 15.6784 33.8949 15.6331 33.8994C15.5877 33.9039 15.5013 33.9094 15.3848 33.9007L15.8293 27.9172C14.815 27.8419 13.855 28.1717 13.6271 28.2402L15.3541 33.9862ZM14.3748 34.2334C14.7846 34.1615 15.177 34.0395 15.3541 33.9862L13.6271 28.2402C13.5107 28.2751 13.4427 28.2954 13.3834 28.3114C13.3267 28.3268 13.318 28.3271 13.3391 28.3234L14.3748 34.2334ZM10.5009 33.6953C11.2992 34.0406 12.8104 34.6279 14.5777 34.1905L13.1362 28.3663C13.1961 28.3515 13.2499 28.3466 13.2897 28.3465C13.3273 28.3464 13.3407 28.3505 13.3229 28.3471C13.3037 28.3433 13.2592 28.3329 13.1824 28.3067C13.105 28.2803 13.0087 28.2428 12.8829 28.1884L10.5009 33.6953ZM10.1695 33.5491C10.2877 33.6 10.3655 33.6338 10.4355 33.666L12.9484 28.2176C12.7986 28.1485 12.6513 28.0852 12.5452 28.0394L10.1695 33.5491ZM7.06249 29.4137C7.00045 30.9615 7.80474 32.0496 8.58726 32.668C9.20348 33.1549 9.93841 33.4494 10.1695 33.549L12.5452 28.0394C12.3618 27.9603 12.2774 27.923 12.2138 27.8911C12.1519 27.86 12.2067 27.8809 12.3073 27.9604C12.4148 28.0454 12.6289 28.2397 12.8058 28.5724C12.9963 28.9307 13.0713 29.3139 13.0577 29.654L7.06249 29.4137ZM12.2374 26.079C11.3796 25.8027 10.344 25.7769 9.37239 26.1744C8.29375 26.6157 7.22052 27.656 7.07276 29.2584L13.0474 29.8093C13.0074 30.2429 12.837 30.6861 12.5345 31.0592C12.2462 31.4149 11.9115 31.6183 11.6443 31.7276C11.1543 31.9281 10.7207 31.894 10.3982 31.7902L12.2374 26.079ZM12.8338 26.2779C12.6676 26.22 12.4335 26.138 12.1883 26.0636L10.4473 31.8055C10.5555 31.8383 10.6735 31.879 10.8598 31.9439L12.8338 26.2779ZM12.8379 26.2793L12.8378 26.2793L10.8557 31.9425L10.8558 31.9425L12.8379 26.2793ZM13.1185 26.4955C13.2037 26.4705 13.2838 26.4604 13.3471 26.4589C13.4063 26.4575 13.4336 26.464 13.4157 26.4608C13.3949 26.457 13.3428 26.4458 13.2405 26.4146C13.1325 26.3816 13.0153 26.3411 12.8339 26.2779L10.8599 31.9439C11.3919 32.1292 13.0034 32.7831 14.8104 32.2521L13.1185 26.4955ZM13.5358 26.3816C13.4291 26.4094 13.2528 26.4548 13.0965 26.5021L14.8324 32.2455C14.8321 32.2456 14.8368 32.2442 14.8481 32.241C14.8592 32.2379 14.8741 32.2338 14.8938 32.2284C14.9355 32.2172 14.9835 32.2047 15.0496 32.1875L13.5358 26.3816ZM13.0531 28.1474C13.0949 27.244 13.5739 26.6762 13.8166 26.4506C13.9405 26.3355 14.0437 26.2677 14.0947 26.2366C14.1227 26.2195 14.1439 26.2079 14.1565 26.2014C14.1693 26.1947 14.1763 26.1916 14.1763 26.1916C14.1764 26.1915 14.1717 26.1936 14.1616 26.1977C14.1514 26.2018 14.1374 26.2071 14.1191 26.2138C14.0816 26.2273 14.0333 26.2433 13.9727 26.2617C13.8451 26.3006 13.7098 26.3362 13.5358 26.3816L15.0496 32.1875C15.3299 32.1144 16.0215 31.9422 16.6491 31.6583C16.9639 31.5159 17.4494 31.2654 17.9009 30.8459C18.371 30.4091 18.9923 29.6015 19.0467 28.4247L13.0531 28.1474ZM15.4152 30.957C15.1515 30.9422 14.6557 30.8593 14.1439 30.4828C13.5869 30.0731 13.1243 29.3815 13.0585 28.5125L19.0414 28.0595C18.8628 25.7016 16.7371 25.0218 15.7516 24.9665L15.4152 30.957ZM15.2506 31.0667C15.3523 31.0377 15.4258 31.0167 15.495 30.9981C15.5618 30.9802 15.6065 30.9695 15.6376 30.9628C15.7053 30.9483 15.6685 30.9622 15.5692 30.9617L15.5975 24.9618C14.7118 24.9576 13.8998 25.2125 13.6007 25.2981L15.2506 31.0667ZM15.3743 31.0285L15.3743 31.0284L13.4769 25.3363L13.4769 25.3364L15.3743 31.0285ZM12.3606 31.3279C13.6807 31.5732 14.8915 31.1694 15.2506 31.0667L13.6006 25.2981C13.4679 25.336 13.3812 25.3606 13.3012 25.3812C13.2251 25.4007 13.1855 25.4085 13.1685 25.4113C13.1323 25.4174 13.254 25.3912 13.457 25.4289L12.3606 31.3279ZM10.5171 30.7573C10.8755 30.9053 11.6381 31.2287 12.4892 31.3489L13.3284 25.4079C13.3616 25.4126 13.3386 25.4128 13.2345 25.3777C13.1284 25.342 13.003 25.2924 12.8065 25.2113L10.5171 30.7573ZM10.4461 30.7274L10.4905 30.7462L12.8331 25.2224L12.7886 25.2036L10.4461 30.7274ZM7.56663 28.552C8.09698 29.4778 8.91674 29.9711 9.28309 30.1775C9.71827 30.4227 10.1891 30.6184 10.4464 30.7275L12.7883 25.2034C12.6351 25.1385 12.5211 25.09 12.4167 25.0424C12.3134 24.9954 12.256 24.9657 12.2281 24.95C12.1959 24.9318 12.2421 24.9541 12.3259 25.0239C12.3709 25.0614 12.4376 25.1215 12.5136 25.207C12.5898 25.2927 12.683 25.4127 12.7728 25.5695L7.56663 28.552ZM11.096 22.9384C8.20349 22.7477 5.88892 25.9136 7.6366 28.668L12.7029 25.4535C13.8098 27.1982 12.2865 29.03 10.7012 28.9254L11.096 22.9384ZM13.0493 23.4049C12.7797 23.3068 11.9442 22.9746 11.029 22.9348L10.7681 28.9291C10.6947 28.9259 10.6449 28.9177 10.6248 28.914C10.6051 28.9103 10.6052 28.9092 10.6314 28.9167C10.6577 28.9242 10.6985 28.937 10.7623 28.9589C10.8285 28.9817 10.8989 29.0073 10.9977 29.0432L13.0493 23.4049ZM13.1377 23.4386L13.1377 23.4386L10.9094 29.0095L10.9094 29.0095L13.1377 23.4386ZM13.1782 23.5129C13.2796 23.512 13.3529 23.5213 13.3896 23.5272C13.4258 23.5329 13.4378 23.5373 13.4178 23.5318C13.3975 23.5262 13.3599 23.5149 13.295 23.4927C13.2275 23.4696 13.1547 23.4432 13.0493 23.4049L10.9977 29.0432C11.2617 29.1393 12.2029 29.5213 13.2285 29.5127L13.1782 23.5129ZM13.5949 23.4288C13.4222 23.4781 13.3313 23.4999 13.2719 23.5109C13.2182 23.5208 13.2389 23.5122 13.3077 23.5146L13.099 29.5109C14.0245 29.5432 14.8287 29.3163 15.2413 29.1985L13.5949 23.4288ZM13.7611 23.3782C13.693 23.3987 13.6175 23.4214 13.5417 23.4446L15.2945 29.1828C15.3553 29.1642 15.4178 29.1454 15.4881 29.1243L13.7611 23.3782ZM13.8005 23.3667L13.8004 23.3667L15.4488 29.1359L15.4488 29.1358L13.8005 23.3667ZM14.204 23.2935C14.3073 23.2149 14.3803 23.178 14.3915 23.1724C14.4053 23.1655 14.3914 23.1733 14.3365 23.1941C14.2829 23.2144 14.2101 23.2395 14.1091 23.2717C14.0066 23.3044 13.8976 23.3372 13.7611 23.3782L15.4882 29.1243C15.7306 29.0514 16.102 28.9412 16.4596 28.8059C16.7979 28.6779 17.3304 28.4538 17.8356 28.0696L14.204 23.2935ZM14.0967 23.3776L14.0371 23.4301L18.0025 27.933L18.0622 27.8805L14.0967 23.3776ZM19.9351 22.6389C19.3861 22.2575 18.7239 21.9625 17.9619 21.8733C17.1965 21.7836 16.5169 21.9232 15.9689 22.1383C15.032 22.506 14.3042 23.1948 14.0958 23.3784L18.0631 27.8797C18.2389 27.7247 18.3091 27.665 18.3615 27.6256C18.4097 27.5895 18.3338 27.6557 18.1609 27.7236C17.9615 27.8018 17.645 27.8772 17.2636 27.8325C16.8856 27.7882 16.6284 27.6475 16.512 27.5666L19.9351 22.6389ZM20.534 23.0967C20.4259 23.0067 20.177 22.7957 19.8655 22.592L16.5816 27.6135C16.5658 27.6032 16.5629 27.6001 16.5799 27.6134C16.5888 27.6203 16.6015 27.6305 16.6207 27.6463C16.6411 27.6629 16.6626 27.6808 16.6945 27.7074L20.534 23.0967ZM20.4639 23.09C20.503 23.1064 20.5401 23.1247 20.5736 23.1436C20.6067 23.1621 20.6304 23.1779 20.6428 23.1865C20.654 23.1943 20.6538 23.1948 20.6356 23.1804C20.6266 23.1732 20.6145 23.1634 20.5973 23.1492C20.5793 23.1344 20.5604 23.1187 20.534 23.0967L16.6945 27.7074C16.8879 27.8684 17.3957 28.3107 18.1504 28.6261L20.4639 23.09ZM20.8552 23.2163C20.6763 23.1536 20.454 23.0755 20.2251 23.0019L18.3892 28.7142C18.5306 28.7596 18.6785 28.8113 18.8702 28.8785L20.8552 23.2163ZM20.8114 23.2014L20.8114 23.2014L18.914 28.8935L18.9141 28.8935L20.8114 23.2014ZM20.8114 23.2014L20.8114 23.2014L18.9141 28.8935L18.9141 28.8935L20.8114 23.2014ZM21.7631 23.5205C21.8595 23.493 21.891 23.5197 21.7533 23.4941C21.6778 23.4801 21.5717 23.454 21.4165 23.4061C21.2559 23.3564 21.0866 23.2975 20.8552 23.2164L18.8703 28.8785C19.5892 29.1306 21.4032 29.8607 23.4043 29.2916L21.7631 23.5205ZM22.1259 23.3966C22.0216 23.4356 21.958 23.4592 21.9004 23.4791C21.8742 23.4881 21.8553 23.4943 21.8416 23.4985C21.835 23.5006 21.83 23.5021 21.8267 23.503C21.8233 23.504 21.8217 23.5044 21.8217 23.5044L23.3457 29.3076C23.7149 29.2107 24.0537 29.0815 24.2242 29.0178L22.1259 23.3966ZM23.6605 22.9752C22.9682 23.0684 22.3567 23.3105 22.126 23.3966L24.2242 29.0178C24.3005 28.9893 24.3546 28.9692 24.4055 28.9509C24.4545 28.9334 24.487 28.9226 24.5093 28.9156C24.5572 28.9006 24.5322 28.9119 24.461 28.9215L23.6605 22.9752ZM27.1893 29.1024C28.3087 27.7736 28.3645 25.9536 27.4507 24.601C26.5684 23.2948 25.0017 22.7099 23.4894 23.0033L24.632 28.8935C23.9239 29.0308 23.0216 28.763 22.4789 27.9597C21.9048 27.1099 21.9756 25.9785 22.6006 25.2367L27.1893 29.1024ZM25.3167 30.4534C25.5403 30.3496 25.8336 30.202 26.1325 30.0122C26.3931 29.8466 26.8528 29.5288 27.2456 29.0336L22.5443 25.3055C22.6684 25.1491 22.7778 25.054 22.8266 25.0138C22.8801 24.9697 22.9138 24.9486 22.9151 24.9477C22.9186 24.9455 22.9089 24.9518 22.8835 24.9652C22.8591 24.9782 22.8282 24.9936 22.7919 25.0104L25.3167 30.4534ZM25.0877 30.5556C25.1516 30.5271 25.2097 30.5012 25.2671 30.4758L22.8415 24.988C22.7727 25.0184 22.7047 25.0487 22.6426 25.0764L25.0877 30.5556ZM20.5787 31.2602C22.6491 31.7522 24.4255 30.8511 25.0877 30.5556L22.6426 25.0764C22.4239 25.174 22.2697 25.2424 22.1245 25.3004C21.9849 25.3561 21.8969 25.3844 21.8414 25.3989C21.7492 25.4231 21.8258 25.3895 21.9658 25.4227L20.5787 31.2602ZM20.6409 31.2744L20.671 31.2806L21.8734 25.4023L21.8433 25.3961L20.6409 31.2744ZM19.559 30.977C19.7548 31.0426 20.2396 31.2127 20.7664 31.2973L21.7179 25.3732C21.7641 25.3807 21.7727 25.3859 21.7213 25.3708C21.6975 25.3639 21.666 25.3541 21.622 25.3399C21.5766 25.3251 21.5286 25.3091 21.4645 25.2876L19.559 30.977ZM0.234626 36.7036C0.246938 36.7543 0.238271 36.7212 0.229504 36.6755C0.219183 36.6216 0.198897 36.5036 0.192629 36.3462L6.18788 36.1075C6.17087 35.6803 6.07087 35.3112 6.0651 35.2875L0.234626 36.7036ZM0.109234 35.7767C0.113948 36.2633 0.229593 36.6829 0.234631 36.7037L6.0651 35.2875C6.05164 35.2321 6.06248 35.2733 6.07276 35.3292C6.08482 35.3947 6.10717 35.5341 6.10895 35.7186L0.109234 35.7767ZM0.110219 35.6606L0.10966 35.6893L6.10853 35.8059L6.10909 35.7772L0.110219 35.6606ZM0.63047 33.883C0.518047 34.0769 0.144601 34.7254 0.111734 35.6071L6.10757 35.8306C6.09419 36.1894 6.00965 36.4607 5.95297 36.6105C5.89543 36.7626 5.83788 36.8637 5.82052 36.8936L0.63047 33.883ZM2.89729 30.3841C2.07666 31.5143 1.31864 32.6878 0.62563 33.8914L5.82536 36.8852C6.41606 35.8593 7.05954 34.8636 7.75241 33.9094L2.89729 30.3841ZM5.79314 26.8314C4.74862 27.9662 3.78409 29.1598 2.89522 30.387L7.75448 33.9066C8.51851 32.8517 9.33588 31.842 10.2077 30.8948L5.79314 26.8314ZM8.1519 25.6746C8.11189 25.6796 7.71563 25.7196 7.30147 25.8558C6.80186 26.0202 6.19437 26.3406 5.69008 26.9494L10.3108 30.7768C9.94125 31.2229 9.49671 31.45 9.17661 31.5553C8.94196 31.6325 8.74177 31.6477 8.90275 31.6274L8.1519 25.6746ZM8.52734 25.651H8.52732V31.651H8.52734V25.651ZM7.80842 25.7754C7.96886 25.7139 8.09504 25.6871 8.15053 25.6766C8.16524 25.6738 8.17671 25.6719 8.18411 25.6707C8.18786 25.6701 8.19075 25.6697 8.19265 25.6694C8.19455 25.6691 8.19561 25.6689 8.19566 25.6689C8.1957 25.6689 8.19492 25.669 8.19311 25.6693C8.19128 25.6695 8.18866 25.6699 8.18498 25.6704C8.17675 25.6714 8.16761 25.6726 8.15187 25.6746L8.90281 31.6274C8.9638 31.6197 9.44842 31.5728 9.95834 31.377L7.80842 25.7754ZM6.59984 26.9011C6.84362 26.3757 7.2645 25.9956 7.75539 25.7964L10.0114 31.3561C10.8882 31.0003 11.6286 30.3186 12.0426 29.4262L6.59984 26.9011ZM7.43438 29.6526C6.65776 29.2074 6.0359 28.0718 6.61821 26.8623L12.0243 29.4651C12.9772 27.4858 12.0176 25.364 10.4183 24.4472L7.43438 29.6526ZM8.00689 29.8729C8.09972 29.8902 8.00364 29.8753 7.88465 29.8395C7.7418 29.7965 7.47699 29.7006 7.18693 29.4942L10.6658 24.6057C9.92822 24.0808 9.11777 23.9766 9.10693 23.9746L8.00689 29.8729ZM6.73408 29.4222C7.35471 29.7824 8.00059 29.8717 8.0069 29.8729L9.10693 23.9746C9.02845 23.9599 9.09627 23.9708 9.1827 23.9944C9.28395 24.0221 9.49653 24.0882 9.74572 24.2328L6.73408 29.4222ZM5.44865 28.0764C5.46266 28.1006 5.56166 28.2766 5.69238 28.459C5.83579 28.6591 6.06927 28.9447 6.41968 29.2122L10.0601 24.4428C10.3248 24.6448 10.4883 24.8508 10.5695 24.9642C10.6381 25.0599 10.6828 25.142 10.6422 25.0719L5.44865 28.0764ZM5.9982 28.6782C5.74999 28.4835 5.59544 28.2877 5.51752 28.1785C5.45179 28.0864 5.40903 28.0079 5.44865 28.0763L10.6422 25.0719C10.6389 25.0661 10.3187 24.4416 9.70153 23.9575L5.9982 28.6782ZM8.30157 28.724C7.82387 29.0239 7.33234 29.0854 6.94807 29.042C6.55697 28.9978 6.14961 28.833 5.80851 28.5162L9.89123 24.1195C8.64745 22.9645 6.67454 22.6612 5.11176 23.6422L8.30157 28.724ZM9.19148 26.1638C9.48505 26.9684 9.29348 28.1417 8.22817 28.7686L5.18516 23.5976C3.43328 24.6285 2.99029 26.6728 3.55493 28.2204L9.19148 26.1638ZM8.84261 29.3634C9.42673 28.4308 9.55324 27.34 9.2439 26.3208L3.50251 28.0634C3.4277 27.8169 3.37872 27.4889 3.42686 27.1128C3.47529 26.7344 3.60798 26.4175 3.75763 26.1786L8.84261 29.3634ZM3.54544 36.4283C5.65456 34.2399 7.40106 31.7993 8.88139 29.2998L3.71885 26.2423C2.41608 28.442 0.939733 30.4858 -0.774729 32.2647L3.54544 36.4283ZM1.39526 37.4553C1.44339 37.4478 1.70125 37.4113 1.97482 37.3356C2.27192 37.2535 2.72926 37.0907 3.19244 36.7412L-0.421727 31.9518C-0.0825125 31.6958 0.231677 31.5925 0.375451 31.5527C0.495705 31.5195 0.59008 31.5084 0.473583 31.5265L1.39526 37.4553ZM2.52894 36.8108C2.16565 37.1753 1.78156 37.3377 1.56463 37.4072C1.39386 37.4619 1.25451 37.4771 1.39526 37.4553L0.473573 31.5265C0.421347 31.5346 0.0874484 31.5801 -0.264903 31.6929C-0.663417 31.8205 -1.21613 32.069 -1.72053 32.575L2.52894 36.8108ZM1.80961 33.3598C2.48528 33.627 2.94007 34.218 3.07429 34.8753C3.20977 35.5387 3.03009 36.4306 2.28491 37.0302L-1.4765 32.3556C-4.06914 34.4418 -2.78493 37.9953 -0.396331 38.9396L1.80961 33.3598ZM1.44665 33.2568C1.38241 33.2465 1.44479 33.2552 1.52377 33.2738C1.61531 33.2954 1.80054 33.3453 2.02303 33.454L-0.609751 38.8455C-0.0596457 39.1141 0.486332 39.1795 0.492827 39.1805L1.44665 33.2568ZM0.969754 33.2187H0.969737V39.2187H0.969754V33.2187ZM2.88856 33.7832C2.50262 33.5362 2.14 33.4144 1.89768 33.35C1.67641 33.2912 1.47259 33.261 1.44664 33.2568L0.492865 39.1805C0.573295 39.1935 0.475649 39.1804 0.356258 39.1486C0.215803 39.1113 -0.0492505 39.0266 -0.346029 38.8366L2.88856 33.7832ZM4.06815 35.0734C4.05614 35.0522 3.95487 34.8683 3.81882 34.6778C3.66857 34.4674 3.42305 34.1691 3.05151 33.8952L-0.508977 38.7246C-0.79601 38.513 -0.973473 38.2914 -1.06381 38.1649C-1.13995 38.0583 -1.18947 37.9654 -1.14958 38.0357L4.06815 35.0734ZM3.67059 34.5887C3.85166 34.7594 3.96518 34.9168 4.02049 34.9994C4.06795 35.0702 4.0997 35.129 4.06815 35.0734L-1.14957 38.0357C-1.14572 38.0425 -0.893779 38.5315 -0.445364 38.9543L3.67059 34.5887ZM0.197357 36.4191C0.119536 35.2187 0.957158 34.4354 1.64371 34.1951C2.31676 33.9595 3.20663 34.0733 3.82024 34.7401L-0.595006 38.8028C0.588857 40.0894 2.29354 40.3246 3.62605 39.8582C4.97206 39.387 6.31379 38.0206 6.18479 36.0309L0.197357 36.4191ZM5.93853 37.4297L5.93935 37.4279L0.442793 35.0221L0.441974 35.0239L5.93853 37.4297ZM34.6753 36.3463C34.669 36.5037 34.6487 36.6216 34.6384 36.6755C34.6297 36.7212 34.621 36.7543 34.6333 36.7036L28.8028 35.2875C28.797 35.3112 28.6971 35.6803 28.68 36.1074L34.6753 36.3463ZM28.9282 37.427L28.929 37.4289L34.4263 35.0248L34.4255 35.023L28.9282 37.427ZM31.0477 34.7401C31.6613 34.0733 32.5512 33.9595 33.2242 34.1951C33.9108 34.4354 34.7484 35.2188 34.6706 36.4191L28.6831 36.0309C28.5541 38.0206 29.8959 39.387 31.2419 39.8582C32.5744 40.3246 34.2791 40.0894 35.4629 38.8028L31.0477 34.7401ZM30.7998 35.0734C30.7682 35.1289 30.8 35.0702 30.8474 34.9994C30.9028 34.9168 31.0163 34.7594 31.1973 34.5887L35.3133 38.9543C35.7617 38.5316 36.0136 38.0425 36.0175 38.0357L30.7998 35.0734ZM31.8165 33.8952C31.4449 34.1691 31.1993 34.4674 31.0491 34.6778C30.9131 34.8683 30.8118 35.0522 30.7998 35.0734L36.0175 38.0357C36.0574 37.9654 36.0079 38.0583 35.9317 38.1649C35.8414 38.2914 35.6639 38.513 35.3769 38.7246L31.8165 33.8952ZM33.4213 33.2568C33.3953 33.261 33.1915 33.2912 32.9702 33.35C32.7279 33.4144 32.3653 33.5362 31.9794 33.7832L35.214 38.8366C34.9172 39.0266 34.6521 39.1113 34.5117 39.1486C34.3923 39.1804 34.2946 39.1935 34.375 39.1805L33.4213 33.2568ZM32.8449 33.4539C33.0674 33.3453 33.2527 33.2954 33.3442 33.2738C33.4232 33.2552 33.4855 33.2465 33.4213 33.2568L34.3751 39.1805C34.3815 39.1795 34.9275 39.1141 35.4776 38.8455L32.8449 33.4539ZM32.583 37.0302C31.8378 36.4306 31.6581 35.5387 31.7936 34.8753C31.9279 34.218 32.3826 33.627 33.0583 33.3598L35.2642 38.9396C37.6529 37.9953 38.937 34.4418 36.3444 32.3556L32.583 37.0302ZM33.4727 37.4553C33.6134 37.4771 33.4741 37.4619 33.3033 37.4072C33.0864 37.3377 32.7023 37.1753 32.339 36.8109L36.5884 32.575C36.084 32.069 35.5313 31.8205 35.1328 31.6929C34.7805 31.5801 34.4466 31.5346 34.3944 31.5265L33.4727 37.4553ZM31.6755 36.7412C32.1387 37.0907 32.596 37.2535 32.8931 37.3356C33.1667 37.4113 33.4245 37.4478 33.4726 37.4553L34.3944 31.5265C34.2779 31.5084 34.3722 31.5195 34.4925 31.5527C34.6362 31.5925 34.9504 31.6958 35.2897 31.9518L31.6755 36.7412ZM25.9865 29.2998C27.4669 31.7993 29.2134 34.2399 31.3225 36.4283L35.6426 32.2647C33.9282 30.4858 32.4518 28.442 31.1491 26.2423L25.9865 29.2998ZM25.624 26.3208C25.3147 27.34 25.4412 28.4308 26.0253 29.3634L31.1103 26.1786C31.2599 26.4176 31.3926 26.7344 31.4411 27.1128C31.4892 27.4889 31.4402 27.8169 31.3654 28.0634L25.624 26.3208ZM26.6397 28.7686C25.5744 28.1417 25.3829 26.9684 25.6764 26.1638L31.313 28.2204C31.8776 26.6728 31.4346 24.6285 29.6828 23.5976L26.6397 28.7686ZM29.0594 28.5162C28.7183 28.833 28.3109 28.9978 27.9198 29.042C27.5356 29.0854 27.044 29.0239 26.5664 28.724L29.7562 23.6422C28.1934 22.6612 26.2205 22.9645 24.9767 24.1195L29.0594 28.5162ZM29.4193 28.0763C29.4589 28.0079 29.4161 28.0864 29.3504 28.1785C29.2725 28.2877 29.1179 28.4835 28.8697 28.6782L25.1664 23.9575C24.5492 24.4416 24.2291 25.066 24.2257 25.0719L29.4193 28.0763ZM28.4482 29.2122C28.7987 28.9447 29.0321 28.6591 29.1755 28.459C29.3063 28.2766 29.4053 28.1006 29.4193 28.0764L24.2257 25.0719C24.1852 25.1419 24.2298 25.0599 24.2984 24.9642C24.3796 24.8508 24.5432 24.6448 24.8078 24.4428L28.4482 29.2122ZM26.861 29.8729C26.8673 29.8717 27.5132 29.7824 28.1338 29.4222L25.1222 24.2328C25.3714 24.0882 25.584 24.0221 25.6852 23.9944C25.7716 23.9708 25.8395 23.9599 25.761 23.9746L26.861 29.8729ZM27.681 29.4942C27.3909 29.7006 27.1261 29.7965 26.9833 29.8395C26.8643 29.8753 26.7682 29.8902 26.861 29.8729L25.761 23.9746C25.7501 23.9766 24.9397 24.0808 24.2021 24.6057L27.681 29.4942ZM28.2497 26.8623C28.832 28.0717 28.2102 29.2074 27.4335 29.6526L24.4496 24.4472C22.8503 25.364 21.8907 27.4858 22.8437 29.4651L28.2497 26.8623ZM27.1125 25.7964C27.6034 25.9956 28.0243 26.3757 28.2681 26.9011L22.8253 29.4262C23.2393 30.3186 23.9797 31.0003 24.8565 31.3561L27.1125 25.7964ZM26.716 25.6746C26.7003 25.6726 26.6912 25.6714 26.6829 25.6704C26.6792 25.6699 26.6766 25.6695 26.6748 25.6693C26.673 25.669 26.6722 25.6689 26.6722 25.6689C26.6723 25.6689 26.6733 25.6691 26.6752 25.6694C26.6771 25.6697 26.68 25.6701 26.6838 25.6707C26.6912 25.6719 26.7027 25.6738 26.7174 25.6766C26.7728 25.6871 26.899 25.7139 27.0595 25.7754L24.9096 31.377C25.4195 31.5728 25.9042 31.6197 25.9651 31.6274L26.716 25.6746ZM29.1778 26.9494C28.6736 26.3406 28.0661 26.0202 27.5665 25.8558C27.1523 25.7196 26.756 25.6796 26.716 25.6746L25.9652 31.6274C26.1261 31.6477 25.926 31.6325 25.6913 31.5553C25.3712 31.45 24.9267 31.2229 24.5571 30.7768L29.1778 26.9494ZM31.9727 30.387C31.0838 29.1598 30.1193 27.9662 29.0748 26.8314L24.6602 30.8948C25.532 31.842 26.3494 32.8517 27.1134 33.9066L31.9727 30.387ZM34.2423 33.8914C33.5493 32.6878 32.7913 31.5143 31.9706 30.3841L27.1155 33.9094C27.8084 34.8636 28.4519 35.8593 29.0426 36.8852L34.2423 33.8914ZM34.7562 35.6071C34.7233 34.7254 34.3499 34.0769 34.2374 33.883L29.0474 36.8936C29.03 36.8637 28.9725 36.7626 28.9149 36.6105C28.8583 36.4607 28.7737 36.1894 28.7603 35.8307L34.7562 35.6071ZM34.7583 35.6893L34.7577 35.6606L28.7588 35.7772L28.7594 35.8059L34.7583 35.6893ZM34.6333 36.7037C34.6383 36.6829 34.754 36.2633 34.7587 35.7767L28.759 35.7185C28.7608 35.5341 28.7831 35.3947 28.7952 35.3292C28.8054 35.2733 28.8163 35.2321 28.8028 35.2874L34.6333 36.7037Z" fill="black" mask="url(#path-4-outside-1_365_483)"/>
</g>
</svg>
