<svg width="36" height="36" viewBox="0 0 36 36" fill="none" xmlns="http://www.w3.org/2000/svg">
<g clip-path="url(#clip0_286_689)">
<rect width="36" height="36" rx="12" fill="#FCE34C"/>
<path d="M1.6079 11.5094L0.489835 11.7632L-0.0597718 11.415L-3.27719 16.4941L-3.57475 16.9638L-3.31298 17.4544C-2.69168 18.6188 -1.74396 20.1139 -0.333891 21.6321L-0.333547 21.6325C1.02883 23.0977 2.40763 24.1359 3.52812 24.8507C3.84684 27.0333 4.16588 29.2157 4.48494 31.3983C4.88364 34.1257 5.28238 36.8533 5.68056 39.5815L5.74377 40.0146L6.11313 40.2494L10.8133 43.2368L11.192 43.4775L11.619 43.3396L29.4517 37.5771L29.9794 37.4066L30.0927 36.8637L32.4348 25.639L35.6328 21.3409L38.9564 16.874L39.2669 16.4568L39.0847 15.9697C38.6391 14.7781 38.193 13.5865 37.7469 12.3952L37.7431 12.3851C37.2957 11.1903 36.8485 9.9957 36.4017 8.80115L35.6558 6.80652L34.663 8.69045C33.9946 9.95876 32.7642 11.913 30.6404 13.7299C28.3212 15.7123 25.9757 16.6423 24.5352 17.0852C24.9203 16.6552 25.5255 15.9102 26.0607 14.9452C26.8304 13.5574 27.509 11.6152 27.0543 9.46579C26.5291 6.98247 24.6868 5.12854 22.4886 4.06068C20.2899 2.9926 17.6185 2.64726 15.2296 3.27311L15.2293 3.27319C11.349 4.29103 7.63472 8.07724 7.93511 12.6283L7.93515 12.6289C8.0617 14.5284 8.86242 16.0476 9.66311 17.1195C8.54818 17.0056 6.23984 16.5848 4.14097 14.8069C2.76891 13.6442 2.00916 12.3481 1.6079 11.5094Z" fill="#191F28" stroke="black" stroke-width="1.90937"/>
<path d="M13.7149 20.5576L13.439 19.8808L14.1333 19.5961L14.4092 20.2729L15.5963 20.4503L15.5525 19.7407L16.6673 19.6268L16.4921 20.4393L18.2333 20.4152L18.2114 19.6005L19.1817 19.4932L19.1751 20.3605L21.1748 19.7231C20.9886 20.1152 20.8046 20.5094 20.6185 20.9015C20.5418 21.0263 20.406 21.219 20.1761 21.4008C19.9658 21.5673 19.7271 21.6856 19.4204 21.7776C18.0603 22.1915 16.5622 22.0557 16.5622 22.0557C15.9314 21.9988 14.9655 21.8433 13.9033 21.3767C13.8398 21.103 13.7763 20.827 13.7127 20.5532L13.7149 20.5576Z" fill="white"/>
<path d="M13.7935 20.5358L13.5175 19.859L13.4737 19.9269C13.7059 19.8327 13.9381 19.7385 14.168 19.6422L14.0541 19.6181L14.2754 20.1612C14.3192 20.2686 14.3213 20.308 14.4309 20.3387C14.7922 20.4394 15.1974 20.4547 15.5698 20.5095C15.6026 20.5139 15.6815 20.492 15.6771 20.446L15.6333 19.7363L15.5457 19.7999C15.918 19.7626 16.2903 19.7232 16.6605 19.686L16.5882 19.6356L16.413 20.4482C16.4042 20.4876 16.459 20.5007 16.4853 20.4985C17.0657 20.4898 17.6461 20.4832 18.2265 20.4744C18.2572 20.4744 18.3141 20.4482 18.3141 20.4109L18.2922 19.5962L18.2046 19.6597L19.1749 19.5524L19.1026 19.502L19.096 20.3693C19.096 20.4175 19.153 20.4284 19.1902 20.4175C19.856 20.205 20.5218 19.9926 21.1898 19.7801L21.1 19.7166C20.9051 20.1306 20.7409 20.6059 20.4846 20.9826C20.2283 21.3593 19.8363 21.5915 19.407 21.7272C18.6711 21.9594 17.8783 22.0295 17.1095 22.0229C16.6802 22.0185 16.2553 21.9747 15.8326 21.9003C15.4099 21.8258 15.0244 21.7229 14.6324 21.5915C14.444 21.5279 14.0563 21.4513 13.9622 21.2563C13.868 21.0614 13.8461 20.757 13.7957 20.5358C13.7782 20.4635 13.6205 20.5051 13.638 20.5774C13.6687 20.7154 13.7015 20.8512 13.7322 20.9891C13.7541 21.0855 13.765 21.3264 13.8264 21.4009C13.9271 21.5214 14.2031 21.5761 14.3498 21.6287C14.7638 21.7798 15.1887 21.8959 15.618 21.9835C16.1283 22.0842 16.6386 22.1368 17.1577 22.139C18.0053 22.139 18.9252 22.0623 19.7158 21.7382C20.0597 21.598 20.3663 21.3724 20.5875 21.0746C20.8766 20.6869 21.0453 20.1722 21.2512 19.7363C21.2775 19.6816 21.2008 19.6619 21.1614 19.6728C20.4956 19.8853 19.8297 20.0977 19.1617 20.3102L19.2559 20.3584L19.2625 19.491C19.2625 19.4516 19.223 19.4363 19.1902 19.4407L18.2199 19.548C18.1893 19.5524 18.1323 19.5721 18.1323 19.6115L18.1542 20.4263L18.2418 20.3627C17.6614 20.3715 17.081 20.3781 16.5006 20.3868L16.5729 20.4372L16.7481 19.6246C16.7569 19.5852 16.7021 19.5699 16.6758 19.5743C16.3035 19.6115 15.9312 19.6509 15.561 19.6882C15.5325 19.6903 15.4712 19.7123 15.4734 19.7517L15.5172 20.4613L15.6245 20.3978L14.5579 20.2379C14.4681 20.2248 14.4374 20.1897 14.4878 20.251C14.4484 20.2029 14.4331 20.1153 14.409 20.0583L14.214 19.5786C14.1943 19.5327 14.1374 19.5392 14.1001 19.5546C13.868 19.6487 13.6358 19.7429 13.4058 19.8393C13.3839 19.848 13.3511 19.8787 13.362 19.9072L13.638 20.584C13.6665 20.654 13.8242 20.608 13.7957 20.5423L13.7935 20.5358Z" fill="#D1D6DB"/>
<path d="M16.9478 5.72562C16.1857 5.80227 13.8377 6.03663 12.206 8.01001C11.9082 8.3692 10.8131 9.73808 10.8218 11.7859C10.8328 14.2105 12.3834 15.748 12.6791 16.0306C12.931 16.0612 13.1851 16.0941 13.4369 16.1247C13.5705 16.5299 13.702 16.9373 13.8356 17.3425C14.2561 17.3053 14.6744 17.2658 15.0949 17.2286C15.0577 16.8387 15.0205 16.4467 14.9832 16.0568L16.2864 16.0875L16.6127 17.3009C16.9435 17.2812 17.272 17.2593 17.6027 17.2395C17.537 16.8519 17.4713 16.4642 17.4034 16.0765C17.6268 16.059 17.8502 16.0415 18.0736 16.024C18.2576 16.4292 18.4416 16.8322 18.6234 17.2374C19.0154 17.2001 19.4053 17.1629 19.7973 17.1257C19.6396 16.7402 19.4841 16.3547 19.3264 15.9692L20.5026 15.5465C20.5376 16.0152 20.5726 16.4839 20.6077 16.9504C21.0304 16.7971 21.4531 16.6438 21.8758 16.4927C21.9021 16.1204 21.9284 15.748 21.9547 15.3757C22.1824 15.2684 24.2697 14.2346 24.653 11.9918C25.0034 9.93739 23.6565 8.41739 23.1943 7.89831C20.9866 5.40804 17.548 5.66867 16.9457 5.72781L16.9478 5.72562ZM15.3731 13.1241C14.7927 13.8119 13.5026 14.1076 12.6309 13.3651C12.1754 12.9774 11.7549 12.2371 11.9213 11.5625C12.1557 10.612 13.4347 10.2659 14.3459 10.6076C15.0227 10.8617 15.7498 11.591 15.7148 12.3422C15.695 12.7409 15.4716 13.0059 15.3731 13.122V13.1241ZM20.2047 13.4527C19.9638 13.5271 18.9519 13.8535 18.1108 13.2402C17.986 13.1504 17.3946 12.7168 17.3815 12.1166C17.3596 11.0697 19.1074 9.86073 20.4062 10.3448C21.1377 10.6164 21.8408 11.4662 21.6612 12.2524C21.4772 13.0606 20.5091 13.3585 20.2047 13.4505V13.4527Z" fill="white"/>
<path d="M16.9561 5.67758C15.0025 5.87251 13.1474 6.63689 11.9405 8.24669C10.4643 10.2157 10.368 12.8834 11.7018 14.9531C11.9318 15.3101 12.1946 15.6452 12.4925 15.9475C12.6546 16.1117 12.7903 16.0942 13.0313 16.1249C13.1583 16.1402 13.316 16.1249 13.3948 16.2453C13.4562 16.3373 13.4759 16.495 13.5109 16.6002C13.5942 16.8542 13.6774 17.1083 13.7606 17.3602C13.7694 17.3864 13.8066 17.3886 13.8307 17.3864C14.2512 17.3492 14.6695 17.3098 15.0901 17.2725C15.1251 17.2704 15.1842 17.2463 15.1799 17.2025C15.1426 16.8126 15.1054 16.4206 15.0682 16.0307L14.9587 16.1008L15.5829 16.1139L16.0165 16.1249C16.08 16.1249 16.1983 16.1052 16.2596 16.1314C16.172 16.0942 16.2421 16.2125 16.2596 16.2848L16.367 16.6856L16.5378 17.3185C16.5444 17.347 16.586 17.347 16.6079 17.3448C16.9386 17.3251 17.2671 17.3032 17.5979 17.2835C17.6285 17.2835 17.6942 17.2572 17.6877 17.2134C17.622 16.8257 17.5562 16.4381 17.4883 16.0504L17.3986 16.1205C17.622 16.103 17.8454 16.0855 18.0688 16.0679L17.9987 16.0416C18.1826 16.4468 18.3666 16.8498 18.5484 17.255C18.5594 17.2813 18.5922 17.2835 18.6185 17.2813C19.0105 17.2441 19.4004 17.2068 19.7924 17.1696C19.8165 17.1674 19.8976 17.1411 19.8822 17.0995C19.7246 16.714 19.569 16.3286 19.4114 15.9431L19.3654 16.0022C19.7574 15.8621 20.1495 15.7197 20.5415 15.5795L20.4298 15.5642C20.4648 16.0329 20.4999 16.5016 20.5349 16.9681C20.5393 17.0141 20.6269 16.99 20.6466 16.9834C21.0693 16.8301 21.4921 16.6768 21.9148 16.5257C21.9323 16.5191 21.9608 16.5016 21.9629 16.4797C21.9805 16.2431 21.9958 16.0066 22.0133 15.7701C22.0199 15.6627 21.9958 15.4393 22.0396 15.389C22.1009 15.3189 22.2674 15.2685 22.3506 15.2203C22.7383 14.9903 23.1019 14.7122 23.426 14.399C24.3963 13.4528 24.9438 12.1365 24.7642 10.7742C24.6131 9.63091 23.9823 8.63874 23.2201 7.80208C22.2937 6.78801 21.0452 6.14409 19.7136 5.84841C18.8178 5.6491 17.8804 5.58778 16.9649 5.67758C16.8839 5.68634 16.8357 5.7849 16.9452 5.77395C18.8463 5.58778 20.9138 6.0302 22.4163 7.24577C23.2201 7.89407 23.9298 8.78549 24.3196 9.7448C24.8387 11.0283 24.7029 12.4716 23.9254 13.6193C23.437 14.342 22.7229 14.9597 21.9323 15.3364C21.9148 15.3452 21.8863 15.3605 21.8841 15.3824C21.8688 15.5861 21.8556 15.7876 21.8403 15.9913C21.8272 16.1665 21.8622 16.4074 21.7045 16.506C21.5556 16.6002 21.3344 16.6396 21.1679 16.7009C20.973 16.771 20.778 16.8411 20.5831 16.9134L20.6948 16.9287C20.6598 16.46 20.6247 15.9913 20.5897 15.5248C20.5853 15.4788 20.4977 15.5029 20.478 15.5094C20.0859 15.6496 19.6939 15.792 19.3018 15.9321C19.2843 15.9387 19.2449 15.965 19.2558 15.9913C19.4135 16.3768 19.569 16.7622 19.7267 17.1477L19.8165 17.0776C19.4245 17.1149 19.0346 17.1521 18.6426 17.1893L18.7127 17.2156C18.5287 16.8104 18.3447 16.4074 18.1629 16.0022C18.1498 15.9759 18.1191 15.9738 18.0928 15.9759C17.8694 15.9935 17.646 16.011 17.4226 16.0285C17.392 16.0307 17.3263 16.0548 17.3328 16.0986C17.3986 16.4863 17.4643 16.8739 17.5322 17.2616L17.622 17.1915C17.2912 17.2112 16.9627 17.2331 16.632 17.2528L16.7021 17.2791C16.5926 16.8739 16.483 16.4687 16.3757 16.0657C16.3713 16.046 16.3451 16.0395 16.3253 16.0373C15.8917 16.0263 15.4558 16.0176 15.0222 16.0066C14.9827 16.0066 14.9083 16.0241 14.9127 16.0767C14.9499 16.4666 14.9871 16.8586 15.0244 17.2485L15.1142 17.1784C14.6936 17.2156 14.2753 17.255 13.8548 17.2923L13.9249 17.3185C13.7913 16.9134 13.6599 16.506 13.5263 16.1008C13.5197 16.0789 13.4956 16.0767 13.4759 16.0723C13.2393 16.0438 12.878 16.0745 12.6896 15.9256C12.5998 15.8555 12.5231 15.7547 12.4487 15.6715C12.1968 15.389 11.969 15.0801 11.7719 14.756C11.1411 13.7244 10.8301 12.5132 10.9243 11.3042C11.0864 9.2082 12.4377 7.32462 14.3323 6.43758C15.1558 6.0521 16.0406 5.85936 16.943 5.76957C17.024 5.76081 17.0722 5.66225 16.9627 5.6732L16.9561 5.67758Z" fill="#D1D6DB"/>
<path d="M15.3092 13.1088C14.8492 13.6366 14.0848 13.8666 13.4081 13.6958C12.6743 13.5096 12.0896 12.8109 11.9822 12.0685C11.8749 11.326 12.359 10.7894 13.027 10.6032C13.695 10.417 14.4046 10.5901 14.939 11.0369C15.25 11.2975 15.5194 11.6435 15.6092 12.0465C15.699 12.4495 15.5654 12.8066 15.3114 13.1088C15.25 13.1811 15.4033 13.1855 15.4406 13.1417C15.664 12.8766 15.8151 12.5722 15.7976 12.2174C15.7757 11.7815 15.5216 11.3851 15.215 11.0894C14.6696 10.5616 13.9315 10.3316 13.1847 10.474C12.5298 10.5988 11.8881 11.0347 11.8136 11.7465C11.726 12.5919 12.3765 13.4702 13.1584 13.7418C13.9403 14.0134 14.8952 13.7637 15.4384 13.1395C15.5019 13.0672 15.3486 13.0628 15.3092 13.1066V13.1088Z" fill="#D1D6DB"/>
<path d="M20.1933 13.4086C19.4903 13.6254 18.7347 13.6276 18.1236 13.1611C17.8608 12.9618 17.6155 12.699 17.5103 12.3792C17.3986 12.0397 17.4972 11.6958 17.6877 11.4045C18.1236 10.7343 18.9843 10.2678 19.7838 10.2832C20.6292 10.2985 21.4877 11.0037 21.5994 11.8579C21.7111 12.7121 20.8986 13.1896 20.1933 13.4064C20.0992 13.4349 20.1211 13.5247 20.2174 13.494C20.8504 13.2991 21.5797 12.9508 21.7418 12.2412C21.9565 11.2928 21.0125 10.3598 20.1364 10.2109C19.2603 10.0619 18.382 10.4628 17.8038 11.0651C17.5519 11.3279 17.3285 11.6652 17.3044 12.0375C17.276 12.458 17.5278 12.8282 17.8279 13.0998C18.5003 13.7064 19.3851 13.7503 20.2174 13.494C20.3116 13.4655 20.2897 13.3757 20.1933 13.4064V13.4086Z" fill="#D1D6DB"/>
<path d="M35.5907 12.8483C34.9358 13.7135 34.1386 14.618 33.1683 15.4963C31.9856 16.5673 30.7897 17.3821 29.6815 18.0063C29.25 18.0588 28.8186 18.1092 28.3871 18.1618C28.3739 18.7312 28.3608 19.3029 28.3477 19.8723C28.7069 19.8898 29.1537 19.9775 29.399 20.3038C29.6815 20.6827 29.4712 21.0901 29.71 21.3967C29.8896 21.6267 30.321 21.7975 31.4139 21.5522C31.5016 21.101 31.5914 20.6498 31.679 20.1987C32.6142 19.0882 33.6502 17.9603 34.8066 16.8389C35.6082 16.0614 36.4098 15.3408 37.2005 14.675C37.632 14.9969 38.2189 14.975 38.5825 14.6509C39.0096 14.272 39.0534 13.5514 38.6175 13.0805C38.2956 12.9491 37.9736 12.8155 37.6539 12.6841C37.5597 12.349 37.4633 12.016 37.3691 11.6809C36.8479 11.6328 36.3266 11.5868 35.8053 11.5386C35.733 11.9744 35.663 12.4103 35.5907 12.8461V12.8483Z" fill="white"/>
<path d="M35.5164 12.8459C34.5944 14.0593 33.5365 15.1654 32.356 16.129C31.7756 16.6021 31.1689 17.0402 30.5359 17.4432C30.2753 17.6096 29.9949 17.8265 29.7058 17.9425C29.5065 18.0236 29.2568 18.017 29.0444 18.0411C28.8319 18.0652 28.6129 18.0937 28.3983 18.1178C28.3742 18.1199 28.3085 18.1375 28.3085 18.1703C28.2953 18.7398 28.2822 19.3114 28.269 19.8809C28.269 19.9093 28.2931 19.9137 28.3172 19.9137C28.8078 19.9444 29.3444 20.1087 29.4627 20.6518C29.5284 20.9563 29.4583 21.3001 29.7299 21.5213C30.1701 21.8762 30.9323 21.6944 31.4229 21.5892C31.4448 21.5849 31.4865 21.5673 31.4908 21.5411C31.5653 21.16 31.6244 20.7723 31.7164 20.3956C31.8084 20.0189 32.1457 19.7341 32.391 19.456C32.8904 18.8865 33.4051 18.3302 33.9329 17.7848C34.9908 16.6963 36.1034 15.6647 37.262 14.6857L37.1241 14.7032C37.7636 15.1456 38.7492 14.9485 38.9638 14.1338C39.0536 13.7943 38.9835 13.2664 38.6791 13.0408C38.436 12.8591 38.0593 12.8591 37.8118 12.6838C37.6607 12.5765 37.6366 12.3246 37.5884 12.1582C37.5402 11.9917 37.4942 11.8231 37.446 11.6566C37.4394 11.6369 37.4132 11.6347 37.3978 11.6347C36.8766 11.5865 36.3553 11.5406 35.834 11.4924C35.8056 11.4902 35.7289 11.5077 35.7245 11.5471C35.6522 11.983 35.5822 12.4188 35.5099 12.8547C35.5011 12.9138 35.6588 12.8875 35.6676 12.835C35.7398 12.3991 35.8099 11.9633 35.8822 11.5274L35.7727 11.5822C36.0509 11.6085 36.329 11.6325 36.6072 11.6588C36.7627 11.6742 36.9204 11.6873 37.0759 11.7026C37.2642 11.7202 37.308 11.7727 37.3606 11.9545C37.3978 12.0881 37.4373 12.2217 37.4745 12.3553C37.5008 12.4473 37.5161 12.6378 37.5774 12.7101C37.6234 12.7649 37.7658 12.7934 37.8315 12.8218C37.9761 12.881 38.1206 12.9401 38.2652 12.9992C38.5477 13.1153 38.712 13.2642 38.7996 13.5621C38.8587 13.7636 38.8609 13.987 38.7996 14.1885C38.5915 14.8675 37.8249 15.023 37.2752 14.6419C37.2358 14.6156 37.1722 14.6309 37.1372 14.6594C35.6194 15.9385 34.1848 17.3139 32.8444 18.7792C32.5202 19.134 32.2005 19.4954 31.8873 19.859C31.7449 20.0254 31.6091 20.1437 31.5675 20.3605C31.5171 20.6212 31.4646 20.8818 31.4142 21.1402C31.3945 21.2432 31.3967 21.4118 31.3244 21.4907C31.2455 21.5761 31.0616 21.5739 30.9433 21.5914C30.744 21.6177 30.5403 21.6352 30.3388 21.6133C30.1373 21.5914 29.9117 21.5323 29.7803 21.3615C29.6314 21.1687 29.6642 20.9168 29.6335 20.6891C29.6051 20.4854 29.5218 20.2992 29.3707 20.1568C29.1057 19.9093 28.7268 19.8458 28.3786 19.8239L28.4267 19.8568C28.4399 19.2873 28.453 18.7157 28.4662 18.1462L28.3764 18.1988C28.6107 18.1703 28.8429 18.144 29.0772 18.1156C29.2678 18.0937 29.4956 18.0959 29.6817 18.0433C29.9555 17.9644 30.2402 17.7301 30.4812 17.579C31.1207 17.1803 31.7361 16.7445 32.3253 16.2758C33.5781 15.2771 34.6951 14.1184 35.6654 12.8437C35.707 12.789 35.5493 12.8021 35.5186 12.8415L35.5164 12.8459Z" fill="#D1D6DB"/>
<path d="M16.5052 24.7235C16.5402 25.4266 16.5293 26.2107 16.4417 27.0605C16.3343 28.0964 16.4701 32.5404 16.2358 33.331C16.0781 33.5479 15.9204 33.7647 15.7627 33.9794C15.9554 34.2575 16.1504 34.5335 16.3431 34.8116C16.5358 34.724 16.7286 34.6364 16.9213 34.551C17.09 34.678 17.2586 34.8051 17.4294 34.9321L18.1785 34.2487C18.058 33.9947 17.9354 33.7406 17.8149 33.4866C17.8084 32.5426 17.4973 28.0198 17.5784 26.9729C17.6331 26.2457 17.7098 25.547 17.7996 24.879C17.8412 24.787 17.9113 24.6578 18.0252 24.5286C18.1435 24.3928 18.2661 24.3074 18.3559 24.2526C18.1785 23.9986 18.0011 23.7445 17.8237 23.4904C17.6463 23.5715 17.4689 23.6503 17.2915 23.7314C17.0462 23.5956 16.8009 23.462 16.5556 23.3262L16.1372 24.0073C16.227 24.1431 16.319 24.3008 16.4044 24.4826C16.4439 24.5658 16.4767 24.6469 16.5074 24.7257L16.5052 24.7235Z" fill="white"/>
<path d="M16.4242 24.7298C16.4855 26.0418 16.3213 27.3493 16.3125 28.6634C16.3037 29.8922 16.3213 31.1252 16.2621 32.3518C16.2512 32.5927 16.238 32.8336 16.2052 33.0723C16.157 33.4272 15.9029 33.6746 15.6949 33.9572C15.6817 33.9747 15.673 33.9922 15.6883 34.0119C15.881 34.2901 16.076 34.5661 16.2687 34.8442C16.2906 34.8749 16.3476 34.8661 16.376 34.853C16.5118 34.7917 16.7571 34.623 16.9017 34.6449C17.0462 34.6668 17.2499 34.8858 17.3682 34.9734C17.4054 35.0019 17.4667 34.9756 17.4952 34.9493L18.2443 34.266C18.2443 34.266 18.264 34.2375 18.2574 34.2244C18.1457 33.99 17.999 33.7513 17.9179 33.506C17.8873 33.414 17.8938 33.3176 17.8895 33.2191C17.8829 33.0001 17.8719 32.781 17.861 32.562C17.8325 31.9553 17.7997 31.3465 17.7668 30.7398C17.7055 29.5505 17.6091 28.3459 17.6463 27.1544C17.6595 26.7163 17.7121 26.2805 17.758 25.8446C17.7887 25.5533 17.8084 25.2533 17.8632 24.9642C17.9179 24.6751 18.1567 24.4363 18.402 24.283C18.4239 24.2699 18.4392 24.2414 18.4239 24.2173C18.2465 23.9633 18.0691 23.7092 17.8917 23.4551C17.8697 23.4245 17.8128 23.4332 17.7843 23.4464C17.6113 23.5252 17.3945 23.6829 17.2105 23.6084C17.0068 23.5274 16.8053 23.385 16.6126 23.2799C16.5688 23.2558 16.5009 23.2733 16.4746 23.3171L16.0563 23.9983C16.0475 24.0114 16.0497 24.0268 16.0584 24.0377C16.203 24.2611 16.3235 24.4955 16.4198 24.743C16.4461 24.8087 16.6038 24.7627 16.5775 24.7014C16.4943 24.4889 16.3454 24.2896 16.2709 24.0771C16.1964 23.8647 16.5118 23.5143 16.6235 23.3281L16.4855 23.3653C16.6235 23.442 16.7615 23.5165 16.8995 23.5931C16.9871 23.6413 17.1426 23.7683 17.2455 23.7793C17.4186 23.7968 17.6945 23.5997 17.8478 23.5296L17.7405 23.5208C17.9179 23.7749 18.0953 24.029 18.2727 24.283L18.2946 24.2173C18.1348 24.3159 17.9946 24.4385 17.8829 24.5897C17.7252 24.7977 17.6989 24.9686 17.6682 25.2204C17.5938 25.803 17.5303 26.39 17.4908 26.977C17.458 27.4785 17.4821 27.9867 17.4996 28.4904C17.5478 29.9097 17.6376 31.3267 17.7033 32.746C17.7142 32.976 17.7033 33.2147 17.7274 33.4425C17.758 33.7031 18.0121 33.9178 18.0472 34.1718C18.0691 34.3273 17.8697 34.4412 17.769 34.5332L17.3572 34.9099L17.4843 34.8858C17.3156 34.7588 17.147 34.6318 16.9761 34.5047C16.9521 34.485 16.9061 34.4938 16.8798 34.5047C16.687 34.5923 16.4943 34.68 16.3016 34.7654L16.4089 34.7741C16.2578 34.5573 16.0738 34.3405 15.9446 34.1083C15.8548 33.944 15.8942 33.8959 15.9993 33.7535C16.0782 33.6462 16.157 33.5367 16.2359 33.4293C16.341 33.2848 16.3541 33.1271 16.3716 32.9519C16.433 32.3978 16.4374 31.8349 16.4483 31.2786C16.4702 30.0104 16.4374 28.7379 16.4877 27.4698C16.525 26.5477 16.6213 25.641 16.5775 24.7145C16.5731 24.6356 16.4154 24.6641 16.4176 24.7298H16.4242Z" fill="#D1D6DB"/>
<path d="M18.7897 26.0856C19.8629 25.3168 21.4968 24.3312 23.6608 23.6413C26.105 22.8638 28.2383 22.7784 29.6357 22.8331C29.7627 23.0062 29.9554 23.3106 30.0584 23.7377C30.1745 24.213 30.1219 24.6138 30.0781 24.8306C28.3018 24.8131 25.8356 25.0102 23.0891 25.9629C21.7794 26.4185 20.6536 26.9595 19.714 27.4895C19.679 27.4851 19.0635 27.3997 18.8204 26.8566C18.6627 26.5061 18.7569 26.1776 18.7854 26.0856H18.7897Z" fill="white"/>
<path d="M18.842 26.121C21.7572 24.0425 25.2769 22.897 28.8601 22.8773C29.0637 22.8773 29.2871 22.8576 29.4886 22.886C29.677 22.9123 29.7799 23.2036 29.8478 23.3613C30.0493 23.8278 30.0953 24.3403 29.999 24.8375L30.1063 24.7762C26.6085 24.7477 23.1327 25.5778 20.051 27.2424C19.924 27.3103 19.797 27.4285 19.6656 27.422C19.5341 27.4154 19.3852 27.33 19.2823 27.2643C18.8793 27.0102 18.7325 26.5284 18.8683 26.0815C18.8902 26.0115 18.7281 26.029 18.7084 26.0947C18.5157 26.7277 18.8858 27.3234 19.5035 27.5052C19.7378 27.5753 19.8254 27.492 20.0445 27.3716C20.454 27.1482 20.8724 26.9379 21.2973 26.743C23.1918 25.8713 25.2199 25.2996 27.2897 25.0434C28.2052 24.9317 29.1273 24.8791 30.0493 24.8879C30.091 24.8879 30.1479 24.8747 30.1567 24.8266C30.2399 24.3951 30.2202 23.9483 30.0822 23.53C30.0209 23.3438 29.9376 23.1642 29.8369 22.9977C29.7427 22.8422 29.7208 22.7809 29.5412 22.7765C28.7374 22.7502 27.9314 22.7787 27.132 22.8641C25.0294 23.0853 22.9706 23.6876 21.0804 24.6382C20.2635 25.0478 19.4794 25.5252 18.7347 26.0553C18.6471 26.1188 18.7763 26.167 18.8398 26.1232L18.842 26.121Z" fill="#D1D6DB"/>
<path d="M19.738 29.4872C20.625 28.9681 21.9632 28.3527 23.7001 28.1359C25.6603 27.8884 27.3314 28.2476 28.42 28.5848C28.5098 28.7776 28.639 29.1127 28.6938 29.542C28.7529 30.0238 28.6894 30.3983 28.6412 30.5998C27.2548 30.2187 25.3143 29.899 23.1087 30.2516C22.0552 30.4202 21.1419 30.7094 20.3753 31.0291C20.3469 31.0182 19.8738 30.8079 19.7183 30.2341C19.6175 29.8639 19.7117 29.5661 19.7402 29.485L19.738 29.4872Z" fill="white"/>
<path d="M19.7906 29.5203C21.4595 28.55 23.3716 28.055 25.3033 28.112C26.1926 28.1383 27.0752 28.274 27.9316 28.5062C28.0849 28.5478 28.3039 28.5653 28.3871 28.7055C28.4835 28.8698 28.5295 29.0976 28.5689 29.2815C28.6631 29.7196 28.6631 30.1708 28.5624 30.6088L28.6894 30.5519C26.9306 30.0722 25.0865 29.9123 23.2774 30.1773C22.3641 30.3109 21.4683 30.5475 20.6075 30.8826C20.463 30.9395 20.463 30.9965 20.3513 30.9439C20.2242 30.8826 20.1103 30.7709 20.0227 30.6614C19.7555 30.3328 19.6854 29.8795 19.819 29.4809C19.8409 29.4151 19.6789 29.4349 19.6592 29.4962C19.4927 29.9956 19.6482 30.5672 20.0512 30.9067C20.1279 30.9702 20.2483 31.0797 20.3556 31.0863C20.4542 31.0907 20.5834 31.003 20.6732 30.968C20.866 30.8935 21.0609 30.8235 21.258 30.7577C22.8766 30.2255 24.5937 30.0525 26.2867 30.2211C27.0664 30.2978 27.8374 30.4489 28.593 30.6548C28.6368 30.6658 28.7091 30.6482 28.72 30.5979C28.7945 30.2803 28.8142 29.9539 28.7836 29.6276C28.7551 29.3275 28.7003 28.8435 28.5098 28.5916C28.3915 28.4339 27.971 28.3945 27.7805 28.3485C27.4432 28.2653 27.0993 28.1952 26.7554 28.1404C25.069 27.8754 23.3256 28.0003 21.7048 28.5413C20.9996 28.7756 20.325 29.0866 19.6832 29.4611C19.5913 29.5159 19.7249 29.5597 19.7862 29.5247L19.7906 29.5203Z" fill="#D1D6DB"/>
<path d="M19.7313 33.0266C20.5592 32.6587 21.7923 32.2666 23.332 32.3258C25.071 32.3915 26.4969 33.0026 27.4145 33.5063C27.4737 33.7078 27.5547 34.056 27.5569 34.4853C27.5613 34.9672 27.4671 35.322 27.4036 35.5103C26.2296 34.919 24.5629 34.3035 22.5983 34.3035C21.6609 34.3035 20.833 34.4437 20.1299 34.6343C20.1058 34.6189 19.7116 34.3408 19.6349 33.7538C19.5845 33.3771 19.6963 33.1011 19.7291 33.0245L19.7313 33.0266Z" fill="white"/>
<path d="M19.7641 33.0637C21.3849 32.3497 23.1852 32.1876 24.9111 32.5972C25.6602 32.7746 26.3829 33.0484 27.0685 33.3988C27.2306 33.482 27.3401 33.5236 27.3839 33.7076C27.4299 33.9025 27.4605 34.1019 27.4737 34.3012C27.4999 34.7129 27.4561 35.1291 27.3291 35.5211L27.4715 35.4707C26.0303 34.7502 24.4556 34.2946 22.8392 34.2574C22.0047 34.2398 21.1724 34.3318 20.3621 34.5289C20.2197 34.564 20.2044 34.61 20.1058 34.5158C20.0072 34.4216 19.9196 34.3034 19.8561 34.1785C19.6765 33.8281 19.6546 33.3922 19.8079 33.0287C19.8386 32.9542 19.6809 32.9695 19.659 33.0221C19.4422 33.5302 19.5363 34.2771 20.0094 34.6253C20.1846 34.7545 20.4387 34.6012 20.6336 34.5596C21.0958 34.4589 21.5645 34.3953 22.0354 34.3691C23.8817 34.2596 25.704 34.7304 27.3466 35.5518C27.3904 35.5737 27.4737 35.5518 27.489 35.5014C27.6861 34.8881 27.6861 34.2179 27.5284 33.5981C27.4715 33.3747 27.1758 33.3024 26.9809 33.2082C26.7137 33.079 26.4421 32.9629 26.1639 32.8578C24.7315 32.3168 23.1721 32.1263 21.6608 32.3913C20.9863 32.5096 20.3314 32.7133 19.7028 32.9892C19.602 33.033 19.694 33.0944 19.7685 33.0615L19.7641 33.0637Z" fill="#D1D6DB"/>
<path d="M15.3792 25.6081C14.4265 24.9445 13.016 24.1231 11.2835 23.6654C9.32765 23.1485 7.74851 23.3084 6.73882 23.523C6.68407 23.7136 6.6096 24.0487 6.62712 24.4976C6.64683 24.9992 6.77167 25.4022 6.85052 25.619C8.14494 25.3978 9.99128 25.3168 12.2078 25.976C13.2656 26.2914 14.2074 26.7163 15.0091 27.1522C15.0353 27.1434 15.4646 26.9857 15.5238 26.4009C15.561 26.0242 15.4208 25.6979 15.3792 25.6081Z" fill="white"/>
<path d="M15.4539 25.5799C12.9264 23.8277 9.81846 22.8421 6.75216 23.4883C6.72588 23.4926 6.66894 23.5058 6.66017 23.5364C6.46525 24.2285 6.53095 24.9688 6.77188 25.6412C6.78064 25.6631 6.82225 25.6587 6.83758 25.6566C8.31378 25.4091 9.82065 25.4616 11.2815 25.788C12.151 25.9807 13.0008 26.2698 13.8134 26.6312C13.982 26.7057 14.1507 26.7845 14.3171 26.8656C14.4113 26.9115 14.5055 26.9575 14.5975 27.0057C14.6895 27.0539 14.8253 27.1612 14.9348 27.1831C15.0202 27.2007 15.0947 27.159 15.1669 27.1152C15.6926 26.7977 15.6838 26.0924 15.4582 25.5909C15.4385 25.5449 15.283 25.5974 15.3006 25.6325C15.5042 26.088 15.5656 26.9181 14.9808 27.1306L15.0837 27.1262C12.5694 25.7661 9.70676 25.1068 6.86386 25.5865L6.92957 25.6018C6.69084 24.936 6.62294 24.2023 6.81568 23.5145L6.72369 23.5627C9.75056 22.9276 12.8125 23.9153 15.3027 25.6412C15.3422 25.6697 15.4823 25.6062 15.4517 25.5843L15.4539 25.5799Z" fill="#D1D6DB"/>
<path d="M15.0487 28.7817C14.1573 28.3152 12.8585 27.7873 11.321 27.7019C9.58631 27.6055 8.25467 28.1093 7.41363 28.5495C7.38734 28.7554 7.36325 29.1124 7.42896 29.5636C7.50342 30.0673 7.65455 30.4506 7.74873 30.6543C8.83069 30.1462 10.4033 29.66 12.3745 29.8461C13.3162 29.9359 14.1704 30.1615 14.9063 30.4287C14.926 30.4134 15.2765 30.1593 15.2611 29.5526C15.2502 29.1606 15.0947 28.8605 15.0487 28.7795V28.7817Z" fill="white"/>
<path d="M15.1121 28.7404C13.7936 28.0571 12.3371 27.6278 10.8434 27.6409C10.1359 27.6475 9.43067 27.7526 8.75171 27.9541C8.46698 28.0395 8.18663 28.1403 7.91286 28.2586C7.7683 28.3199 7.41787 28.4119 7.33683 28.552C7.2777 28.655 7.30617 28.9025 7.30617 29.0142C7.30617 29.2047 7.3215 29.3975 7.34778 29.5858C7.40254 29.9625 7.51205 30.3283 7.66755 30.6765C7.68508 30.7182 7.7464 30.7094 7.77925 30.6941C9.47229 29.9078 11.3515 29.6734 13.1869 30.0173C13.6534 30.1049 14.1133 30.2254 14.5645 30.3765C14.7704 30.4444 14.8887 30.5408 15.0464 30.3787C15.4691 29.9472 15.3837 29.2354 15.1186 28.747C15.0902 28.6944 14.9369 28.747 14.9719 28.8127C15.1449 29.1325 15.2282 29.5267 15.1493 29.8837C15.1165 30.0348 15.0508 30.1838 14.95 30.302C14.858 30.4115 14.8799 30.3831 14.7835 30.3217C14.6237 30.2166 14.3586 30.1816 14.1747 30.129C13.96 30.0677 13.741 30.0129 13.522 29.9669C13.0664 29.8706 12.6021 29.8027 12.1378 29.772C10.6134 29.6712 9.09338 29.9691 7.71136 30.6108L7.82306 30.6284C7.66755 30.2823 7.55804 29.9144 7.50329 29.5376C7.47043 29.3055 7.4551 29.0733 7.46386 28.839C7.47043 28.6703 7.44415 28.5805 7.59747 28.5061C8.28081 28.1688 9.01453 27.9322 9.76796 27.8183C11.5705 27.5489 13.3796 27.987 14.9807 28.8193C15.0332 28.8477 15.1778 28.7733 15.1055 28.736L15.1121 28.7404Z" fill="#D1D6DB"/>
<path d="M14.6414 31.8723C13.8398 31.5569 12.6899 31.2525 11.3911 31.4387C9.92589 31.6467 8.86801 32.3958 8.21533 32.9915C8.21752 33.2062 8.23942 33.5719 8.34674 34.0165C8.46721 34.5159 8.64023 34.8751 8.74317 35.0656C9.59078 34.3582 10.8523 33.5873 12.5257 33.4274C13.3251 33.3507 14.0676 33.4274 14.7159 33.5697C14.7312 33.5522 14.9962 33.2303 14.9108 32.6192C14.856 32.2249 14.6896 31.9468 14.6414 31.8723Z" fill="white"/>
<path d="M14.6875 31.8241C13.0755 31.1999 11.2927 31.1386 9.71355 31.9029C9.3894 32.0606 9.07839 32.2468 8.78709 32.4571C8.6513 32.5534 8.51988 32.6564 8.39285 32.7637C8.32495 32.8206 8.17164 32.9104 8.13879 32.9937C8.09936 33.0944 8.14755 33.2981 8.1585 33.401C8.18259 33.6332 8.22201 33.8632 8.28115 34.0888C8.37095 34.4414 8.50017 34.7787 8.67101 35.1006C8.69072 35.1379 8.77176 35.116 8.79585 35.0985C9.51205 34.5049 10.3224 34.0274 11.2117 33.7471C12.3352 33.3945 13.5223 33.377 14.67 33.6223C14.7072 33.631 14.7576 33.6223 14.7817 33.5916C15.1781 33.1119 15.0139 32.3235 14.716 31.8416C14.6831 31.789 14.5298 31.8438 14.5692 31.9073C14.843 32.3476 15.0182 33.1097 14.6503 33.5522L14.762 33.5215C12.5718 33.055 10.41 33.6135 8.69072 35.0349H8.81556C8.65787 34.7349 8.5374 34.4173 8.45199 34.0931C8.40161 33.9048 8.36438 33.7142 8.3381 33.5215C8.32057 33.3879 8.25925 33.1295 8.31181 33.0046C8.36 32.8885 8.54836 32.779 8.64473 32.7024C8.75205 32.6169 8.86375 32.5359 8.97545 32.4571C9.26455 32.2556 9.57118 32.0782 9.89095 31.9336C11.3978 31.2459 13.0733 31.3357 14.5933 31.9248C14.6525 31.9467 14.7795 31.8635 14.6875 31.8285V31.8241Z" fill="#D1D6DB"/>
<path d="M0.142135 14.7491C0.893377 15.4982 1.78698 16.2669 2.84266 16.9831C4.12832 17.8548 5.39207 18.4703 6.54412 18.9127C6.96464 18.8952 7.38516 18.8799 7.80787 18.8623C7.90205 19.423 7.99404 19.9837 8.08822 20.5444C7.74435 20.6189 7.3304 20.7744 7.14205 21.1358C6.92521 21.5541 7.18366 21.9243 6.99968 22.2615C6.85951 22.5178 6.46965 22.7522 5.38769 22.6821C5.23875 22.2506 5.08982 21.8191 4.94088 21.3898C3.88739 20.4415 2.73096 19.4909 1.46283 18.5667C0.582367 17.9249 -0.287146 17.3401 -1.14133 16.8079C-1.50928 17.1934 -2.07436 17.2635 -2.47078 17.0007C-2.93292 16.694 -3.07747 15.991 -2.72923 15.4566C-2.44012 15.2748 -2.15101 15.0952 -1.86191 14.9134C-1.8181 14.5695 -1.7743 14.2235 -1.73049 13.8796C-1.2377 13.7504 -0.742709 13.6212 -0.249912 13.4941C-0.1185 13.9125 0.0107226 14.3308 0.142135 14.7513V14.7491Z" fill="white"/>
<path d="M0.0697668 14.7797C1.33352 16.0369 2.76591 17.1166 4.33411 17.9621C4.71301 18.1679 5.10068 18.3585 5.49492 18.5359C5.68765 18.6235 5.88258 18.7067 6.07751 18.7878C6.21111 18.8425 6.36443 18.9323 6.50679 18.9542C6.7061 18.9871 6.94484 18.9389 7.14633 18.9301C7.27775 18.9258 7.43982 18.8929 7.56685 18.9126C7.71579 18.9367 7.71141 18.9301 7.76397 19.09C7.83625 19.3178 7.8472 19.5916 7.88663 19.8259C7.92605 20.0603 7.96766 20.3165 8.00928 20.5618L8.07717 20.5005C7.4442 20.6473 6.93169 20.9955 6.97769 21.7051C6.9974 22.0227 6.99302 22.3184 6.68858 22.4848C6.38414 22.6513 5.93953 22.6885 5.61976 22.6425C5.45549 22.6184 5.43359 22.5593 5.38103 22.4082C5.3416 22.2921 5.29999 22.176 5.26056 22.0599C5.1861 21.8475 5.13572 21.5496 5.01745 21.3591C4.92108 21.2014 4.67797 21.0546 4.53998 20.9342C4.35382 20.7721 4.16546 20.61 3.9771 20.4501C3.22805 19.8172 2.4571 19.2083 1.66643 18.6257C0.775014 17.9708 -0.140493 17.351 -1.0779 16.764C-1.11076 16.7421 -1.17865 16.764 -1.20494 16.7903C-1.57946 17.1561 -2.17082 17.2327 -2.5541 16.8341C-2.79503 16.5822 -2.88702 16.2055 -2.81912 15.8682C-2.77094 15.6295 -2.668 15.474 -2.45993 15.3426C-2.27157 15.2243 -2.08321 15.1082 -1.89485 14.9899C-1.7284 14.8848 -1.76344 14.795 -1.73935 14.5913C-1.70868 14.3504 -1.67802 14.1095 -1.64736 13.8664L-1.71525 13.9167C-1.22246 13.7875 -0.727469 13.6583 -0.234672 13.5313L-0.324471 13.5116C-0.193058 13.9299 -0.0638359 14.3482 0.0675766 14.7687C0.0850983 14.8257 0.242793 14.7819 0.225272 14.7271C0.093859 14.3088 -0.0353634 13.8905 -0.166776 13.4699C-0.177727 13.4371 -0.234672 13.4459 -0.256574 13.4502C-0.749372 13.5795 -1.24436 13.7087 -1.73716 13.8357C-1.75906 13.8423 -1.80286 13.8576 -1.80505 13.8861C-1.82695 14.0591 -1.84886 14.2299 -1.87076 14.403C-1.88828 14.5497 -1.88171 14.7534 -1.95837 14.8782C-2.1073 15.1192 -2.5103 15.2265 -2.73151 15.4017C-3.02938 15.6383 -3.05128 16.1661 -2.9352 16.5034C-2.65047 17.3291 -1.64079 17.3707 -1.07352 16.8188L-1.20055 16.8451C0.0872884 17.6489 1.33352 18.5184 2.52937 19.4536C3.08788 19.8916 3.63762 20.3406 4.17422 20.805C4.448 21.0415 4.79405 21.2693 4.93422 21.6088C5.0744 21.9482 5.18829 22.3403 5.31313 22.7039C5.3197 22.7236 5.34379 22.728 5.36131 22.728C5.86287 22.7564 6.60754 22.798 6.99083 22.3841C7.19014 22.1673 7.14852 21.8979 7.13757 21.6263C7.11129 21.0108 7.5559 20.7108 8.10346 20.5837C8.12974 20.5772 8.17792 20.5553 8.17135 20.5224C8.07717 19.9617 7.98519 19.401 7.89101 18.8403C7.88882 18.8206 7.85815 18.8162 7.84282 18.8162C7.46173 18.8316 7.0653 18.882 6.6842 18.8622C6.36005 18.8447 6.00085 18.6301 5.70737 18.4987C5.03716 18.2008 4.38667 17.8613 3.75808 17.4846C2.47024 16.7115 1.28533 15.7762 0.220891 14.7184C0.181468 14.6789 0.0303431 14.7381 0.0741472 14.7819L0.0697668 14.7797Z" fill="#D1D6DB"/>
</g>
<defs>
<clipPath id="clip0_286_689">
<rect width="36" height="36" rx="12" fill="white"/>
</clipPath>
</defs>
</svg>
