<svg width="38" height="65" viewBox="0 0 38 65" fill="none" xmlns="http://www.w3.org/2000/svg">
<path d="M35.4289 33.78L27.264 33.7213C26.159 33.917 25.2301 32.8017 25.5527 31.6669L34.1284 3.19897C34.4413 2.10329 33.5808 1.00762 32.5052 1.12501L13.4373 0.978271C12.8506 1.04675 12.3519 1.47719 12.1857 2.08373L0.559202 41.4889C0.246294 42.5845 1.1068 43.6802 2.18242 43.5628L13.4471 43.328C14.4445 43.2106 15.2757 44.1498 15.1094 45.1966L12.7431 62.3556C12.4888 63.96 14.4054 64.9187 15.3832 63.6763L36.8566 36.3822C37.7464 35.2474 36.8077 33.5257 35.4289 33.78Z" fill="#FDE021"/>
</svg>
