<svg width="20" height="20" viewBox="0 0 20 20" fill="none" xmlns="http://www.w3.org/2000/svg">
<circle cx="10" cy="10" r="10" fill="#FDEA6E"/>
<path d="M14.113 9.53074L11.9599 9.51493C11.6685 9.56762 11.4236 9.26728 11.5087 8.96167L13.77 4.7648C13.8526 4.46972 13.6256 4.17465 13.342 4.20627L8.82958 4.16675C8.67487 4.18519 8.54337 4.30111 8.49953 4.46445L5.43366 11.6094C5.35115 11.9045 5.57806 12.1996 5.8617 12.1679L8.31645 12.1047C8.57946 12.0731 8.79864 12.326 8.7548 12.6079L8.1308 17.229C8.06376 17.661 8.56915 17.9192 8.827 17.5846L14.4895 10.2342C14.7241 9.92856 14.4766 9.46487 14.113 9.53337V9.53074Z" fill="#393939"/>
<path d="M7.8849 18.1667L7.89006 18.1377L7.88232 18.1456L7.8849 18.1667Z" fill="#010101"/>
</svg>
