<svg width="20" height="20" viewBox="0 0 20 20" fill="none" xmlns="http://www.w3.org/2000/svg">
<circle cx="10" cy="10" r="10" fill="#DFE4E8"/>
<path opacity="0.5" d="M14.1132 9.53074L11.9602 9.51493C11.6688 9.56762 11.4238 9.26728 11.5089 8.96167L13.7703 4.7648C13.8528 4.46972 13.6259 4.17465 13.3422 4.20627L8.82983 4.16675C8.67511 4.18519 8.54361 4.30111 8.49977 4.46445L5.4339 11.6094C5.35139 11.9045 5.5783 12.1996 5.86194 12.1679L8.3167 12.1047C8.57971 12.0731 8.79888 12.326 8.75505 12.6079L8.13104 17.229C8.064 17.661 8.56939 17.9192 8.82725 17.5846L14.4897 10.2342C14.7243 9.92856 14.4768 9.46487 14.1132 9.53337V9.53074Z" fill="#8B95A1"/>
<path d="M7.88515 18.1667L7.8903 18.1377L7.88257 18.1456L7.88515 18.1667Z" fill="#010101"/>
</svg>
