<svg width="134" height="137" viewBox="0 0 134 137" fill="none" xmlns="http://www.w3.org/2000/svg">
<path d="M48.2253 28.8264C54.1376 34.489 55.7204 31.0213 54.3994 15.3183C60.3963 23.7316 63.4894 19.9096 66.4536 0.428711C66.8523 22.6563 71.6651 28.0773 81.0491 17.2394C83.2924 29.8816 88.8664 27.0623 98.9713 8.07687C91.6212 21.9797 91.6212 30.4656 98.9713 19.1C91.6212 30.4656 108.589 30.7596 121.01 19.4786C108.589 30.7555 100.981 41.8109 111.126 33.8365C100.981 41.8109 117.663 77.1197 132.794 79.7013C117.663 77.1238 87.7951 70.6999 94.0014 71.3564C87.7951 70.6999 87.7951 96.9912 94.0014 105.505C87.7951 96.9912 69.9977 87.8288 70.8838 93.6082C69.9977 87.8288 69.9977 120.902 70.8838 136.561C69.9977 120.898 59.043 108.9 56.6548 120.975C59.043 108.9 35.3817 116.802 25.9212 131.237C35.3817 116.798 41.7813 104.015 34.2339 114.628C41.7813 104.011 23.1301 98.6546 10.0086 107.668C28.9015 92.1502 34.6769 85.6499 32.5141 82.3272C32.4376 79.1093 24.4189 79.0771 1.26904 82.1984C16.4002 79.0449 37.7659 70.6959 29.0183 71.3524C37.7659 70.6959 21.2292 51.2714 7.53981 46.1243C21.2292 51.2714 29.2801 51.2714 17.9951 46.1243C29.276 51.2714 27.5201 24.3156 15.7156 11.1136C27.5241 24.3156 49.7678 44.7872 44.6046 37.7029C49.7638 44.7872 52.5548 37.9486 48.2293 28.8223L48.2253 28.8264Z" fill="url(#paint0_radial_374_707)"/>
<path d="M47.6934 29.0802C49.0507 30.373 51.4188 32.6848 53.4768 31.4604C54.3387 30.9449 54.7213 29.9541 54.963 29.0278C55.3698 27.437 55.4181 25.7454 55.4261 24.1103C55.4463 21.1219 55.2328 18.1376 54.9831 15.1613L53.8635 15.5721C55.2167 17.4609 57.5526 20.7312 60.3195 19.7848C61.5439 19.3659 62.3493 18.2382 62.9293 17.1428C63.8758 15.3626 64.4356 13.369 64.931 11.4238C65.8573 7.79502 66.4735 4.08573 67.0413 0.384486L65.8613 0.477116C65.9338 4.28307 66.107 8.10514 66.6346 11.8789C66.9809 14.3678 67.4481 16.9333 68.4792 19.2411C69.1155 20.6588 70.0176 22.1006 71.4957 22.741C72.8731 23.341 74.4277 23.0229 75.7326 22.3865C78.0242 21.2669 79.8849 19.3095 81.5322 17.4086L80.4609 17.3965C80.8153 19.382 81.2664 21.4562 82.2692 23.2283C82.8773 24.2996 83.8037 25.246 85.0925 25.3588C86.5141 25.4796 87.8472 24.6701 88.8904 23.7921C90.6423 22.3181 92.0479 20.4413 93.3407 18.5685C95.6364 15.2418 97.6219 11.7097 99.5229 8.14541L98.4073 8.01653C97.054 10.5861 95.8015 13.2079 94.7543 15.9184C94.0495 17.7308 93.3971 19.6036 93.0386 21.5206C92.8856 22.3503 92.5876 23.7156 93.1836 24.4526C93.7797 25.1897 94.9235 24.6459 95.5196 24.1788C97.1869 22.8779 98.3911 20.9165 99.5269 19.1686L98.4113 19.0397C97.3762 20.6588 96.3532 22.6483 96.6432 24.6339C96.8607 26.1119 97.9642 27.1389 99.3054 27.6665C101.094 28.3633 103.156 28.3029 105.024 28.029C107.614 27.6504 110.127 26.8006 112.491 25.6931C115.737 24.1747 118.734 22.1409 121.392 19.7445L120.623 19.2209C116.333 23.1236 112.157 27.2477 108.548 31.7947C107.634 32.9465 106.603 34.179 106.027 35.5483C105.693 36.3457 105.842 37.1069 106.881 36.9499C107.509 36.8532 108.093 36.4947 108.621 36.1685C109.632 35.5523 110.578 34.8274 111.509 34.0984L110.739 33.5748C108.46 35.3912 107.606 38.287 107.453 41.1022C107.256 44.8356 108.073 48.6134 109.201 52.1495C110.53 56.326 112.399 60.3414 114.634 64.1071C116.829 67.8043 119.419 71.3283 122.528 74.3167C125.327 77.007 128.686 79.4316 132.584 80.1162L132.991 79.2785C126.076 78.0985 119.193 76.7251 112.326 75.3115C106.712 74.1516 101.073 73.0198 95.5155 71.5941C94.9074 71.437 94.3113 71.2357 93.7032 71.0746C93.5461 71.0303 93.679 71.0262 93.6387 71.0464C93.5985 71.0665 93.7072 70.6275 93.6991 71.1068C93.6991 71.4491 94.1905 70.7242 93.2964 71.7149C93.2118 71.8116 93.1877 71.6706 93.2239 71.731C93.24 71.7592 93.1917 71.723 93.3488 71.7351C93.4937 71.7472 93.6428 71.7592 93.7878 71.7753L94.1945 70.9376C92.5513 70.7886 91.3753 71.9646 90.6705 73.3219C89.6435 75.3034 89.2649 77.6434 89.0152 79.8383C88.3466 85.7668 88.7776 92.0013 90.1791 97.8008C90.8477 100.568 91.774 103.427 93.4535 105.759L94.5207 105.248C91.5686 101.232 87.3559 98.0626 83.1311 95.4971C81.1737 94.309 79.1318 93.2216 76.9972 92.3879C75.5715 91.8321 73.9323 91.2522 72.3737 91.3891C71.0084 91.5099 70.0861 92.3517 70.2835 93.7653L71.4514 93.4512C71.3628 92.8954 71.1735 92.2309 70.4123 92.6014C69.9532 92.8229 69.9452 93.3787 69.9008 93.8217C69.6793 96.0207 69.6874 98.2559 69.6552 100.467C69.5384 108.3 69.627 116.142 69.8122 123.971C69.9129 128.184 70.0418 132.401 70.2754 136.61L71.4555 136.517C71.1252 130.951 69.6592 125.24 66.6426 120.5C65.1646 118.176 62.0956 114.354 58.8938 116.001C57.0854 116.931 56.4169 119.183 56.0423 121.023L57.2224 120.931C57.5768 119.086 57.4197 117.036 55.845 115.792C54.2702 114.547 52.0149 114.515 50.134 114.728C47.343 115.046 44.6325 116.001 42.0912 117.169C39.0263 118.579 36.1305 120.383 33.4805 122.473C30.3471 124.946 27.54 127.842 25.341 131.18L26.4566 131.309C29.7671 126.251 32.973 121.1 35.8526 115.783C36.5897 114.418 37.3831 113.033 37.9187 111.571C38.0154 111.313 38.2127 110.898 38.108 110.612C37.9308 110.129 37.2663 110.294 36.9441 110.507C36.5051 110.793 36.1587 111.257 35.8325 111.655C35.0915 112.562 34.4068 113.516 33.7302 114.466L34.7048 114.801C35.897 113.105 36.8354 111.075 36.4648 108.957C36.1587 107.201 34.9304 105.787 33.4684 104.849C29.3684 102.207 23.7541 102.291 19.1628 103.286C15.7435 104.027 12.4933 105.445 9.60565 107.41L10.3749 107.934C15.9771 103.331 21.6035 98.6909 26.7667 93.5881C28.2971 92.0738 29.7994 90.5152 31.1163 88.8075C31.95 87.7281 32.7757 86.5562 33.2227 85.2593C33.5127 84.4135 33.6537 83.4751 33.3073 82.6213C33.263 82.5166 33.2147 82.4038 33.1583 82.3072C33.0818 82.1743 33.0415 82.0615 33.0777 82.2347C33.0415 82.0575 33.0495 81.8803 32.9931 81.7031C32.8764 81.3406 32.6508 81.0385 32.3649 80.7888C31.5956 80.1243 30.4921 79.8907 29.5174 79.7296C27.7856 79.4477 26.0015 79.4477 24.2495 79.4839C17.7049 79.6209 11.1603 80.4948 4.67603 81.3366C3.54834 81.4815 2.42065 81.6306 1.28893 81.7836L1.34129 82.5972C7.82954 81.2399 14.2252 79.3349 20.4677 77.1198C22.9406 76.2418 25.4094 75.3195 27.7977 74.2361C28.579 73.8817 29.3563 73.5112 30.0974 73.0762C30.5565 72.8064 31.0801 72.5124 31.4104 72.0814C32.4172 70.7604 29.602 70.8974 29.0382 70.9376L28.9294 71.7794C30.3995 71.6545 31.8655 70.9336 32.0064 69.3105C32.1595 67.5022 31.0761 65.6335 30.1578 64.1634C28.6556 61.747 26.7627 59.5641 24.7771 57.5342C22.4533 55.1621 19.928 52.9711 17.2417 51.0138C14.3379 48.8993 11.2086 47.0185 7.84162 45.7418L7.16501 46.5191C11.4261 48.114 15.8885 49.6928 20.4234 50.2929C21.3216 50.4137 22.5378 50.611 23.3836 50.1559C24.2294 49.7008 23.8589 49.0282 23.3111 48.5409C21.9055 47.2884 19.9885 46.5111 18.301 45.7378L17.6243 46.5151C19.4609 47.3407 21.6478 47.5421 23.3111 46.2211C24.9745 44.9001 25.6269 42.6366 25.9209 40.6148C26.3519 37.6708 26.1183 34.626 25.639 31.7061C25.055 28.1498 24.028 24.6621 22.6305 21.3394C21.0396 17.5536 18.9494 13.9369 16.2147 10.8599L15.1474 11.3714C20.5241 17.3764 26.2431 23.0873 32.0789 28.6412C34.5719 31.0174 37.0931 33.3654 39.6868 35.6329C41.1327 36.8975 42.6148 38.3514 44.2982 39.2979C44.7614 39.5597 45.7884 39.8295 45.9213 39.0321C46.0099 38.5125 45.3776 37.8238 45.1037 37.4493L44.0365 37.9607C44.9386 39.1811 46.1348 40.6914 47.7216 41.0095C48.809 41.227 49.8159 40.6994 50.3435 39.7409C51.0402 38.4722 50.9879 36.8451 50.8389 35.4557C50.5811 33.0956 49.7877 30.812 48.7848 28.6694C48.5472 28.1659 47.3954 28.5043 47.6169 28.9835C48.4626 30.7878 49.1473 32.6807 49.5058 34.6461C49.7555 36.0195 49.9045 37.5338 49.5178 38.8991C49.3366 39.5395 48.9782 40.349 48.1968 40.1839C46.8919 39.91 45.8408 38.44 45.1078 37.4493C44.7976 37.0304 43.6861 37.4774 44.0405 37.9607C44.2378 38.2306 44.4312 38.5045 44.5963 38.7944C44.6406 38.871 44.7453 39.1327 44.7493 39.1327C44.7493 39.1327 44.7252 39.0804 44.7695 39.0401C44.8581 38.9636 44.9144 38.8629 45.0272 38.8065C44.9346 38.8548 45.3977 38.7501 45.4139 38.734C45.43 38.7219 45.4743 38.7823 45.3454 38.7058C45.3011 38.6817 45.3051 38.6937 45.1642 38.6092C45.0514 38.5407 44.9386 38.4722 44.8299 38.3997C43.1786 37.3043 41.6844 35.9309 40.2023 34.626C34.878 29.934 29.7833 24.9762 24.7973 19.9298C21.8733 16.9696 18.9937 13.9611 16.2147 10.8599C15.8684 10.4733 14.7568 10.9364 15.1474 11.3714C19.7267 16.5185 22.6023 23.1558 24.0562 29.8414C24.6925 32.7734 25.0751 35.802 24.9221 38.8105C24.8174 40.8686 24.5153 43.2528 23.2386 44.9565C21.9619 46.6601 20.1093 46.5513 18.301 45.7378C17.8217 45.5203 16.9517 46.209 17.6243 46.5151C19.0783 47.1796 20.5684 47.8643 21.8773 48.7906C22.1754 49.0041 22.4613 49.2215 22.6748 49.5236C22.8037 49.7008 22.7875 49.4551 22.8238 49.5075C22.8238 49.5075 22.6748 49.5397 22.5781 49.5518C22.3969 49.5719 22.2116 49.5719 22.0304 49.5679C21.4786 49.5518 20.9269 49.4793 20.3791 49.3947C18.6916 49.1329 17.0323 48.7101 15.3891 48.2509C12.8357 47.53 10.3225 46.6762 7.84162 45.7458C7.3543 45.5646 6.47631 46.2614 7.16501 46.5231C12.8679 48.6859 17.9908 52.5402 22.3687 56.7287C24.3945 58.666 26.3116 60.7481 27.9628 63.0156C29.1147 64.5944 30.3068 66.3745 30.7257 68.3158C30.8586 68.936 30.9271 69.6891 30.5646 70.2489C30.2424 70.7443 29.6705 70.8893 29.0341 70.9417C28.3978 70.994 28.128 71.8438 28.9254 71.7834C29.2436 71.7592 29.5819 71.7391 29.892 71.7472C30.1296 71.7552 30.3028 71.7834 30.4236 71.8156C30.4035 71.8116 30.5243 71.8559 30.4236 71.7351C30.4357 71.7472 30.4679 71.7351 30.3995 71.7955C30.5001 71.6988 30.3189 71.8801 30.2867 71.9083C29.4127 72.6775 27.838 73.3219 26.6539 73.8414C21.6357 76.0404 16.3758 77.7441 11.124 79.2745C7.82551 80.2371 4.4948 81.107 1.12783 81.8118C0.543851 81.9326 0.491494 82.718 1.18019 82.6253C8.0591 81.699 14.9743 80.7646 21.9136 80.4102C23.8548 80.3095 25.8122 80.2491 27.7494 80.4102C28.7965 80.4948 30.0692 80.6438 30.9311 81.103C31.2815 81.2882 31.4667 81.4292 31.6681 81.7192C31.8171 81.9326 31.8171 82.275 31.8936 82.4965C32.0185 82.8589 32.2199 83.0925 32.2924 83.5275C32.3488 83.8779 32.3085 84.3048 32.2199 84.6995C31.9661 85.8232 31.3016 86.8703 30.6371 87.7966C29.5255 89.3512 28.2206 90.7729 26.8915 92.1422C22.2922 96.8665 17.1974 101.115 12.1309 105.324C11.2851 106.025 10.4393 106.726 9.58954 107.422C8.96528 107.938 9.90368 108.256 10.3588 107.946C14.8011 104.917 20.2986 103.242 25.6914 103.572C29.0664 103.778 33.8832 104.893 35.0995 108.57C35.7842 110.64 34.8981 112.779 33.71 114.479C33.2872 115.083 34.3786 115.244 34.6847 114.813C35.5506 113.601 36.4044 112.231 37.4959 111.2C37.524 111.176 37.5804 111.164 37.6046 111.104C37.6731 110.946 37.6892 111.18 37.5522 111.112C37.524 111.096 36.8515 111.059 36.932 110.971C36.9642 110.934 36.9562 110.959 36.9119 111.043C36.7669 111.333 36.6863 111.72 36.5454 112.042C34.9586 115.687 32.8119 119.134 30.766 122.534C29.01 125.453 27.1896 128.337 25.3249 131.189C25.1597 131.438 25.4698 131.64 25.6793 131.672C25.9813 131.72 26.2794 131.559 26.4405 131.317C30.0249 125.884 35.3452 121.531 41.1085 118.579C43.5371 117.334 46.1146 116.295 48.805 115.771C50.561 115.429 52.6915 115.224 54.3387 116.09C56.1954 117.068 56.3806 119.175 56.0222 121.039C55.9135 121.611 57.1016 121.458 57.2022 120.947C57.4882 119.533 57.9554 117.564 59.2925 116.742C60.2309 116.166 61.3546 116.674 62.1762 117.237C63.5979 118.208 64.6853 119.65 65.5915 121.092C66.8319 123.057 67.7703 125.208 68.4953 127.411C69.4739 130.387 70.062 133.496 70.2472 136.622C70.2835 137.226 71.4554 137.04 71.4273 136.529C71.0084 129.114 70.8795 121.68 70.803 114.253C70.7386 107.97 70.6459 101.659 70.944 95.3803C70.9802 94.6554 71.0044 93.9264 71.1212 93.2095C71.1413 93.0726 71.1333 93.0484 71.1453 93.0847C71.1856 93.1894 70.1465 93.3142 70.1586 93.2498C70.1787 93.1572 70.1586 93.2619 70.1828 93.3827C70.2069 93.5116 70.2351 93.6405 70.2553 93.7693C70.3398 94.301 71.4997 94.007 71.4232 93.4552C71.3668 93.0686 71.4031 92.6497 71.6609 92.404C71.677 92.3879 71.8139 92.3195 71.8985 92.2953C72.0757 92.2389 72.2932 92.2228 72.5429 92.2228C73.9928 92.2309 75.4789 92.8269 76.7959 93.3746C80.9361 95.0903 84.8226 97.6236 88.2661 100.475C90.163 102.046 91.9593 103.778 93.4212 105.767C93.7273 106.186 94.8389 105.739 94.4885 105.256C93.0991 103.331 92.2694 101.035 91.6371 98.7594C90.8678 95.9925 90.4047 93.137 90.1389 90.2816C89.8731 87.4301 89.8046 84.5545 89.9898 81.699C90.1389 79.3873 90.4127 76.999 91.178 74.8C91.4679 73.9703 91.8264 73.1165 92.4144 72.4479C92.6198 72.2143 92.8816 71.9969 93.0991 71.8921C93.3004 71.7955 93.5058 71.7592 93.7515 71.7834C94.3153 71.8358 94.9477 71.0262 94.1583 70.9457C93.7112 70.8974 92.9541 70.7524 92.6359 71.1753C92.2654 71.6666 92.9742 71.864 93.3206 71.9727C95.1772 72.5647 97.1104 72.9514 99.0114 73.3863C106.136 75.0094 113.301 76.4835 120.474 77.889C124.489 78.6744 128.513 79.4396 132.548 80.1283C133.116 80.225 133.736 79.4275 132.955 79.2906C129.652 78.7106 126.732 76.6889 124.288 74.4899C121.263 71.7754 118.738 68.497 116.567 65.0736C114.255 61.4288 112.326 57.5302 110.876 53.4665C109.632 49.9706 108.661 46.2614 108.577 42.5319C108.508 39.5677 108.999 36.0759 111.472 34.1065C112.093 33.6111 111.154 33.2325 110.703 33.5829C109.579 34.4649 108.242 35.5805 106.982 36.0839C106.921 36.1081 106.813 36.1081 106.76 36.1444C106.809 36.1081 106.841 36.1484 106.817 36.1323C106.845 36.1524 106.986 36.1927 106.97 36.1967C106.978 36.1967 106.954 36.1967 106.97 36.1725C107.066 35.9712 107.151 35.5644 107.292 35.2905C107.96 34.0138 108.895 32.8579 109.801 31.7423C111.247 29.9541 112.789 28.2465 114.368 26.5791C116.611 24.215 118.947 21.9395 121.36 19.7445C121.944 19.2129 121.021 18.8343 120.591 19.2209C116.563 22.8537 111.65 25.8018 106.309 26.9658C103.832 27.5054 98.8583 28.0854 97.8917 24.8151C97.3158 22.8698 98.4878 20.7474 99.4987 19.1646C99.6598 18.9108 99.3537 18.7175 99.1443 18.6813C98.8462 18.6329 98.5442 18.79 98.3831 19.0357C97.4165 20.5258 96.3976 22.0804 95.1047 23.3169C94.851 23.5585 94.3798 23.8606 94.2429 23.9532C94.118 24.0378 94.2831 23.9009 94.2992 23.9895C94.2992 23.9693 94.1824 23.8847 94.1543 23.8324C93.7636 23.0591 94.1019 21.8307 94.267 21.0494C94.6335 19.3015 95.2296 17.6059 95.878 15.9466C96.9211 13.2724 98.1575 10.6787 99.4947 8.14139C99.8008 7.56546 98.6207 7.56546 98.3791 8.01251C96.7479 11.0694 95.0524 14.098 93.1595 17.0018C91.8787 18.9672 90.5013 20.9246 88.834 22.5839C88.0083 23.4055 86.8404 24.4365 85.7127 24.5171C84.7743 24.5815 83.9889 23.8123 83.4734 22.9907C82.382 21.2508 81.9551 19.0719 81.6006 17.0824C81.5161 16.6192 80.7307 16.8407 80.5293 17.0703C79.1399 18.6692 77.6175 20.2963 75.7809 21.3877C74.7257 22.016 73.4933 22.4832 72.3052 22.0241C71.0084 21.5247 70.1868 20.1755 69.6391 18.9712C68.6845 16.8608 68.2174 14.5289 67.871 12.2494C67.2709 8.32665 67.0856 4.34348 67.0132 0.380458C67.0011 -0.231717 65.9096 -0.0343699 65.8331 0.473091C65.3579 3.58632 64.8383 6.69552 64.1416 9.76848C63.6704 11.8507 63.1428 13.953 62.305 15.9225C61.862 16.9656 61.2942 18.2423 60.2913 18.8786C60.0255 19.0478 59.7476 19.1203 59.4697 19.1001C59.0629 19.0719 58.6602 18.8947 58.2897 18.6652C56.8921 17.7992 55.845 16.3776 54.9026 15.0646C54.6086 14.6538 53.7427 14.9881 53.7829 15.4754C54.1253 19.5713 54.5804 23.8928 53.9682 27.9887C53.8353 28.8667 53.6661 29.934 53.062 30.6308C52.9533 30.7556 52.9291 30.7798 52.7801 30.8724C52.7801 30.8724 52.6432 30.9288 52.5989 30.9368C52.4216 30.9691 52.1115 30.9207 51.8054 30.808C50.6294 30.377 49.6145 29.4145 48.7285 28.5687C48.3539 28.2103 47.2504 28.6895 47.6612 29.0802H47.6934Z" fill="#F3D13B"/>
<path d="M96.1318 37.3889C96.2527 36.9499 96.3695 36.5149 96.4903 36.0759C97.5616 33.7521 97.6824 31.8431 97.6502 30.7033C97.6019 29.1124 97.2313 28.5808 96.893 28.2949C96.2124 27.7069 94.9558 27.5055 94.3437 28.0371C94.1987 28.166 94.1221 28.3029 94.0859 28.3754C93.2603 30.0106 93.957 32.5761 93.4093 32.8097C93.3166 32.8499 93.1475 32.8379 92.8334 32.5559C92.4588 32.2337 92.3219 31.9276 92.2695 31.7142C92.1527 31.2631 92.3219 30.953 92.0802 30.4939C92.0238 30.3932 91.9111 30.1797 91.7338 30.1676C91.5808 30.1596 91.46 30.3086 91.4117 30.369C91.0129 30.8523 91.3593 32.3183 91.4237 32.5841C91.6171 33.3131 91.8144 34.038 92.0077 34.767C92.2816 35.6249 92.5514 36.4827 92.8253 37.3446C92.8011 37.3446 92.781 37.3446 92.7568 37.3446C92.7568 37.3446 92.1849 46.3621 91.5043 47.1958C90.8236 48.0295 80.8557 51.6783 80.0864 51.7106C79.3172 51.7428 78.27 51.9603 78.27 51.9603C78.27 51.9603 81.2101 48.2671 81.8303 48.106C82.4505 47.9409 85.2859 46.636 86.0591 45.4599C87.36 43.4784 87.0499 40.9814 86.8324 39.7409C86.6955 38.9677 85.9262 34.6099 81.9431 32.3707C78.2298 30.2844 73.0545 30.7919 70.497 33.6957C68.5075 35.9511 68.4632 39.2335 68.435 40.9894C68.4148 42.5118 68.6242 43.7805 68.8337 44.6746C68.0362 44.5981 67.2388 44.5215 66.4414 44.445C64.6814 42.5682 62.9254 40.6954 61.1654 38.8186C62.2367 35.9229 63.312 33.0271 64.3833 30.1314L66.1957 27.8237C66.6347 27.2115 67.0696 26.5993 67.5086 25.9831C67.6617 25.7576 68.4994 24.505 68.298 23.913C68.2739 23.8405 68.2094 23.6593 68.0644 23.6109C67.8953 23.5586 67.714 23.7197 67.6254 23.7962C67.2348 24.1385 67.2871 24.4889 67.0213 24.8715C66.8965 25.0528 66.6629 25.2904 66.1957 25.4595C65.801 25.6086 65.6399 25.5643 65.5674 25.4918C65.1365 25.0769 66.687 22.9222 66.4897 21.1018C66.4816 21.0213 66.4615 20.8682 66.3689 20.695C65.9822 19.9822 64.7377 19.7325 63.892 20.0426C63.4771 20.1956 62.9415 20.5621 62.3374 22.0322C61.9064 23.0833 61.3506 24.9158 61.5359 27.4692C61.4956 27.9203 61.4513 28.3714 61.4111 28.8225C61.4111 28.8225 55.4625 37.7433 55.9216 39.3422C56.3807 40.9411 62.426 50.0593 62.426 50.0593C62.0273 53.5592 61.6285 57.059 61.2298 60.5589C60.6297 60.5871 60.0296 60.6113 59.4295 60.6395C57.0171 55.1903 54.9429 51.2877 53.9764 50.2123C53.7911 50.0069 53.332 49.5236 52.607 49.2981C52.16 49.1612 51.5881 49.1652 50.7302 49.4511C48.8091 50.0915 36.7469 55.8669 36.7469 55.8669L31.2695 50.4419L28.8208 50.4983L34.7049 62.5324C35.4943 62.4679 37.3469 62.1981 38.7243 60.7401C39.0103 60.4381 39.2358 60.128 39.4171 59.8299C40.8226 59.4191 42.2323 59.0124 43.6459 58.6056C45.8691 57.9652 48.0882 57.3329 50.2993 56.7127C50.6456 60.6153 51.7331 65.7584 54.8664 70.8209C55.4182 71.711 55.9941 72.5366 56.5781 73.2978C56.5781 73.2978 47.9472 82.6697 47.468 84.5868C46.9887 86.5038 46.8679 86.6247 46.7471 89.021C46.6262 91.4174 48.7688 106.883 48.7688 106.883L42.7921 111.438L41.4751 113.476L56.5821 108.562C56.5821 108.562 54.2099 103.049 54.3791 100.052C54.5483 97.0558 54.3026 90.4065 55.6236 88.2155C56.9446 86.0246 65.0881 80.2733 65.6923 80.2733C66.2964 80.2733 70.646 80.0357 74.2869 75.7183C77.9237 71.4008 84.6294 57.1194 86.0712 56.2898C87.5131 55.4601 94.392 52.3388 95.7533 51.928C96.2124 51.7871 96.5628 51.5857 96.8125 51.2957C97.6059 50.3775 97.3602 48.9397 97.2676 48.3839C96.9253 46.3339 96.5749 42.54 96.1479 37.3889H96.1318Z" fill="url(#paint1_radial_374_707)"/>
<path d="M96.712 37.3C96.9013 36.6073 97.1067 35.9508 97.3685 35.2863C97.6141 34.662 97.8155 34.0176 97.9605 33.3612C98.1538 32.4832 98.2505 31.581 98.2344 30.6829C98.2183 29.8855 98.1659 28.939 97.6383 28.2865C97.1107 27.6341 96.0475 27.3602 95.2138 27.4569C94.1304 27.5858 93.482 28.1778 93.2323 29.2249C93.0027 30.1835 93.0953 31.1662 93.0591 32.1408C93.055 32.2898 93.0188 32.4389 93.0148 32.5839C93.0148 32.6282 92.9664 32.6845 92.9745 32.7288L93.635 32.5234C93.5424 32.4711 93.4578 32.4107 93.3772 32.3382C92.9101 31.9435 92.8335 31.5287 92.8013 30.9487C92.7812 30.5419 92.6362 30.0345 92.2012 29.9096C91.7663 29.7848 91.1501 30.0184 90.8681 30.3808C90.3969 30.993 90.6668 32.0603 90.8319 32.7409C91.2226 34.3479 91.734 35.9226 92.2334 37.5014L93.055 37.0543H92.9866C92.8214 37.0543 92.1851 37.1711 92.169 37.4289C92.0885 38.6895 91.9878 39.9501 91.875 41.2107C91.7139 43.0069 91.6052 44.8837 91.1581 46.6357C91.1138 46.8169 91.0252 47.1029 90.9648 47.1915C90.9245 47.2519 90.993 47.1834 90.8802 47.264C90.7836 47.3324 90.9205 47.2398 90.8399 47.2922C90.7876 47.3244 90.7312 47.3566 90.6748 47.3888C90.0506 47.7432 89.378 48.0252 88.7175 48.3071C86.8407 49.1045 84.9316 49.8254 83.0105 50.5101C82.197 50.8001 81.4318 51.074 80.6263 51.3116C80.5135 51.3438 80.3967 51.376 80.2799 51.4082C80.0987 51.4606 80.2558 51.4163 80.3162 51.4123C79.6637 51.4123 78.9911 51.5411 78.3548 51.674L78.7978 51.9399C79.4543 51.1142 80.1309 50.3047 80.8317 49.5193C81.2183 49.0884 81.6775 48.7139 82.056 48.2869C82.197 48.1299 81.754 48.3715 81.9553 48.3192C82.0963 48.2829 82.2413 48.2265 82.3782 48.1742C82.7125 48.0453 83.0347 47.8923 83.3569 47.7392C84.1664 47.3485 84.9719 46.8975 85.6848 46.3417C86.3976 45.7859 86.9011 45.065 87.2112 44.187C87.763 42.6364 87.6703 40.9167 87.3602 39.3258C86.7722 36.3052 85.0243 33.5223 82.2816 32.0361C78.8985 30.2036 74.2226 30.3607 71.0892 32.6604C69.2608 34.0015 68.3425 36.0877 68.0243 38.2827C67.7062 40.4777 67.7545 42.7009 68.2418 44.8233L69.1923 44.3843C68.6285 44.332 68.0606 44.2756 67.4967 44.2232C67.1987 44.195 67.0014 44.2112 66.7758 44.0058C66.5503 43.8004 66.365 43.5708 66.1677 43.3573C65.3783 42.5156 64.5889 41.6738 63.7995 40.8321C63.4371 40.4455 63.0786 40.0629 62.7161 39.6762C62.5148 39.4587 62.3094 39.2453 62.108 39.0278C61.8341 38.7338 61.7657 38.6452 61.9107 38.2545C62.3053 37.1832 62.7041 36.1159 63.0988 35.0446C63.4934 33.9733 63.9163 32.8416 64.3231 31.7381C64.5084 31.2387 64.6614 30.7111 64.8829 30.2278C65.1326 29.68 65.628 29.2008 65.9985 28.7296C66.6671 27.8757 67.2994 27.0058 67.9277 26.1198C68.2579 25.6526 68.5801 25.1492 68.7735 24.6095C68.9547 24.106 69.003 23.361 68.2902 23.3167C67.4444 23.2683 66.9168 23.8765 66.6188 24.5773C66.5503 24.7383 66.4778 24.8914 66.357 25.0203C66.2885 25.0887 66.212 25.121 66.1435 25.1814C65.7367 25.5479 66.063 25.0646 66.0952 25.2619C66.0589 25.0605 66.0952 24.9075 66.1516 24.7061C66.365 23.9973 66.6913 23.3287 66.8846 22.6118C67.0618 21.9554 67.2712 21.017 66.8644 20.4088C66.4859 19.8409 65.7126 19.6476 65.0722 19.6194C63.6666 19.5631 62.6718 20.2477 62.0436 21.464C61.3428 22.8253 61.0045 24.3759 60.928 25.8983C60.9038 26.3453 60.9078 26.7883 60.9239 27.2313C60.932 27.5334 60.9239 27.8274 60.8957 28.1295C60.8796 28.3147 60.9159 28.6812 60.8635 28.8343C60.8232 28.9511 60.7024 29.0759 60.6339 29.1806C59.5667 30.8118 58.5316 32.4711 57.557 34.1586C56.9891 35.1453 56.4333 36.1482 55.9581 37.1832C55.6721 37.8115 55.2774 38.5727 55.3016 39.2856C55.3217 39.8414 55.7406 40.4334 55.9983 40.9006C56.5138 41.839 57.0737 42.7572 57.6335 43.6674C58.7974 45.5603 60.0016 47.4291 61.222 49.2858C61.3831 49.5314 61.5442 49.7771 61.7052 50.0228C61.8663 50.2685 61.8462 50.2161 61.7898 50.5383C61.5965 51.6459 61.5321 52.7896 61.4072 53.9053C61.2824 55.0209 61.1495 56.1526 61.0246 57.2722C60.8998 58.3919 60.7668 59.5195 60.642 60.6392L61.4596 60.2646C60.8595 60.2928 60.2594 60.317 59.6593 60.3452L60.0057 60.4781C58.6846 57.4978 57.3274 54.4933 55.664 51.6861C55.2452 50.9773 54.8102 50.204 54.1819 49.6603C53.0704 48.7018 51.697 48.8226 50.3961 49.2898C48.91 49.8214 47.4762 50.5343 46.0424 51.1908C44.0086 52.1251 41.9787 53.0756 39.9569 54.0301C38.7648 54.594 37.5767 55.1578 36.3886 55.7257L37.2867 55.6411C36.304 54.6665 35.3173 53.6918 34.3346 52.7172L32.4497 50.8524C32.1517 50.5584 31.898 50.1557 31.455 50.1476C30.6575 50.1275 29.852 50.1839 29.0546 50.204C28.9257 50.204 28.096 50.3691 28.233 50.6511C29.9527 54.167 31.6684 57.679 33.3881 61.195L34.1171 62.6851C34.1775 62.806 34.3426 62.8301 34.4635 62.818C36.6302 62.6288 38.7648 61.7185 39.9489 59.8095L39.4777 60.0633C43.1024 59.0081 46.7271 57.969 50.3599 56.942L49.7115 56.8534C50.2592 62.8825 52.3454 68.6659 56.0265 73.4989L56.0346 73.2935C54.6572 74.7917 53.304 76.3141 51.9749 77.8526C50.9439 79.0447 49.9249 80.2489 48.9543 81.4894C48.2696 82.3633 47.5245 83.2695 47.0332 84.2723C46.7593 84.8322 46.6627 85.4887 46.5177 86.0928C46.3163 86.9305 46.2398 87.7763 46.1874 88.6341C46.131 89.6168 46.2035 90.5834 46.2881 91.5621C46.5579 94.5907 46.9446 97.6113 47.3312 100.628C47.6051 102.758 47.887 104.893 48.181 107.019L48.3059 106.802C47.2426 107.612 46.1794 108.421 45.1161 109.231L43.0621 110.797C42.7802 111.011 42.4258 111.212 42.2083 111.498C41.7371 112.114 41.3545 112.819 40.9316 113.471C40.7101 113.81 41.3746 113.753 41.5357 113.705C45.9498 112.267 50.3639 110.833 54.778 109.396C55.3982 109.194 56.0185 108.993 56.6387 108.792C56.7474 108.755 57.2468 108.598 57.1582 108.393C56.7354 107.406 56.3689 106.395 56.0306 105.376C55.4748 103.697 54.9109 101.872 54.9472 100.084C54.9794 98.3967 55.0277 96.7092 55.0841 95.0217C55.1445 93.165 55.213 91.2479 55.6802 89.4396C55.8292 88.8717 56.0225 88.324 56.3809 87.8528C56.7152 87.4138 57.1139 87.0191 57.5127 86.6445C58.6806 85.541 59.9533 84.5382 61.2381 83.5716C62.398 82.6936 63.582 81.8357 64.8064 81.0504C64.9917 80.9336 65.1769 80.8168 65.3702 80.704C65.4468 80.6597 65.5193 80.6154 65.5958 80.5751C65.6884 80.5228 65.8012 80.4221 65.7247 80.5026C65.8294 80.3899 65.5716 80.6476 65.4427 80.5429C65.4629 80.559 65.5515 80.5429 65.5716 80.5429C65.769 80.5429 65.9663 80.5188 66.1596 80.4986C69.6595 80.1241 72.9016 78.1023 75.0684 75.3717C77.0016 72.935 78.4998 70.1198 80.0101 67.4134C81.609 64.5499 83.1233 61.638 84.7907 58.8147C85.2538 58.0294 85.713 57.1876 86.3211 56.507C86.3856 56.4345 86.3976 56.4265 86.3936 56.4265C86.4258 56.3942 86.5587 56.3056 86.4057 56.4063C86.5829 56.2895 86.7843 56.2009 86.9695 56.1043C87.5696 55.7982 88.1778 55.5042 88.7859 55.2182C90.3204 54.4933 91.8669 53.7925 93.4256 53.1199C94.0297 52.8581 94.6338 52.6004 95.246 52.3627C95.4393 52.2862 95.6367 52.2137 95.834 52.1453C95.6487 52.2097 96.1884 52.0285 96.2448 52.0043C96.4985 51.9036 96.7523 51.7707 96.9697 51.6056C98.4156 50.5101 97.8598 48.5648 97.6584 47.0465C97.3967 45.065 97.2194 43.0714 97.0422 41.0778C96.9295 39.793 96.8207 38.5042 96.712 37.2195C96.6878 36.9094 95.5118 37.1429 95.544 37.5336C95.7454 39.9863 95.9508 42.4391 96.2045 44.8878C96.2931 45.7456 96.3898 46.6075 96.5026 47.4613C96.5952 48.146 96.7563 48.8347 96.7684 49.5274C96.7804 49.9865 96.716 50.4739 96.5146 50.8927C96.2811 51.376 95.9226 51.5814 95.4353 51.7465C94.948 51.9117 94.4767 52.105 94.0015 52.3023C92.467 52.9387 90.9527 53.6233 89.4464 54.3161C88.2342 54.8759 86.9857 55.4156 85.8217 56.072C85.1773 56.4345 84.7907 57.087 84.4 57.6951C82.7931 60.2203 81.4237 62.9026 79.9819 65.5205C78.3588 68.4686 76.7559 71.457 74.8388 74.2279C72.9217 76.9988 70.1992 79.3548 66.7718 79.8864C66.6631 79.9026 66.5543 79.9187 66.4456 79.9307C66.4134 79.9307 66.1556 79.9589 66.2724 79.9509C66.1475 79.9589 66.0227 79.9589 65.8978 79.967C65.4911 79.9992 65.1407 80.1643 64.7903 80.3617C63.6988 80.9739 62.6718 81.7189 61.6569 82.4479C60.3238 83.4105 59.0149 84.4093 57.7624 85.4685C56.832 86.2539 55.7889 87.0916 55.1163 88.1186C54.2907 89.3752 54.1779 91.1029 54.0531 92.5569C53.892 94.4296 53.8678 96.3105 53.8316 98.1873C53.8154 98.9565 53.7631 99.7298 53.7591 100.499C53.7591 101.373 53.9161 102.251 54.1094 103.101C54.484 104.74 55.0317 106.343 55.6439 107.906C55.7486 108.171 55.8574 108.441 55.9701 108.703L56.4897 108.304C52.0756 109.742 47.6615 111.176 43.2474 112.614C42.6271 112.815 42.0069 113.016 41.3867 113.218L41.9908 113.451C42.3774 112.855 42.7641 112.255 43.1507 111.659C43.2031 111.579 43.2514 111.494 43.3078 111.417C43.2433 111.502 43.2192 111.498 43.2997 111.438C43.4689 111.309 43.638 111.18 43.8072 111.051L47.9595 107.889C48.3784 107.571 48.7932 107.253 49.212 106.935C49.2805 106.883 49.349 106.806 49.3369 106.717C48.6724 101.913 48.0239 97.0998 47.5407 92.2709C47.44 91.2479 47.3232 90.2169 47.3111 89.1899C47.2909 87.6272 47.6051 86.1451 47.9917 84.6429C48.2293 83.7206 48.914 82.9191 49.4779 82.17C50.3881 80.9618 51.3587 79.8019 52.3374 78.65C53.8879 76.8296 55.4788 75.0333 57.0978 73.2733C57.1582 73.2049 57.1582 73.1364 57.1059 73.0679C53.453 68.2793 51.411 62.516 50.8673 56.5392C50.8472 56.3217 50.3115 56.4265 50.2189 56.4506C47.1017 57.3286 43.9844 58.2187 40.8712 59.1249C40.4886 59.2376 40.1019 59.3464 39.7193 59.4591C39.4334 59.5437 39.0749 59.5961 38.8655 59.8256C38.6561 60.0552 38.507 60.3653 38.2936 60.607C38.064 60.8647 37.8103 61.0943 37.5324 61.2997C36.7752 61.8474 35.8409 62.1535 34.9307 62.23L35.277 62.3629C33.5573 58.847 31.8416 55.335 30.1219 51.819L29.3929 50.3289L28.5713 50.7759L31.02 50.7195L30.7139 50.647C32.5383 52.4554 34.3668 54.2637 36.1913 56.072C36.3967 56.2734 36.888 56.0841 37.0894 55.9875C39.8119 54.6826 42.5426 53.3938 45.2853 52.1251C46.8922 51.38 48.5032 50.6269 50.1384 49.9463C50.8834 49.6361 51.6567 49.3059 52.4461 49.6684C53.2355 50.0308 53.7872 50.8323 54.2464 51.5774C56.0467 54.4892 57.4563 57.6669 58.8417 60.7882C58.8981 60.9131 59.0673 60.9251 59.1881 60.9211C59.7882 60.8929 60.3883 60.8687 60.9884 60.8406C61.1656 60.8325 61.7777 60.7318 61.8059 60.466C62.1966 57.0306 62.6074 53.5992 62.982 50.1637C63.0222 49.8013 62.8249 49.616 62.6275 49.318C62.2892 48.8065 61.955 48.295 61.6247 47.7795C60.642 46.2692 59.6754 44.7508 58.733 43.2164C57.9919 42.0081 57.1663 40.7797 56.6145 39.4668C56.2239 38.5364 56.9609 37.3443 57.3636 36.5227C58.145 34.9238 59.0592 33.3893 59.9895 31.875C60.6058 30.8762 61.3106 29.9136 61.8905 28.8947C62.0073 28.6893 62.0154 28.4919 62.0395 28.2463C62.112 27.4609 62.0677 26.6997 62.0919 25.9144C62.1322 24.6981 62.3496 23.4818 62.7685 22.3339C63.0061 21.6855 63.4934 20.292 64.2305 20.2034C64.7621 20.143 65.4266 20.3202 65.7448 20.7793C66.1032 21.3029 65.9059 22.1447 65.7569 22.7125C65.6079 23.2804 65.3904 23.8201 65.185 24.3678C65.0682 24.6779 64.8467 25.121 64.9111 25.4633C65.1004 26.4379 67.0175 25.4109 67.3679 25.0686C67.529 24.9115 67.6498 24.7303 67.7424 24.5249C67.8109 24.3799 67.8471 24.2269 67.9237 24.0859C67.9599 24.0174 68.0163 23.957 68.0525 23.8886C68.1734 23.663 68.407 23.9087 67.831 23.8886L67.5249 23.8161C68.2257 24.2269 67.2269 25.6284 66.9248 26.0634C66.0267 27.3522 65.0642 28.5886 64.0935 29.825C63.6264 30.4211 63.4411 31.2024 63.1793 31.9072C62.9014 32.6644 62.6195 33.4175 62.3416 34.1747C61.7576 35.7494 61.1777 37.3202 60.5937 38.8949C60.5776 38.9473 60.5896 38.9875 60.6299 39.0238C61.8261 40.2964 63.0182 41.5732 64.2144 42.8458C64.5084 43.16 64.8024 43.4701 65.0924 43.7842C65.3501 44.0581 65.624 44.485 65.9421 44.6703C66.208 44.8274 66.7718 44.7831 67.0819 44.8112C67.5491 44.8555 68.0123 44.8998 68.4795 44.9441C68.6849 44.9643 69.5105 44.8555 69.4299 44.5052C69.0111 42.6646 68.9426 40.7636 69.1158 38.8909C69.289 37.0181 69.7843 35.1091 71.0449 33.6713C73.5339 30.844 78.093 30.84 81.2344 32.4791C83.9127 33.8767 85.5962 36.6113 86.1922 39.5151C86.4862 40.9489 86.603 42.4713 86.2164 43.901C85.9667 44.8193 85.5479 45.6248 84.7907 46.2168C84.1584 46.7082 83.4495 47.0988 82.7327 47.4492C82.1406 47.7352 81.7177 47.7755 81.2264 48.1178C80.735 48.4601 80.3202 48.9475 79.9215 49.3905C79.1683 50.2242 78.4515 51.086 77.7507 51.964C77.5332 52.2379 78.0568 52.258 78.1937 52.2298C78.9831 52.0647 79.7966 52.0687 80.5699 51.8593C81.2828 51.666 81.9835 51.4163 82.6803 51.1787C84.6739 50.49 86.6514 49.7449 88.6007 48.9394C89.4062 48.6051 90.2117 48.2628 90.993 47.8721C91.4038 47.6667 91.9394 47.4412 92.161 47.0102C92.4509 46.4504 92.5073 45.7215 92.5999 45.1052C92.753 44.0984 92.8617 43.0875 92.9624 42.0766C93.1195 40.4737 93.2524 38.8627 93.3531 37.2557L92.5355 37.6303H92.604C92.7691 37.6303 93.5182 37.4813 93.4256 37.1872C92.9624 35.7293 92.5194 34.2714 92.1207 32.7933C92.0119 32.3905 91.9153 31.9918 91.8669 31.581C91.8387 31.3555 91.8186 31.1299 91.8307 30.9044C91.8388 30.7916 91.8468 30.6748 91.879 30.5661C91.9636 30.2963 92.0885 30.3728 91.6615 30.4453L91.283 30.4251C91.6213 30.5218 91.6535 31.0494 91.6575 31.3353C91.6656 31.6978 91.7058 31.9999 91.9032 32.306C92.2576 32.8618 92.8094 33.2363 93.4739 33.0551C94.6056 32.749 94.227 31.2427 94.2593 30.3567C94.2794 29.6801 94.3318 28.79 94.7345 28.2141C95.105 27.6905 96.1079 28.2382 96.4502 28.5765C97.2275 29.3458 97.1389 30.8561 97.0704 31.8629C96.9295 33.8404 96.0877 35.5803 95.5762 37.4692C95.4836 37.8155 96.6395 37.6464 96.7361 37.296L96.712 37.3Z" fill="#040000"/>
<path d="M39.4977 58.1867C40.5409 57.5947 41.741 56.9986 43.0983 56.4469C44.7496 55.7743 46.2921 55.3111 47.6574 54.9889C48.0964 55.0171 48.5354 55.0453 48.9784 55.0735C49.2644 54.6144 49.5503 54.1593 49.8363 53.7001C49.4979 53.6276 49.1113 53.4867 49.0308 53.1806C48.9422 52.8302 49.3368 52.5362 49.2563 52.2502C49.1959 52.0368 48.8616 51.8274 47.6896 51.8515C47.3876 52.2019 47.0855 52.5483 46.7875 52.8987C45.3577 53.6437 43.8192 54.3808 42.168 55.0977C41.0242 55.593 39.9085 56.0441 38.8252 56.4509C38.5634 56.1206 37.9874 56.0441 37.484 56.2455C36.892 56.4831 36.5053 57.055 36.6987 57.5061C36.9443 57.6631 37.19 57.8243 37.4357 57.9813C37.3672 58.2673 37.2988 58.5492 37.2303 58.8351C37.7096 58.956 38.1888 59.0808 38.6681 59.2016L39.5018 58.1827L39.4977 58.1867Z" fill="white"/>
<path d="M39.5905 58.2307C41.0243 57.4252 42.5185 56.7244 44.065 56.1525C44.8383 55.8665 45.6277 55.6088 46.4211 55.3873C46.7795 55.2866 47.1581 55.1497 47.5286 55.0973C47.9797 55.0329 48.4751 55.1255 48.9262 55.1537C48.9906 55.1577 49.0832 55.1295 49.1195 55.0731C49.4054 54.614 49.6914 54.1589 49.9773 53.6998C50.0055 53.6555 49.9733 53.6232 49.929 53.6112C49.5746 53.5266 49.0873 53.3655 49.192 52.9064C49.2363 52.709 49.4175 52.5358 49.4175 52.3264C49.4175 52.117 49.2685 51.9921 49.0832 51.9116C48.7248 51.7545 48.2254 51.7344 47.8428 51.7585C47.3595 51.7908 47.1178 52.3989 46.7997 52.7171C46.3285 53.1842 45.5189 53.446 44.9269 53.736C44.2342 54.0703 43.5374 54.3965 42.8366 54.7107C41.4995 55.3108 40.1423 55.8665 38.7689 56.3861H38.9622C38.3984 55.8021 37.3673 56.0317 36.8438 56.5673C36.6384 56.7767 36.3806 57.1876 36.5377 57.4896C36.6303 57.6749 36.8679 57.7313 37.029 57.8601C37.3633 58.134 37.1821 58.4643 37.0894 58.8509C37.0814 58.8871 37.1176 58.9073 37.1458 58.9153C37.6251 59.0362 38.1044 59.161 38.5836 59.2818C38.6602 59.302 38.7608 59.2657 38.8092 59.2053L39.6429 58.1864C39.7274 58.0857 39.4334 58.1018 39.369 58.1783L38.5353 59.1973L38.7608 59.1207C38.4145 59.0321 38.0117 58.9838 37.6815 58.8428C37.4439 58.7422 37.4439 58.7542 37.46 58.4723C37.4721 58.3072 37.5446 58.1219 37.5848 57.9608C37.5929 57.9367 37.5727 57.9165 37.5526 57.9044C37.1378 57.6386 36.59 57.4211 36.9002 56.8492C37.2304 56.2371 38.1809 55.9713 38.6884 56.5029C38.7367 56.5512 38.8293 56.527 38.8817 56.5069C40.3154 55.9632 41.7291 55.3792 43.1266 54.7509C43.7952 54.4489 44.4597 54.1388 45.1202 53.8166C45.4545 53.6555 45.7847 53.4903 46.115 53.3252C46.3526 53.2044 46.6748 53.0956 46.8842 52.9265C47.138 52.7251 47.3152 52.3989 47.5448 52.1693C47.722 51.9921 47.7582 51.9518 47.9878 51.9317C48.1529 51.9156 48.3462 51.9478 48.5073 51.972C48.6684 51.9962 48.906 52.0284 49.0269 52.1613C49.2081 52.3627 49.0228 52.5882 48.9423 52.7936C48.7892 53.1963 48.9463 53.4742 49.3329 53.6474C49.627 53.7803 49.6632 53.736 49.4578 54.0663C49.2524 54.3965 49.047 54.7268 48.8416 55.057L49.0349 54.9765C48.5959 54.9483 48.1167 54.8637 47.6777 54.8919C47.3595 54.912 47.0131 55.053 46.703 55.1376C45.8613 55.3631 45.0316 55.6249 44.214 55.9229C42.5507 56.523 40.9478 57.2641 39.4093 58.13C39.2401 58.2266 39.4938 58.279 39.5905 58.2226V58.2307Z" fill="#EDEDEC"/>
<path d="M70.5455 46.5755V45.8667H71.2745V46.5755L72.2733 47.1716L72.4948 46.5191L73.5379 46.8252L73.0828 47.4898L74.6535 48.106L74.9314 47.3649L75.8416 47.6227L75.5194 48.4L77.5452 48.5611C77.2351 48.847 76.925 49.1289 76.6149 49.4149C76.5021 49.4995 76.3088 49.6243 76.0349 49.7008C75.7852 49.7733 75.5275 49.7935 75.2174 49.7613C73.844 49.6364 72.5512 48.9638 72.5512 48.9638C72.0075 48.6819 71.1939 48.1865 70.4126 47.381C70.4569 47.1112 70.5012 46.8413 70.5415 46.5715L70.5455 46.5755Z" fill="white"/>
<path d="M70.6942 46.5632V45.8543L70.5331 45.9711H71.2621L71.1292 45.8785C71.1292 46.1161 71.0325 46.531 71.2178 46.6921C71.4836 46.9176 71.8622 47.0747 72.1642 47.2559C72.2367 47.2962 72.3857 47.2801 72.418 47.1874L72.6395 46.535L72.4139 46.6155L73.457 46.9216L73.4208 46.7807L72.9657 47.4452C72.9294 47.5016 72.9335 47.558 73.0019 47.5862C73.5255 47.7916 74.0491 47.997 74.5726 48.2024C74.6411 48.2306 74.766 48.1983 74.7982 48.1218L75.0761 47.3808L74.8505 47.4613L75.7608 47.7191L75.7044 47.6063L75.3822 48.3836C75.354 48.448 75.4063 48.5004 75.4708 48.5044C76.1474 48.5568 76.82 48.6132 77.4966 48.6655L77.4523 48.4964C77.1301 48.7904 76.82 49.1367 76.4656 49.3905C76.0789 49.6643 75.6037 49.7006 75.1446 49.6482C74.4277 49.5677 73.7229 49.3462 73.0583 49.0642C72.6838 48.9072 72.3293 48.7139 71.987 48.4923C71.6729 48.291 71.3748 48.0695 71.0929 47.8278C70.9238 47.6828 70.6861 47.5378 70.6137 47.3244C70.5412 47.1109 70.658 46.7726 70.6942 46.5632C70.7184 46.4182 70.4203 46.4544 70.4002 46.5873C70.3801 46.7203 70.3559 46.8572 70.3358 46.9901C70.3196 47.0868 70.2431 47.2962 70.2713 47.3928C70.3116 47.5298 70.4848 47.6466 70.5895 47.7432C70.9278 48.0614 71.2943 48.3473 71.6809 48.6011C72.0998 48.8749 72.5388 49.1085 72.9979 49.2978C73.7631 49.612 74.625 49.8818 75.4587 49.8778C76.4253 49.8738 76.977 49.2334 77.6416 48.6212C77.71 48.5568 77.706 48.4601 77.5973 48.4521C76.9207 48.3997 76.2481 48.3433 75.5715 48.291L75.6601 48.4118L75.9823 47.6345C76.0024 47.5862 75.9823 47.5338 75.9259 47.5217L75.0157 47.264C74.9432 47.2438 74.8224 47.264 74.7901 47.3445L74.5122 48.0856L74.7378 48.005C74.2142 47.7996 73.6906 47.5942 73.1671 47.3888L73.2033 47.5298L73.6584 46.8652C73.6947 46.8129 73.6947 46.7484 73.6222 46.7243L72.5791 46.4182C72.5106 46.3981 72.3817 46.4182 72.3535 46.4987L72.132 47.1512L72.3857 47.0827C72.0958 46.9095 71.8138 46.7082 71.5118 46.5632C71.4755 46.5471 71.4191 46.5189 71.3909 46.4907C71.4634 46.5712 71.4232 46.4826 71.4232 46.3779V45.8543C71.4232 45.7778 71.3507 45.7617 71.2903 45.7617H70.5613C70.5049 45.7617 70.4002 45.81 70.4002 45.8785V46.5873C70.4002 46.7404 70.6942 46.6961 70.6942 46.5632Z" fill="#EDEDEC"/>
<path d="M78.8742 34.4489C78.1613 34.2394 75.9704 33.587 73.7834 34.763C73.3847 34.9765 71.9026 35.8061 71.1575 37.6427C70.2795 39.8215 71.1092 41.7708 71.2703 42.1333C71.4838 42.2541 71.7012 42.3749 71.9147 42.4957C71.8865 42.9106 71.8543 43.3214 71.8261 43.7362C72.2168 43.857 72.6074 43.9738 72.9981 44.0947C73.1068 43.7322 73.2156 43.3657 73.3283 43.0032L74.4882 43.5066L74.3352 44.7149L75.2454 45.021C75.33 44.6504 75.4105 44.2759 75.4951 43.9054C75.7005 43.9698 75.9099 44.0383 76.1153 44.1027L76.1637 45.3955C76.5302 45.5043 76.8926 45.613 77.2591 45.7258V44.5175L78.4674 44.5699C78.3264 45.0049 78.1895 45.4358 78.0485 45.8708C78.4835 45.8869 78.9185 45.907 79.3534 45.9231C79.5145 45.5969 79.6716 45.2747 79.8327 44.9485C80.0743 44.9364 82.3297 44.7713 83.4937 42.8985C84.5609 41.1828 83.9085 39.3261 83.683 38.6898C82.6116 35.645 79.434 34.6221 78.8701 34.4529L78.8742 34.4489ZM74.7541 40.5142C73.9808 40.917 72.7162 40.7116 72.2047 39.7289C71.9389 39.2134 71.8301 38.3958 72.2288 37.8521C72.7887 37.0869 74.0613 37.2439 74.7541 37.8843C75.2656 38.3595 75.6522 39.2778 75.3461 39.9423C75.185 40.2927 74.8829 40.4498 74.7541 40.5183V40.5142ZM78.9708 42.5763C78.7292 42.5562 77.6981 42.4796 77.1705 41.6178C77.094 41.4929 76.7195 40.8848 76.9289 40.3411C77.2914 39.3946 79.3011 38.9475 80.2918 39.8578C80.8476 40.3692 81.1658 41.3882 80.7187 42.0286C80.2596 42.685 79.2809 42.6005 78.9748 42.5723L78.9708 42.5763Z" fill="white"/>
<path d="M78.9627 34.3642C77.0496 33.8003 75.0077 33.8487 73.2839 34.9522C71.3427 36.1967 70.3157 38.4601 70.6983 40.7437C70.7708 41.1666 70.8634 41.674 71.0729 42.0526C71.1937 42.2701 71.3628 42.2741 71.5602 42.4352C71.8945 42.7091 71.7132 43.3535 71.681 43.7522C71.681 43.7925 71.7052 43.8086 71.7414 43.8207C72.1321 43.9415 72.5228 44.0583 72.9134 44.1791C72.9899 44.2033 73.1228 44.163 73.147 44.0784C73.2558 43.716 73.3645 43.3495 73.4773 42.987L73.2155 43.0796L73.7511 43.3132C73.8679 43.3616 74.3391 43.5267 74.3553 43.5589C74.3633 43.571 74.2828 44.0301 74.2707 44.1308L74.1942 44.7349C74.1901 44.7752 74.2183 44.7913 74.2546 44.8034L75.1648 45.1095C75.2373 45.1336 75.3823 45.0934 75.3984 45.0088C75.4829 44.6383 75.5635 44.2637 75.6481 43.8932L75.4145 43.9939C75.777 44.1107 75.9421 44.1107 75.9904 44.5134C76.0267 44.8155 76.0146 45.1296 76.0266 45.4357C76.0266 45.4599 76.0669 45.476 76.083 45.48C76.4495 45.5887 76.812 45.6975 77.1785 45.8103C77.2389 45.8264 77.4121 45.7941 77.4121 45.7096V44.5013L77.2107 44.606L78.419 44.6584L78.3263 44.5859C78.1854 45.0209 78.0484 45.4518 77.9075 45.8868C77.8914 45.9351 77.9639 45.9593 78.0001 45.9593C78.4351 45.9754 78.87 45.9955 79.305 46.0116C79.3654 46.0116 79.4661 45.9915 79.4983 45.9311C79.603 45.7216 79.74 45.5001 79.8165 45.2827C79.8487 45.1941 79.8729 45.045 79.8809 45.037C79.9494 44.9846 80.2072 45.0007 80.2958 44.9846C80.7186 44.9121 81.1375 44.7953 81.5362 44.6342C82.7364 44.1389 83.7111 43.1843 84.0776 41.9197C84.7864 39.4791 83.2801 36.833 81.2986 35.4879C80.5857 35.0046 79.7923 34.626 78.9627 34.3763C78.862 34.3441 78.6203 34.4971 78.7855 34.5454C80.324 35.0046 81.794 35.9309 82.7485 37.2358C84.2105 39.2294 84.5528 42.407 82.3216 43.9979C81.6127 44.5054 80.7267 44.8114 79.8527 44.8638C79.8044 44.8638 79.7239 44.896 79.6997 44.9443C79.5386 45.2706 79.3815 45.5928 79.2204 45.919L79.4138 45.8384C78.9788 45.8223 78.5438 45.8022 78.1088 45.7861L78.2015 45.8586C78.3424 45.4236 78.4794 44.9927 78.6203 44.5577C78.6364 44.5094 78.564 44.4852 78.5277 44.4852L77.3195 44.4329C77.2671 44.4329 77.1181 44.461 77.1181 44.5376V45.7458L77.3517 45.6451C77.0456 45.5525 76.4294 45.5082 76.3086 45.1779C76.2039 44.888 76.2764 44.3845 76.2643 44.0704C76.2643 44.0462 76.224 44.0301 76.2079 44.0261C76.0025 43.9616 75.7931 43.8932 75.5877 43.8287C75.5152 43.8046 75.3702 43.8448 75.3541 43.9294C75.2695 44.3 75.1889 44.6745 75.1044 45.045L75.338 44.9443C75.1728 44.888 74.5325 44.7551 74.4922 44.6705C74.46 44.602 74.5325 44.3604 74.5405 44.2919L74.6412 43.4985C74.6412 43.4743 74.6332 43.4502 74.609 43.4381L73.4491 42.9346C73.3685 42.8984 73.2155 42.9306 73.1873 43.0273C73.0785 43.3897 72.9698 43.7562 72.857 44.1187L73.0906 44.018C72.8248 43.9375 72.1844 43.8489 72.0395 43.6314C71.8945 43.4139 72.0475 42.7494 72.0676 42.4916C72.0676 42.4634 72.0596 42.4473 72.0354 42.4312C71.7737 42.2862 71.4837 42.1936 71.3467 41.9278C71.2742 41.7868 71.2299 41.6177 71.1816 41.4646C71.0044 40.8927 70.9077 40.2886 70.9118 39.6885C70.9118 38.2265 71.5078 36.8129 72.551 35.7939C74.2344 34.1467 76.5986 33.893 78.7895 34.5414C78.8902 34.5736 79.1318 34.4206 78.9667 34.3722L78.9627 34.3642Z" fill="#EDEDEC"/>
<path d="M74.6935 40.4457C74.1618 40.7156 73.5013 40.6592 72.9979 40.3611C72.3938 40.0067 72.0756 39.2898 72.1199 38.5971C72.1441 38.2548 72.2649 37.9084 72.5307 37.6789C72.7683 37.4775 73.0825 37.409 73.3886 37.4251C74.0612 37.4573 74.6613 37.844 75.0036 38.4159C75.209 38.7582 75.3459 39.1811 75.3016 39.5838C75.2573 39.9866 75.0358 40.2685 74.6935 40.4457C74.5163 40.5384 74.6774 40.6511 74.8143 40.5827C75.1365 40.4135 75.4104 40.1799 75.5352 39.8255C75.6721 39.4389 75.5956 38.9999 75.4426 38.6293C75.1325 37.8923 74.4921 37.3808 73.6987 37.268C72.9617 37.1633 72.1683 37.4573 71.9105 38.2105C71.6527 38.9636 71.9427 39.8899 72.5589 40.3692C73.1751 40.8485 74.1095 40.9411 74.8183 40.5827C74.9955 40.49 74.8344 40.3773 74.6975 40.4457H74.6935Z" fill="#EDEDEC"/>
<path d="M79.0234 42.4873C78.4192 42.4349 77.8192 42.2255 77.4285 41.7382C77.211 41.4643 77.0419 41.1099 77.0137 40.7555C76.9855 40.4011 77.1627 40.0748 77.4486 39.8614C78.0125 39.4425 78.8341 39.3459 79.4946 39.5513C80.2759 39.7929 80.8357 40.6145 80.7753 41.4321C80.7391 41.9033 80.4572 42.2819 80.002 42.4229C79.6839 42.5195 79.3496 42.5115 79.0234 42.4833C78.9025 42.4712 78.7173 42.6444 78.9146 42.6645C79.6436 42.7289 80.578 42.6283 80.9404 41.8872C81.3472 41.0535 80.8156 39.9339 80.0343 39.5311C79.3053 39.1526 78.3427 39.2049 77.6138 39.5593C77.3036 39.7083 76.9935 39.9299 76.8284 40.244C76.6149 40.6629 76.7358 41.1421 76.9452 41.5328C77.3439 42.2738 78.1051 42.596 78.9106 42.6645C79.0314 42.6766 79.2167 42.5034 79.0193 42.4833L79.0234 42.4873Z" fill="#EDEDEC"/>
<path d="M91.9798 48.8025C91.1622 49.3663 90.2077 49.9221 89.1122 50.4095C87.7751 51.0015 86.5024 51.364 85.3586 51.5895C84.968 51.509 84.5773 51.4324 84.1907 51.3519C84.0135 51.8432 83.8403 52.3346 83.6631 52.8259C83.9692 52.9468 84.3357 53.1481 84.4525 53.5026C84.5894 53.9134 84.2914 54.2074 84.4082 54.5416C84.4968 54.7954 84.823 55.0652 85.846 55.1659C86.0514 54.7994 86.2608 54.4329 86.4662 54.0664C87.5979 53.3697 88.8263 52.689 90.1513 52.0446C91.0736 51.5976 91.9758 51.2029 92.8538 50.8525C93.1357 51.2593 93.6512 51.4042 94.062 51.2311C94.5413 51.0257 94.7869 50.4095 94.5453 49.8778C94.3037 49.6684 94.062 49.463 93.8204 49.2536C93.8324 48.9354 93.8485 48.6172 93.8606 48.2991C93.4216 48.1058 92.9826 47.9165 92.5396 47.7231L91.9758 48.7985L91.9798 48.8025Z" fill="white"/>
<path d="M91.887 48.7621C90.7754 49.5233 89.5873 50.1596 88.3308 50.651C87.6703 50.9087 86.9896 51.1262 86.3009 51.2994C86.0472 51.3638 85.7572 51.4685 85.4954 51.4846C85.1048 51.5088 84.6577 51.3477 84.2791 51.2712C84.2066 51.2551 84.0737 51.2873 84.0455 51.3679C83.8683 51.8592 83.6952 52.3506 83.5179 52.8419C83.5099 52.862 83.53 52.8862 83.5461 52.8943C84.0053 53.0876 84.404 53.3896 84.3194 53.9414C84.2791 54.1992 84.1664 54.4368 84.3114 54.6825C84.5731 55.1255 85.3061 55.1899 85.7532 55.2423C85.8217 55.2503 85.9385 55.2342 85.9787 55.1658C86.1398 54.8798 86.2848 54.5737 86.466 54.3039C86.6755 53.9897 86.9856 53.8407 87.3038 53.6555C87.8797 53.3171 88.4637 52.9949 89.0517 52.6848C90.3042 52.0284 91.593 51.4403 92.906 50.9128H92.7127C93.1557 51.4645 93.9934 51.5612 94.4928 51.0215C94.7385 50.7557 94.8553 50.3247 94.7344 49.9743C94.6458 49.7287 94.4163 49.632 94.2391 49.4468C93.9008 49.0923 93.9813 48.746 94.0014 48.2828C94.0014 48.2587 93.9974 48.2425 93.9733 48.2305C93.5343 48.0371 93.0953 47.8479 92.6522 47.6545C92.5838 47.6263 92.4388 47.6505 92.3985 47.723L91.8347 48.7983C91.7702 48.9192 92.0642 48.8869 92.1045 48.8024L92.6684 47.727L92.4146 47.7955C92.7408 47.9365 93.5947 48.1338 93.6954 48.5084C93.792 48.8628 93.5101 49.1568 93.8162 49.4347C94.1907 49.769 94.5854 50.0106 94.4525 50.5704C94.2713 51.3517 93.4175 51.3477 92.9744 50.8C92.9342 50.7517 92.8254 50.7798 92.7811 50.8C91.4158 51.3477 90.0787 51.9599 88.7778 52.6486C88.1375 52.9869 87.5051 53.3413 86.8809 53.7118C86.6594 53.8447 86.4218 53.9454 86.2687 54.1468C86.0391 54.4408 85.874 54.8436 85.6928 55.1658L85.9183 55.0892C85.5156 55.0449 84.9759 55.0047 84.6698 54.6986C84.3879 54.4166 84.6013 54.0864 84.6134 53.7521C84.6255 53.3856 84.412 53.1158 84.114 52.9305C83.9771 52.8419 83.9126 52.858 83.8683 52.713C83.8281 52.5801 83.9489 52.3707 83.9892 52.2539C84.0979 51.9478 84.2066 51.6377 84.3194 51.3316L84.0858 51.4283C84.4563 51.5048 84.9074 51.6659 85.286 51.6699C85.5156 51.6699 85.7733 51.5733 85.9989 51.5249C86.7037 51.3598 87.3964 51.1544 88.077 50.9047C89.4866 50.3892 90.8157 49.6924 92.0562 48.8467C92.2173 48.7339 91.9676 48.7017 91.8749 48.7621H91.887Z" fill="#EDEDEC"/>
<path d="M51.8379 54.9122C52.4823 55.8627 53.1186 56.9662 53.6744 58.2389C54.347 59.7894 54.7578 61.2635 55.0115 62.5885C54.9189 63.0396 54.8222 63.4867 54.7296 63.9377C55.2975 64.1431 55.8653 64.3485 56.4332 64.558C56.5742 64.2035 56.8118 63.7847 57.2226 63.6518C57.6978 63.4987 58.0361 63.8451 58.4228 63.7122C58.7168 63.6115 59.0309 63.237 59.1558 62.0569C58.7329 61.8153 58.31 61.5736 57.8912 61.332C57.0937 60.019 56.3164 58.5973 55.5834 57.0588C55.076 55.9915 54.6249 54.9444 54.2262 53.9255C54.6974 53.6033 54.8706 53.0072 54.6692 52.532C54.4356 51.9762 53.7268 51.6902 53.1065 51.9641C52.8649 52.242 52.6232 52.5199 52.3816 52.7978C52.0151 52.7816 51.6486 52.7615 51.2781 52.7454C51.0525 53.2529 50.831 53.7603 50.6055 54.2638L51.8419 54.9202L51.8379 54.9122Z" fill="white"/>
<path d="M51.7009 54.9729C52.603 56.31 53.3521 57.7398 53.916 59.2501C54.1858 59.967 54.4114 60.7 54.6007 61.445C54.6812 61.7713 54.802 62.1337 54.8302 62.4721C54.8705 62.9433 54.6732 63.495 54.5765 63.9501C54.5684 63.9904 54.6047 64.0146 54.6369 64.0267C55.2048 64.2321 55.7727 64.4375 56.3405 64.6469C56.405 64.6711 56.5338 64.6388 56.5661 64.5663C56.6667 64.3247 56.8198 63.9622 57.0614 63.8333C57.3756 63.6642 57.73 63.785 58.0482 63.8253C58.2616 63.8494 58.4711 63.8172 58.6483 63.6964C59.1477 63.3581 59.2322 62.5768 59.2967 62.0411C59.2967 62.0129 59.2886 61.9928 59.2645 61.9767C58.9262 61.7834 58.5597 61.6061 58.2375 61.3887C57.8951 61.1551 57.7219 60.7725 57.5165 60.4221C57.1017 59.7052 56.703 58.9762 56.3244 58.2352C55.97 57.5424 55.6317 56.8417 55.3135 56.1328C55.1564 55.7865 55.0034 55.4361 54.8544 55.0857C54.7376 54.8118 54.3912 54.2601 54.4275 53.9741C54.4516 53.8049 54.6691 53.6479 54.7537 53.4747C54.8504 53.2854 54.8987 53.076 54.8906 52.8625C54.8705 52.4034 54.5644 52.0208 54.1415 51.8556C53.8274 51.7308 53.3401 51.6946 53.042 51.8879C52.8205 52.0288 52.6876 52.3027 52.5024 52.4839C52.301 52.6773 52.2567 52.6934 51.9748 52.6773C51.7613 52.6652 51.5478 52.6571 51.3304 52.645C51.2699 52.645 51.1693 52.6652 51.1411 52.7296C50.9155 53.2371 50.694 53.7445 50.4685 54.248C50.4524 54.2802 50.4564 54.3164 50.4926 54.3366L51.7291 54.993C51.8257 55.0454 52.0915 54.9085 51.9586 54.836C51.6405 54.6668 50.7987 54.405 50.8551 54.0144C50.8833 53.8251 51.0404 53.5955 51.1169 53.4223C51.2176 53.1968 51.3183 52.9713 51.4149 52.7457L51.2256 52.8303C51.5519 52.8464 52.0996 52.9833 52.4057 52.8786C52.6755 52.786 52.8407 52.3873 53.0461 52.202C53.5294 51.759 54.2704 51.9845 54.5241 52.5645C54.7295 53.0397 54.5241 53.5593 54.1335 53.8654C54.1093 53.8855 54.065 53.9217 54.0811 53.962C54.6047 55.2951 55.1846 56.604 55.821 57.8848C56.119 58.4849 56.4332 59.0809 56.7554 59.6649C56.9044 59.9347 57.0534 60.2006 57.2064 60.4623C57.3595 60.7241 57.5286 61.1752 57.7542 61.3887C57.9394 61.5659 58.2657 61.6867 58.4872 61.8156C58.8537 62.025 59.0228 62.1257 58.9342 62.5687C58.8698 62.8909 58.761 63.4709 58.4066 63.6159C58.0522 63.7608 57.577 63.4266 57.1581 63.5756C56.7151 63.7326 56.4654 64.1354 56.2922 64.5462L56.5177 64.4656C56.264 64.373 56.0143 64.2844 55.7606 64.1918C55.5713 64.1233 55.1444 64.0548 55.0034 63.9179C54.7376 63.6521 55.1564 62.8829 55.1564 62.5486C55.1564 62.1458 54.9752 61.6746 54.8745 61.288C54.7537 60.8087 54.6127 60.3335 54.4557 59.8663C53.8636 58.0902 53.0179 56.4067 51.9707 54.8521C51.9063 54.7554 51.6244 54.8601 51.7009 54.9729Z" fill="#EDEDEC"/>
<path d="M54.2906 84.6914C54.927 83.7369 55.7083 82.726 56.6749 81.7353C57.8549 80.5271 59.0632 79.5887 60.1949 78.8557C60.646 78.7711 61.1011 78.6905 61.5522 78.606C61.528 78.0018 61.5038 77.3977 61.4797 76.7976C61.097 76.8016 60.6218 76.7412 60.3399 76.411C60.0177 76.0284 60.211 75.5854 59.9412 75.2793C59.7358 75.0457 59.2686 74.8967 58.1328 75.2269C58.0684 75.7102 58.004 76.1895 57.9395 76.6728C57.0253 77.9052 56.0023 79.1658 54.8585 80.4264C54.0611 81.3003 53.2636 82.1139 52.4702 82.867C51.9909 82.5529 51.3747 82.6173 51.0123 82.9838C50.5854 83.4107 50.5894 84.1759 51.0767 84.6472C51.4231 84.7639 51.7735 84.8848 52.1198 85.0016C52.2406 85.3479 52.3655 85.6943 52.4863 86.0407C53.0421 86.0568 53.5939 86.0729 54.1497 86.089L54.2906 84.6955V84.6914Z" fill="white"/>
<path d="M54.4153 84.7354C55.3255 83.3741 56.3847 82.1136 57.593 81.01C58.1568 80.4945 58.7489 80.0112 59.3651 79.5601C59.6188 79.3749 59.8806 79.1493 60.1625 79.0084C60.5652 78.807 61.1452 78.7869 61.5802 78.7103C61.6245 78.7023 61.701 78.6499 61.701 78.5935C61.6768 77.9894 61.6527 77.3853 61.6285 76.7852C61.6285 76.7087 61.56 76.6845 61.4916 76.6845C61.1653 76.6845 60.827 76.6402 60.5693 76.4227C60.3276 76.2214 60.3075 75.9878 60.2592 75.7099C60.2108 75.432 60.1424 75.2145 59.9007 75.0655C59.3892 74.7513 58.628 74.9729 58.1045 75.1178C58.0521 75.1339 57.9917 75.1742 57.9836 75.2346C57.9313 75.6213 57.9071 76.028 57.8266 76.4107C57.746 76.7933 57.4601 77.0993 57.2225 77.4135C56.7472 78.0257 56.2599 78.6298 55.7565 79.2178C54.6892 80.4703 53.5575 81.6625 52.3694 82.7982L52.5788 82.7821C51.8458 82.3633 50.8027 82.5807 50.5852 83.4909C50.4926 83.8776 50.5932 84.4777 50.9517 84.7233C51.1853 84.8804 51.5236 84.8885 51.7733 85.0173C52.1317 85.2026 52.2123 85.7221 52.3371 86.0846C52.3573 86.145 52.4177 86.1571 52.47 86.1571C53.0258 86.1732 53.5776 86.1893 54.1334 86.2055C54.1978 86.2055 54.2864 86.1531 54.2945 86.0846L54.4354 84.6911C54.4516 84.5341 54.1535 84.5703 54.1374 84.7113L53.9965 86.1048L54.1576 85.9839C53.6018 85.9678 53.05 85.9517 52.4942 85.9356L52.6271 86.0081C52.5466 85.7785 52.466 85.545 52.3814 85.3154C52.3532 85.2429 52.3089 85.0093 52.2445 84.9408C52.0713 84.7475 51.5518 84.7153 51.3222 84.6065C50.2106 84.087 51.1249 82.2626 52.3452 82.9593C52.4056 82.9956 52.5023 82.9956 52.5546 82.9432C53.783 81.7712 54.951 80.5388 56.0505 79.242C56.5901 78.6056 57.1137 77.9572 57.6171 77.2927C57.8145 77.0309 58.0481 76.8134 58.0964 76.4831C58.1568 76.0603 58.2092 75.6374 58.2656 75.2185L58.1447 75.3353C58.5555 75.2226 59.0429 75.0735 59.4738 75.1823C59.9047 75.291 59.9047 75.6293 59.9813 75.9958C60.1303 76.7208 60.7908 76.9101 61.4513 76.9181L61.3144 76.8174C61.3385 77.4216 61.3627 78.0257 61.3869 78.6258L61.5077 78.509C61.0848 78.5855 60.5451 78.5935 60.1504 78.7587C59.8927 78.8674 59.651 79.0768 59.4214 79.2379C58.7328 79.7212 58.0722 80.2488 57.452 80.8167C56.1954 81.9565 55.0959 83.2493 54.1535 84.6549C54.0488 84.8119 54.3227 84.8683 54.3992 84.7475L54.4153 84.7354Z" fill="#EDEDEC"/>
<path d="M52.6676 102.175C52.4381 100.829 52.2689 99.3111 52.2327 97.6518C52.1884 95.626 52.3495 93.8056 52.5992 92.2228C52.8408 91.7677 53.0825 91.3126 53.3281 90.8575C52.9012 90.3702 52.4783 89.8828 52.0514 89.3955C51.8017 89.7258 51.4433 90.0802 51.0365 90.0399C50.5653 89.9956 50.3921 89.4559 50.0014 89.4277C49.7074 89.4076 49.2966 89.6774 48.769 90.93C49.055 91.3891 49.3409 91.8523 49.6229 92.3114C49.8565 94.1318 50.0377 96.061 50.1384 98.1029C50.2068 99.5165 50.231 100.882 50.223 102.195C49.6954 102.34 49.3289 102.92 49.3369 103.536C49.345 104.261 49.8645 104.901 50.5089 104.877C50.819 104.68 51.1291 104.482 51.4393 104.285C51.7574 104.474 52.0716 104.66 52.3897 104.849C52.7683 104.39 53.1429 103.931 53.5215 103.472L52.6676 102.179V102.175Z" fill="white"/>
<path d="M52.8164 102.134C52.4942 100.229 52.3452 98.296 52.3814 96.3628C52.4016 95.3962 52.466 94.4296 52.5747 93.4711C52.6231 93.0683 52.6231 92.5891 52.7479 92.1984C52.8969 91.7353 53.2473 91.264 53.4769 90.8331C53.4769 90.821 53.4769 90.8089 53.4688 90.8009C53.0419 90.3136 52.619 89.8262 52.1921 89.3389C52.1357 89.2745 51.9626 89.3389 51.9223 89.3953C51.7008 89.6772 51.3786 90.0961 50.9275 89.9028C50.7986 89.8464 50.6899 89.7215 50.5892 89.6289C50.4563 89.5081 50.3314 89.3953 50.1502 89.359C49.9448 89.3188 49.7313 89.3913 49.5622 89.5081C49.2319 89.7336 49.0265 90.1202 48.8534 90.4666C48.7929 90.5834 48.6238 90.825 48.6359 90.9459C48.6439 91.0345 48.7728 91.1835 48.8252 91.2721C49.0225 91.5943 49.3729 91.985 49.4897 92.3474C49.6065 92.7099 49.5904 93.1449 49.6307 93.5073C49.675 93.902 49.7152 94.3007 49.7555 94.6954C49.8361 95.517 49.9005 96.3386 49.9528 97.1602C50.0576 98.8478 50.1019 100.539 50.0898 102.231L50.1784 102.138C49.3044 102.44 48.954 103.504 49.4011 104.305C49.5904 104.639 49.9126 104.905 50.3032 104.945C50.7503 104.99 51.1893 104.543 51.5397 104.321L51.3343 104.353C51.6524 104.543 51.9666 104.728 52.2848 104.917C52.3532 104.957 52.4902 104.905 52.5385 104.849C52.9171 104.39 53.2916 103.93 53.6702 103.471C53.6863 103.451 53.6823 103.435 53.6702 103.419L52.8164 102.126C52.7681 102.054 52.4861 102.146 52.5425 102.235C52.7519 102.553 53.4084 103.238 53.2715 103.628C53.203 103.83 52.905 104.075 52.768 104.241C52.5989 104.446 52.4338 104.647 52.2646 104.853L52.5183 104.784C52.2002 104.595 51.886 104.41 51.5679 104.22C51.5155 104.188 51.4068 104.22 51.3625 104.253C51.0805 104.434 50.6335 104.857 50.271 104.752C49.9609 104.663 49.7233 104.333 49.6065 104.047C49.3366 103.395 49.5783 102.493 50.2912 102.247C50.3314 102.235 50.3798 102.203 50.3798 102.154C50.3999 99.0008 50.2227 95.8473 49.8401 92.7139C49.7837 92.2669 49.6387 92.0413 49.4051 91.6587C49.1715 91.2761 48.9138 91.0264 49.0749 90.5794C49.1715 90.3095 49.3487 90.0316 49.53 89.8061C49.7313 89.5564 49.8804 89.4195 50.1985 89.6329C50.5328 89.8585 50.706 90.1645 51.1571 90.1122C51.6081 90.0598 51.9303 89.7255 52.1961 89.3953L51.9263 89.4517C52.1196 89.6692 52.3089 89.8907 52.5022 90.1082C52.6593 90.2854 52.9815 90.5431 53.0782 90.7646C53.207 91.0667 52.8808 91.4735 52.7439 91.7312C52.607 91.989 52.4781 92.1944 52.4378 92.4763C52.2848 93.5114 52.18 94.5505 52.1317 95.5976C52.027 97.8127 52.172 100.032 52.5385 102.215C52.5546 102.303 52.8486 102.235 52.8285 102.138L52.8164 102.134Z" fill="#EDEDEC"/>
<path d="M71.9668 53.6318C71.7936 54.2521 71.56 54.9327 71.2379 55.6456C70.8472 56.5155 69.6873 60.4181 69.2563 61.0383C69.055 61.1793 68.8576 61.3243 68.6562 61.4652C68.7449 61.7633 68.8335 62.0573 68.9221 62.3553C69.1154 62.3352 69.3087 62.315 69.502 62.2949C69.6108 62.456 69.7235 62.6131 69.8323 62.7742L70.6821 62.3956C70.6498 62.1419 70.6176 61.8841 70.5854 61.6304C70.8512 60.8088 71.8822 56.7853 72.2528 55.8993C72.5105 55.2831 72.7763 54.6991 73.0502 54.1433C73.1147 54.0748 73.2113 53.9822 73.3482 53.9017C73.4892 53.8171 73.6221 53.7768 73.7147 53.7567L73.4691 52.9391C73.2919 52.9592 73.1147 52.9753 72.9374 52.9955C72.7643 52.8062 72.5911 52.6209 72.4139 52.4316L71.8541 52.9029C71.8943 53.0478 71.9265 53.2089 71.9507 53.3942C71.9588 53.4788 71.9668 53.5593 71.9709 53.6358L71.9668 53.6318Z" fill="white"/>
<path d="M71.8182 53.6477C71.4114 55.0815 70.7791 56.4629 70.3039 57.8806C70.0703 58.5814 69.8367 59.2822 69.5789 59.9749C69.4903 60.2165 69.3977 60.4582 69.293 60.6918C69.1359 61.0422 68.8782 61.1791 68.564 61.4046C68.5358 61.4248 68.4996 61.465 68.5117 61.5013C68.6003 61.7993 68.6889 62.0933 68.7775 62.3914C68.7936 62.4437 68.8621 62.4558 68.9064 62.4518C69.3534 62.4034 69.446 62.4719 69.6957 62.8344C69.736 62.8908 69.8407 62.8747 69.8931 62.8505L70.7429 62.4719C70.7912 62.4518 70.8315 62.4115 70.8275 62.3551C70.7751 61.9524 70.7308 61.6382 70.8395 61.2556C70.9161 60.9858 70.9926 60.7159 71.0651 60.4461C71.2665 59.7131 71.4678 58.9761 71.6732 58.2431C71.8504 57.6027 72.0317 56.9623 72.2371 56.33C72.3418 56.0159 72.4707 55.7138 72.6036 55.4118C72.8533 54.8399 73.0708 54.0263 73.7353 53.8451C73.7876 53.833 73.8762 53.7806 73.8561 53.7162L73.6104 52.8986C73.5943 52.8463 73.5259 52.8342 73.4816 52.8382C73.2802 52.8583 73.1231 52.9147 72.9378 52.7899C72.7929 52.6892 72.664 52.4959 72.5472 52.367C72.4948 52.3106 72.374 52.3227 72.3176 52.367L71.7578 52.8382C71.7296 52.8624 71.6974 52.8946 71.7054 52.9349C71.7659 53.1765 71.8021 53.4182 71.8182 53.6638C71.8263 53.7847 72.1162 53.7162 72.1082 53.5873C72.0961 53.4222 72.0035 53.1604 72.0317 53.0074C72.08 52.7617 72.3216 52.6368 72.5029 52.4838H72.2733C72.4223 52.6489 72.6318 52.9872 72.8291 53.0758C72.9902 53.1443 73.2842 53.0476 73.4453 53.0315L73.3164 52.9711L73.5621 53.7887L73.6829 53.6598C73.3164 53.7605 73.0144 53.9417 72.8331 54.276C72.5512 54.7996 72.3096 55.3715 72.0921 55.9273C71.8504 56.5394 71.6853 57.1798 71.5041 57.8081C71.2665 58.6418 71.0409 59.4795 70.8073 60.3172C70.7187 60.6394 70.6301 60.9576 70.5375 61.2798C70.4167 61.6906 70.473 61.9926 70.5294 62.4316L70.614 62.3148L69.7642 62.6934L69.9616 62.7095C69.8528 62.5484 69.74 62.3914 69.6313 62.2303C69.6071 62.194 69.5508 62.19 69.5105 62.194C69.3172 62.2141 69.1238 62.2343 68.9305 62.2544L69.0594 62.3148C68.9708 62.0128 68.7412 61.6181 68.9668 61.3644C69.0836 61.2314 69.2809 61.1751 69.3937 61.0341C69.5266 60.869 69.5991 60.6273 69.6796 60.434C69.9535 59.7574 70.1831 59.0606 70.4167 58.3679C70.6623 57.6389 70.8959 56.9059 71.1617 56.185C71.4759 55.3272 71.8545 54.5056 72.1042 53.6236C72.1404 53.4947 71.8424 53.5309 71.8102 53.6518L71.8182 53.6477Z" fill="#EDEDEC"/>
<path d="M67.9115 64.6787C67.8954 65.1218 67.8108 65.7299 67.5087 66.3864C67.3194 66.8012 67.3476 66.479 67.1342 66.7368C66.961 66.8616 66.7918 66.9865 66.6187 67.1113C66.7516 67.357 66.8804 67.6027 67.0133 67.8524C67.1986 67.8322 67.3798 67.8081 67.5651 67.7879C67.698 67.9168 67.8269 68.0497 67.9598 68.1786L68.725 67.8363C68.6566 67.6228 68.5841 67.4094 68.5156 67.1959C68.58 66.7932 68.4109 67.0187 68.5317 66.5676C68.6807 66.0159 68.8539 65.5165 69.0351 65.0734C69.0875 65.013 69.164 64.9365 69.2848 64.864C69.4097 64.7915 69.5305 64.7512 69.6191 64.7351L69.2566 64.0545C69.0875 64.0746 68.9183 64.0948 68.7492 64.1149C68.5518 63.9618 68.3545 63.8088 68.1571 63.6558L67.6859 64.0666C67.7463 64.1874 67.8027 64.3243 67.8511 64.4733C67.8752 64.5418 67.8913 64.6103 67.9074 64.6747L67.9115 64.6787Z" fill="white"/>
<path d="M67.7666 64.7191C67.7425 65.3152 67.6136 65.9112 67.3518 66.4509C67.3478 66.463 67.2753 66.5758 67.2833 66.5798C67.3156 66.6201 67.4364 66.5435 67.3276 66.5717C67.2672 66.5878 67.2068 66.5999 67.1504 66.6281C67.0578 66.6805 66.9813 66.765 66.8967 66.8295C66.7718 66.9261 66.6389 67.0188 66.5101 67.1114C66.506 67.1154 66.4658 67.1396 66.4778 67.1557C66.6107 67.4014 66.7396 67.6471 66.8725 67.8968C66.8846 67.9209 66.9329 67.9209 66.9571 67.9169C67.094 67.9008 67.3397 67.8283 67.4605 67.8807C67.5894 67.937 67.7304 68.1384 67.827 68.2351C67.8673 68.2753 68.0083 68.223 68.0485 68.2028L68.8138 67.8605C68.8138 67.8605 68.8822 67.8283 68.8742 67.8041C68.8218 67.643 68.7695 67.4819 68.7171 67.3249C68.6889 67.2322 68.6728 67.1879 68.6728 67.0953C68.6728 67.051 68.6809 67.0067 68.6728 66.9584C68.6648 66.91 68.6406 66.8698 68.6366 66.8255C68.6164 66.7087 68.6688 66.5798 68.697 66.467C68.7815 66.1529 68.8822 65.8468 68.991 65.5407C69.1239 65.1782 69.2085 64.8923 69.6313 64.7835C69.6475 64.7795 69.7844 64.7352 69.7643 64.699L69.4018 64.0183C69.3897 63.9941 69.3414 63.9941 69.3172 63.9982C69.1078 64.0223 68.9306 64.0908 68.7534 63.966C68.5963 63.8532 68.4473 63.7283 68.2942 63.6075C68.2338 63.5592 68.0727 63.6236 68.0244 63.6679L67.5532 64.0787C67.5532 64.0787 67.5371 64.0948 67.5411 64.1069C67.6377 64.3043 67.7102 64.5056 67.7626 64.7151C67.7787 64.7795 68.0727 64.703 68.0526 64.6385C68.0083 64.4654 67.9116 64.2922 67.8754 64.123C67.8391 63.9539 68.1613 63.7565 68.2902 63.6478L68.0204 63.7082C68.121 63.7847 68.2177 63.8612 68.3184 63.9378C68.403 64.0022 68.5157 64.1311 68.6164 64.1673C68.7735 64.2237 69.0353 64.1351 69.1964 64.115L69.1118 64.0948L69.4743 64.7755L69.6072 64.6909C69.3615 64.7553 69.0393 64.8762 68.8903 65.1017C68.7896 65.2588 68.7372 65.4843 68.6768 65.6615C68.6164 65.8387 68.556 66.0159 68.4996 66.1931C68.4231 66.4388 68.3103 66.7046 68.3587 66.9624C68.3788 67.0591 68.3587 67.1436 68.3627 67.2403C68.3788 67.4457 68.5077 67.6873 68.5721 67.8807L68.6325 67.8243L67.8673 68.1666L68.0888 68.1344C67.9801 68.0256 67.8109 67.78 67.6659 67.7357C67.5975 67.7155 67.4928 67.7518 67.4243 67.7598C67.3075 67.7759 67.1867 67.788 67.0699 67.8041L67.1544 67.8243C67.0497 67.631 66.9249 67.4336 66.8403 67.2322C66.7759 67.0832 66.792 67.0792 66.9209 66.9866C66.9853 66.9382 67.0497 66.8939 67.1142 66.8456C67.1786 66.7973 67.239 66.7489 67.2994 66.6966C67.2874 66.7087 67.2149 66.7167 67.3156 66.6845C67.388 66.6603 67.4605 66.6482 67.5169 66.5919C67.6176 66.4992 67.6659 66.3341 67.7183 66.2093C67.7948 66.02 67.8593 65.8226 67.9116 65.6212C67.9922 65.3031 68.0365 64.9768 68.0526 64.6506C68.0526 64.6063 67.7626 64.6426 67.7626 64.7271L67.7666 64.7191Z" fill="#EDEDEC"/>
<path d="M76.393 42.2418C76.4816 42.2418 76.7071 42.1089 76.5138 42.1089C76.4252 42.1089 76.1997 42.2418 76.393 42.2418Z" fill="#EDEDEC"/>
<path d="M73.5619 55.4759C74.7178 55.1175 76.4214 54.7308 78.4996 54.755C80.8476 54.7832 82.7284 55.3229 83.9246 55.7699C83.985 55.9552 84.0656 56.2774 84.0333 56.6761C83.9971 57.1231 83.836 57.4574 83.7353 57.6306C82.1968 57.103 79.9938 56.5633 77.3357 56.6036C76.067 56.6197 74.9313 56.7687 73.9607 56.958C73.9325 56.9419 73.421 56.6922 73.3686 56.1485C73.3324 55.7981 73.5096 55.5403 73.5619 55.4678V55.4759Z" fill="white"/>
<path d="M73.5863 55.5726C75.6685 54.9323 77.8635 54.7148 80.0303 54.9564C81.0412 55.0692 82.0359 55.2786 83.0066 55.5807C83.3569 55.6894 83.7879 55.7217 83.8604 56.1204C83.953 56.6399 83.8523 57.1595 83.5986 57.6226L83.8241 57.5421C81.9675 56.9138 80.0222 56.5513 78.0608 56.511C76.9734 56.4869 75.89 56.5553 74.8147 56.7164C74.5247 56.7608 74.1582 56.9218 73.9206 56.7889C73.4615 56.5272 73.4252 55.8948 73.6991 55.4921C73.7877 55.3632 73.4897 55.3632 73.4212 55.4639C73.0869 55.9512 73.1957 56.8212 73.832 57.0386C74.1461 57.1474 74.6174 56.946 74.9436 56.8977C75.5437 56.8131 76.1518 56.7567 76.76 56.7285C79.0999 56.6238 81.4358 56.9823 83.651 57.7314C83.7275 57.7555 83.8362 57.7233 83.8765 57.6508C84.098 57.2481 84.2108 56.797 84.1866 56.3338C84.1786 56.1848 84.1745 55.8505 84.0738 55.7337C83.9893 55.6331 83.8241 55.6089 83.6993 55.5646C82.7126 55.2182 81.6896 54.9685 80.6545 54.8195C78.2743 54.4731 75.8377 54.6786 73.538 55.3834C73.3608 55.4357 73.4091 55.629 73.5903 55.5726H73.5863Z" fill="#EDEDEC"/>
<path d="M73.4051 58.7062C74.3274 58.5088 75.6685 58.3598 77.2392 58.6699C79.0154 59.0203 80.3646 59.8097 81.2144 60.4219C81.2345 60.6152 81.2546 60.9414 81.1781 61.3321C81.0895 61.7671 80.9284 62.0772 80.8277 62.2342C79.7322 61.5012 78.1374 60.6676 76.1156 60.3413C75.153 60.1843 74.275 60.1722 73.5138 60.2286C73.4937 60.2084 73.1393 59.8903 73.1715 59.3506C73.1916 59.0002 73.3568 58.7666 73.4051 58.7062Z" fill="white"/>
<path d="M73.4289 58.7946C75.1808 58.4281 77.0053 58.5651 78.6807 59.1974C79.3855 59.4632 80.0581 59.8095 80.6864 60.2163C80.783 60.2808 80.9602 60.3532 81.0287 60.4499C81.1374 60.5949 81.0851 60.897 81.069 61.0661C81.0287 61.4769 80.8998 61.8716 80.6864 62.226L80.9401 62.1575C79.5909 61.2635 78.0887 60.607 76.4938 60.3009C75.6601 60.1398 74.8103 60.0794 73.9605 60.1076C73.8397 60.1116 73.6665 60.1559 73.6021 60.1237C73.5054 60.0713 73.4289 59.882 73.3926 59.7894C73.2517 59.431 73.3161 59.0242 73.5416 58.7141C73.6302 58.5973 73.3322 58.6013 73.2637 58.6899C72.9496 59.1128 72.9053 59.8377 73.3161 60.2284C73.4933 60.3975 73.7551 60.3049 73.9887 60.2969C74.5042 60.2808 75.0197 60.3049 75.5352 60.3613C77.3959 60.5707 79.1519 61.2796 80.7105 62.3106C80.7871 62.3589 80.92 62.3146 80.9643 62.2421C81.1737 61.8917 81.3066 61.5051 81.359 61.1024C81.3831 60.9171 81.3871 60.7318 81.3751 60.5466C81.363 60.3492 81.3429 60.3452 81.1858 60.2364C80.5172 59.7733 79.7923 59.3826 79.0351 59.0806C77.2348 58.3637 75.2694 58.2187 73.3805 58.6134C73.1993 58.6496 73.2476 58.8309 73.4289 58.7946Z" fill="#EDEDEC"/>
<path d="M72.3819 61.7834C73.2076 61.7029 74.3916 61.7149 75.7126 62.2103C77.2028 62.7701 78.2701 63.7085 78.9225 64.4133C78.9145 64.6067 78.8863 64.9329 78.7655 65.3074C78.6326 65.7263 78.4473 66.0082 78.3386 66.1532C77.4888 65.3034 76.2161 64.2885 74.5084 63.7206C73.6949 63.4508 72.9337 63.334 72.2651 63.2977C72.249 63.2776 71.9872 62.9232 72.0879 62.3916C72.1524 62.0492 72.3296 61.8398 72.3779 61.7834H72.3819Z" fill="white"/>
<path d="M72.3619 61.8675C74.0091 61.7104 75.6403 62.1172 77.0378 63.0032C77.6057 63.3617 78.1292 63.7966 78.6005 64.2759C78.7293 64.4088 78.7777 64.4733 78.7575 64.6625C78.7374 64.8518 78.7052 65.025 78.6528 65.1982C78.5562 65.5405 78.4071 65.8587 78.1977 66.1447L78.4676 66.0923C77.4647 65.0935 76.2887 64.2719 74.9596 63.7684C74.2307 63.4906 73.4695 63.3133 72.6922 63.2368C72.5673 63.2247 72.4344 63.2489 72.3579 63.1804C72.2854 63.116 72.2491 62.9348 72.233 62.8462C72.1605 62.4877 72.2532 62.089 72.4948 61.8151C72.6116 61.6822 72.3297 61.6742 72.2572 61.7547C71.9068 62.1534 71.794 62.7777 72.0599 63.2529C72.1807 63.4624 72.4143 63.3979 72.6358 63.4221C73.107 63.4704 73.5742 63.563 74.0293 63.6879C75.6201 64.1349 77.0297 65.0532 78.1937 66.2131C78.2662 66.2816 78.4152 66.2333 78.4635 66.1608C78.6568 65.895 78.8018 65.6009 78.9025 65.2908C78.9871 65.0331 79.1603 64.5377 78.9992 64.3001C78.8179 64.0343 78.4998 63.8047 78.2581 63.5953C77.9561 63.3375 77.6379 63.0999 77.3076 62.8864C75.8457 61.944 74.1219 61.5332 72.3901 61.6943C72.2411 61.7064 72.1525 61.8876 72.3539 61.8715L72.3619 61.8675Z" fill="#EDEDEC"/>
<path d="M70.7344 54.0787C70.0981 53.2289 69.1073 52.1052 67.734 51.2111C66.1794 50.2002 64.7617 49.8821 63.8233 49.7773C63.7186 49.9264 63.5575 50.1962 63.4447 50.5909C63.3159 51.0339 63.3118 51.4165 63.3158 51.63C64.5039 51.8112 66.1351 52.2704 67.8709 53.4826C68.7006 54.0626 69.3973 54.7029 69.9692 55.3111C69.9934 55.3111 70.4122 55.299 70.6338 54.8077C70.7747 54.4895 70.7465 54.1673 70.7385 54.0787H70.7344Z" fill="white"/>
<path d="M70.8714 54.0263C69.1759 51.775 66.7674 50.0392 63.916 49.7129C63.8556 49.7049 63.7267 49.729 63.6905 49.7854C63.3159 50.3452 63.1588 51.0058 63.1749 51.6743C63.1749 51.6944 63.2192 51.7025 63.2273 51.7025C65.1685 52.0046 66.9688 52.8664 68.4872 54.1069C68.8738 54.421 69.2403 54.7594 69.5907 55.1178C69.78 55.3111 69.8283 55.4199 70.0861 55.3594C70.6862 55.2145 70.9359 54.6184 70.8795 54.0425C70.8714 53.97 70.5774 54.0264 70.5895 54.119C70.6096 54.3204 70.5976 54.5217 70.5331 54.715C70.4888 54.852 70.2754 55.291 70.0579 55.2426C70.0055 55.2306 69.7679 54.9124 69.6954 54.8439C69.5182 54.6707 69.337 54.5016 69.1517 54.3365C68.3664 53.6437 67.5004 53.0437 66.5661 52.5765C65.7686 52.1737 64.9188 51.8717 64.0489 51.6864C63.9039 51.6542 63.7106 51.6542 63.5777 51.5938C63.4851 51.5535 63.5052 51.5776 63.4609 51.489C63.4166 51.4045 63.473 51.2112 63.481 51.1225C63.5334 50.6433 63.6864 50.1761 63.9563 49.7733L63.7307 49.8458C66.55 50.168 68.9262 51.9079 70.5976 54.1311C70.6459 54.1955 70.9278 54.0988 70.8714 54.0263Z" fill="#EDEDEC"/>
<path d="M69.5347 56.7409C68.8943 56.0804 67.9156 55.2467 66.6067 54.7312C65.1286 54.1472 63.8237 54.2036 62.9659 54.3446C62.8853 54.5178 62.7605 54.8198 62.688 55.2306C62.6075 55.6897 62.6276 56.0683 62.6518 56.2697C63.7392 56.1408 65.2454 56.169 66.9048 56.898C67.6982 57.2443 68.3748 57.6874 68.9386 58.1344C68.9588 58.1264 69.3373 58.0055 69.4984 57.4739C69.6032 57.1316 69.5508 56.8255 69.5347 56.7409Z" fill="white"/>
<path d="M69.6671 56.6804C68.4186 55.3996 66.8358 54.4532 65.0395 54.2156C64.6328 54.1632 64.226 54.1471 63.8192 54.1632C63.5816 54.1753 63.0943 54.139 62.8889 54.28C62.6835 54.421 62.611 54.9043 62.5626 55.1258C62.4821 55.5164 62.466 55.9151 62.5022 56.3098C62.5063 56.3622 62.5949 56.3662 62.6311 56.3622C64.3951 56.1608 66.1471 56.5394 67.6856 57.4335C68.0521 57.647 68.3944 57.8967 68.7368 58.1464C68.8817 58.2511 68.9623 58.235 69.1153 58.1544C69.6188 57.8765 69.7718 57.2362 69.6792 56.7045C69.659 56.5877 69.365 56.6602 69.3892 56.7811C69.4496 57.1234 69.4053 57.5221 69.1959 57.8081C69.1435 57.8806 69.0267 58.0255 68.926 58.0417C68.8455 58.0537 68.9865 58.0135 68.9663 57.9893C68.8979 57.9168 68.7811 57.8483 68.7005 57.792C68.0763 57.3409 67.3996 56.9663 66.6827 56.6844C65.406 56.181 64.0286 56.0239 62.6674 56.1769L62.7962 56.2293C62.7318 55.5889 62.8325 54.9365 63.1023 54.3525L62.9493 54.4371C65.398 54.0504 67.7017 55.0613 69.4013 56.8012C69.4818 56.8858 69.7597 56.773 69.6711 56.6804H69.6671Z" fill="#EDEDEC"/>
<path d="M68.2899 59.3102C67.6858 58.8068 66.7715 58.2107 65.5875 57.9973C64.2544 57.7556 63.1186 58.102 62.3816 58.4323C62.3212 58.6175 62.2366 58.9437 62.2004 59.3626C62.1601 59.8298 62.2084 60.1923 62.2406 60.3896C63.1831 60.0191 64.5 59.713 66.0023 60.0553C66.7192 60.2205 67.3434 60.4984 67.863 60.8085C67.8831 60.7964 68.2053 60.595 68.306 60.0392C68.3704 59.6808 68.306 59.3908 68.2859 59.3143L68.2899 59.3102Z" fill="white"/>
<path d="M68.4028 59.2336C67.1865 58.2308 65.6601 57.667 64.0732 57.8643C63.7188 57.9086 63.3684 57.9851 63.0261 58.0939C62.8207 58.1583 62.3777 58.2429 62.2448 58.4241C62.1844 58.5047 62.1642 58.6899 62.1441 58.7866C62.0998 58.9839 62.0716 59.1813 62.0555 59.3786C62.0273 59.729 62.0394 60.0834 62.0998 60.4298C62.1159 60.5144 62.2609 60.4822 62.3052 60.466C64.1256 59.7612 66.0628 59.9022 67.7503 60.8889C67.8148 60.9252 67.8993 60.901 67.9598 60.8688C68.4592 60.5506 68.5598 59.8055 68.435 59.2779C68.4068 59.1571 68.1128 59.2336 68.145 59.3545C68.2497 59.7935 68.2014 60.4862 67.7745 60.756L67.9839 60.7359C66.1796 59.6847 64.1216 59.5719 62.1844 60.3211L62.3898 60.3573C62.281 59.7129 62.3374 59.0484 62.5307 58.4281L62.4461 58.5168C63.4409 58.0778 64.5364 57.9005 65.6117 58.118C66.5662 58.3114 67.4322 58.7826 68.1772 59.3988C68.2658 59.4713 68.5276 59.3424 68.4068 59.2417L68.4028 59.2336Z" fill="#EDEDEC"/>
<path d="M93.538 40.0429C93.6427 40.7034 93.7111 41.4445 93.7031 42.254C93.691 43.2407 93.5702 44.1268 93.4051 44.892C93.2601 45.1095 93.1151 45.327 92.9741 45.5445L93.6668 46.2775C93.8118 46.1204 94.0213 45.9553 94.2468 45.9794C94.5126 46.0116 94.6012 46.2775 94.8187 46.2976C94.9838 46.3137 95.2174 46.1889 95.5356 45.5888C95.3825 45.3592 95.2295 45.1296 95.0765 44.9001C94.9758 44.01 94.9073 43.0635 94.8872 42.0688C94.8711 41.3801 94.8831 40.7115 94.9113 40.0752C95.2094 40.0147 95.4269 39.7369 95.4309 39.4348C95.4389 39.0804 95.157 38.7622 94.7945 38.7622C94.6173 38.8548 94.4401 38.9434 94.2589 39.0361C94.0857 38.9394 93.9085 38.8428 93.7353 38.7461C93.5138 38.9636 93.2963 39.1811 93.0748 39.3985C93.2279 39.612 93.3809 39.8295 93.5339 40.0429H93.538Z" fill="white"/>
<path d="M93.393 40.0832C93.542 41.0256 93.5943 41.9761 93.5379 42.9266C93.5098 43.3736 93.4614 43.8166 93.3889 44.2556C93.3527 44.4691 93.3285 44.6987 93.2439 44.9C93.1473 45.1296 92.9781 45.339 92.8412 45.5485C92.8291 45.5646 92.8251 45.5847 92.8412 45.6008L93.5339 46.3338C93.5984 46.4023 93.7554 46.3298 93.8038 46.2774C94.0212 46.0599 94.2508 46.0841 94.4804 46.2533C94.5368 46.2976 94.5851 46.3338 94.6576 46.3539C94.7583 46.3862 94.859 46.3781 94.9596 46.3539C95.3141 46.2533 95.5154 45.8868 95.6806 45.5928C95.6926 45.5686 95.6967 45.5605 95.6806 45.5404C95.5557 45.3551 95.3986 45.1659 95.2979 44.9685C95.1892 44.755 95.1892 44.4933 95.1691 44.2597C95.1288 43.8126 95.0966 43.3696 95.0724 42.9226C95.0241 41.9721 95.0241 41.0176 95.0644 40.063L94.9355 40.1476C95.4067 40.0107 95.7692 39.5314 95.4872 39.0481C95.1449 38.4641 94.6254 38.7823 94.1783 39.0079L94.3837 38.9756C94.2105 38.879 94.0333 38.7823 93.8601 38.6857C93.7997 38.6534 93.6709 38.6897 93.6266 38.734C93.405 38.9515 93.1876 39.169 92.966 39.3864C92.9419 39.4106 92.9258 39.4307 92.9459 39.4589C93.099 39.6724 93.252 39.8899 93.405 40.1033C93.4574 40.1758 93.7393 40.0792 93.6789 39.9946C93.5621 39.8335 93.2439 39.5355 93.2923 39.3301C93.3124 39.2455 93.5178 39.1085 93.5742 39.0522C93.6668 38.9595 93.7635 38.8669 93.8561 38.7743L93.6225 38.8226C93.7635 38.9031 94.0373 39.1206 94.2065 39.1206C94.3757 39.1206 94.5287 38.9595 94.6858 38.9112C94.8308 38.8669 94.8751 38.8508 95.0201 38.9515C95.1288 39.028 95.2053 39.1247 95.2496 39.2535C95.3543 39.5556 95.2214 39.9261 94.8952 40.0187C94.863 40.0268 94.7703 40.059 94.7663 40.1033C94.7341 40.8726 94.726 41.6458 94.7502 42.4151C94.7623 42.8259 94.7824 43.2327 94.8106 43.6435C94.8388 44.0543 94.8187 44.5053 94.9234 44.8799C95.016 45.2142 95.459 45.4599 95.2698 45.8264C95.2174 45.927 95.1046 46.1083 95.0039 46.1647C94.8348 46.2613 94.7301 46.1123 94.5891 46.0197C94.2146 45.77 93.8078 46.0116 93.5299 46.2895L93.7997 46.2331C93.6507 46.0761 93.2158 45.7418 93.1916 45.5243C93.1674 45.3068 93.4614 45.0893 93.55 44.8799C93.6386 44.6705 93.6507 44.3845 93.687 44.159C93.7313 43.8771 93.7675 43.5911 93.7957 43.3092C93.8964 42.2097 93.8561 41.1021 93.687 40.0107C93.6749 39.9221 93.3809 39.9906 93.397 40.0872L93.393 40.0832Z" fill="#EDEDEC"/>
<path d="M60.6134 40.2524C61.0484 41.1223 61.6082 42.0446 62.3171 42.971C63.183 44.0986 64.1053 44.9968 64.9792 45.7137C65.3497 45.8184 65.7203 45.9271 66.0908 46.0318C66.0102 46.5473 65.9297 47.0588 65.8491 47.5743C65.531 47.5421 65.1242 47.5542 64.8584 47.816C64.5483 48.1181 64.6691 48.5127 64.4113 48.7544C64.218 48.9356 63.8112 49.0283 62.889 48.6577C62.8849 48.2389 62.8769 47.824 62.8728 47.4052C62.2285 46.2775 61.4995 45.1176 60.6618 43.9496C60.0818 43.1401 59.4938 42.3789 58.9018 41.6701C58.4708 41.8996 57.9593 41.799 57.6895 41.4566C57.3754 41.0579 57.4519 40.4055 57.911 40.039C58.2131 39.9665 58.5192 39.8899 58.8212 39.8174C58.9581 39.5315 59.0951 39.2415 59.232 38.9556C59.6992 38.9838 60.1624 39.016 60.6295 39.0442L60.6094 40.2484L60.6134 40.2524Z" fill="white"/>
<path d="M60.4647 40.2928C61.2097 41.7588 62.1441 43.116 63.2758 44.3122C63.5376 44.5901 63.8115 44.8599 64.0934 45.1177C64.319 45.3231 64.5807 45.6372 64.8546 45.7782C65.1285 45.9192 65.7084 45.8829 65.8695 46.1528C65.9742 46.33 65.8574 46.628 65.8293 46.8213C65.789 47.0791 65.7487 47.3368 65.7084 47.5946L65.9098 47.4939C65.2735 47.4415 64.6975 47.6107 64.4881 48.2672C64.3995 48.541 64.3713 48.7666 64.0612 48.827C63.8639 48.8673 63.6343 48.7988 63.445 48.7464C62.7402 48.5491 63.1752 47.7879 62.9657 47.2764C62.7684 46.7931 62.4019 46.3179 62.124 45.8749C61.8058 45.3674 61.4756 44.868 61.1332 44.3726C60.4767 43.4221 59.776 42.5079 59.0389 41.6178C58.9987 41.5695 58.8899 41.5937 58.8456 41.6178C57.7622 42.1052 57.1742 40.4781 58.1167 40.0793C58.3502 39.9827 58.7167 40.027 58.9181 39.8739C59.1396 39.7008 59.2564 39.2215 59.3732 38.9718L59.1799 39.0523C59.6471 39.0805 60.1102 39.1127 60.5774 39.1409L60.4888 39.0765L60.4687 40.2807C60.4687 40.4015 60.7587 40.3411 60.7587 40.2445L60.7788 39.0403C60.7788 38.9879 60.7345 38.9758 60.6902 38.9758C60.223 38.9476 59.7599 38.9154 59.2927 38.8872C59.2363 38.8872 59.1275 38.9114 59.0994 38.9678C58.9221 39.3343 58.8376 39.7048 58.4389 39.8457C58.2415 39.9142 58.0039 39.9062 57.8226 40.0068C57.5166 40.18 57.3474 40.623 57.3595 40.9533C57.3837 41.8111 58.2939 42.0447 58.9624 41.7427H58.7691C59.627 42.7777 60.4365 43.8531 61.1896 44.9727C61.5682 45.5406 61.9347 46.1165 62.2851 46.7005C62.4583 46.9905 62.6878 47.2925 62.7281 47.6349C62.7684 47.9772 62.7362 48.3598 62.7442 48.7102C62.7482 48.7263 62.7603 48.7344 62.7724 48.7424C63.2275 48.9196 63.7914 49.1331 64.2787 48.9438C64.4196 48.8914 64.5445 48.8028 64.6291 48.674C64.7136 48.5451 64.7298 48.384 64.7781 48.239C64.8788 47.945 64.8868 47.953 65.2211 47.804C65.5232 47.6671 65.5272 47.651 65.797 47.6711C65.8534 47.6751 65.9863 47.6429 65.9984 47.5704C66.079 47.0549 66.1595 46.5434 66.2401 46.0279C66.2441 45.9876 66.2159 45.9755 66.1837 45.9675C65.8011 45.8588 65.3379 45.7943 65.0036 45.5768C64.7982 45.4399 64.6089 45.2385 64.4277 45.0734C63.9565 44.6425 63.5054 44.1833 63.0865 43.7C62.1683 42.6448 61.395 41.4769 60.7627 40.2284C60.7103 40.1277 60.4284 40.2203 60.4727 40.3049L60.4647 40.2928Z" fill="#EDEDEC"/>
<path d="M62.1362 32.2576C61.7254 32.7852 61.3066 33.4014 60.9119 34.1062C60.4366 34.9641 60.0983 35.7776 59.8607 36.5066C59.8728 36.7523 59.8808 36.9979 59.8929 37.2396C59.5828 37.3604 59.2767 37.4812 58.9666 37.6021C58.9263 37.4087 58.8377 37.1832 58.6364 37.1188C58.4068 37.0422 58.2014 37.2356 58.0161 37.1671C57.8752 37.1147 57.7423 36.9134 57.7785 36.273C58.0161 36.1361 58.2537 35.9951 58.4914 35.8582C59.0109 35.1292 59.5304 34.3398 60.0379 33.486C60.3883 32.8939 60.7065 32.314 61.0005 31.7501C60.787 31.581 60.7467 31.2588 60.8877 30.993C61.0569 30.6869 61.4435 30.5177 61.7375 30.6587C61.8382 30.8077 61.9389 30.9567 62.0396 31.1017C62.2289 31.0856 62.4181 31.0695 62.6115 31.0574C62.684 31.3313 62.7565 31.6052 62.8289 31.879L62.1362 32.2576Z" fill="white"/>
<path d="M61.9988 32.2538C61.3867 33.0472 60.855 33.893 60.416 34.7911C60.2227 35.1898 60.0455 35.5966 59.8925 36.0114C59.8321 36.1766 59.7434 36.3578 59.7112 36.531C59.675 36.7565 59.7314 37.0505 59.7434 37.2761L59.8321 37.1794C59.5219 37.3002 59.2158 37.421 58.9057 37.5419L59.1071 37.562C59.0548 37.3526 58.9661 37.1311 58.7487 37.0465C58.5312 36.9619 58.2815 37.1593 58.1002 37.0827C57.9391 37.0143 57.9271 36.7082 57.919 36.5672C57.8908 36.1 58.3983 36.1 58.6601 35.806C58.9017 35.5322 59.095 35.1818 59.2964 34.8757C59.5139 34.5495 59.7233 34.2192 59.9287 33.8849C60.3556 33.1882 60.7543 32.4753 61.1329 31.7463C61.141 31.7262 61.1531 31.7061 61.1329 31.6859C60.9597 31.5208 60.9034 31.2832 60.992 31.0576C61.0886 30.7999 61.3585 30.5824 61.6766 30.82C61.7693 30.8885 61.8418 31.0617 61.9022 31.1543C61.9223 31.1865 61.9867 31.1785 62.019 31.1785C62.2083 31.1624 62.3975 31.1463 62.5909 31.1342L62.466 31.0939C62.5385 31.3678 62.611 31.6416 62.6835 31.9155L62.7399 31.8349L62.0472 32.2135C61.874 32.3062 62.1317 32.3505 62.2284 32.2981L62.9211 31.9195C62.9453 31.9074 62.9856 31.8712 62.9775 31.839C62.905 31.5651 62.8325 31.2912 62.76 31.0174C62.7479 30.969 62.6714 30.9731 62.6352 30.9771C62.5305 30.9852 62.2727 31.0536 62.1801 31.0133C62.0552 30.961 62.0069 30.7475 61.9183 30.6549C61.8055 30.5421 61.6726 30.5139 61.5075 30.526C61.1974 30.5462 60.8913 30.7314 60.7463 31.0093C60.6577 31.1785 60.6295 31.3919 60.702 31.5732C60.7463 31.6859 60.8188 31.7262 60.8107 31.8591C60.8027 31.9598 60.6738 32.1169 60.6295 32.2014C60.3234 32.7733 60.0012 33.3332 59.6629 33.8849C59.3246 34.4367 58.9984 34.9401 58.644 35.4516C58.4426 35.7416 58.2412 35.9148 57.9311 36.092C57.6733 36.241 57.629 36.2209 57.6331 36.5269C57.6331 36.7485 57.6411 37.0747 57.8505 37.2076C57.9432 37.268 58.06 37.268 58.1687 37.2519C58.3459 37.2277 58.4627 37.115 58.656 37.264C58.7648 37.3485 58.797 37.5137 58.8292 37.6385C58.8493 37.711 58.9943 37.6748 59.0306 37.6587C59.3407 37.5378 59.6468 37.417 59.9569 37.2962C59.9972 37.2801 60.0495 37.2479 60.0455 37.1995C60.0334 36.9659 60.0012 36.7162 60.0334 36.4867C60.0616 36.2772 60.1583 36.0718 60.2348 35.8705C60.404 35.4274 60.5973 34.9925 60.8107 34.5696C61.2256 33.752 61.7209 32.9828 62.2808 32.2578C62.3573 32.1571 62.0673 32.1773 62.0109 32.2538H61.9988Z" fill="#EDEDEC"/>
<path d="M64.8946 68.0096C64.8946 67.7921 64.9067 65.9757 64.1535 64.9205C64.0086 64.7191 63.7508 64.3607 63.2715 64.1351C63.2715 64.1351 62.9373 63.9781 62.5305 63.9499C61.7854 63.8975 60.5167 64.3486 59.3971 65.3635C57.8385 66.7772 57.331 68.5935 57.1538 69.4715C58.205 70.2488 59.2561 71.0221 60.3033 71.7994C61.3383 73.358 62.3734 74.9207 63.4125 76.4793C63.63 76.6324 65.398 77.8326 67.3634 77.1559C69.2402 76.5115 70.5049 74.4293 70.1545 72.8465C70.0457 72.3512 69.8001 71.9887 69.3933 71.5135C68.5999 70.5831 67.2064 69.2178 64.8946 68.0055V68.0096ZM60.7262 69.4433C59.9328 69.5078 59.1273 68.7748 59.3085 67.5988C59.4052 66.9826 59.7878 66.1448 60.3838 65.7824C61.2216 65.2709 62.0633 65.9636 62.2083 66.8819C62.317 67.5625 62.0794 68.6177 61.4793 69.1332C61.1652 69.4071 60.8591 69.4313 60.7221 69.4433H60.7262ZM63.8434 74.1353C63.63 73.9863 62.7198 73.3621 62.6916 72.2827C62.6875 72.1256 62.6674 71.3644 63.1507 70.9738C63.9965 70.2891 66.0948 70.9577 66.5217 72.331C66.7633 73.1043 66.5096 74.2199 65.7525 74.5703C64.9752 74.9328 64.1133 74.3246 63.8475 74.1353H63.8434Z" fill="white"/>
<path d="M65.0436 67.9736C65.0557 66.9345 64.9066 65.7585 64.3025 64.8845C63.6984 64.0105 62.7801 63.7367 61.7854 63.9743C59.2239 64.5865 57.5243 67.0392 57.0128 69.5C57.0088 69.5121 57.0128 69.5201 57.0209 69.5282C57.9875 70.241 59.0064 70.9176 59.9367 71.6788C60.408 72.0655 60.7141 72.6696 61.0524 73.1771C61.4229 73.7328 61.7934 74.2927 62.1639 74.8485C62.4781 75.3237 62.7922 75.7949 63.1064 76.2701C63.2634 76.5078 63.352 76.5923 63.5856 76.7293C64.1575 77.0636 64.7939 77.2931 65.4503 77.3898C67.005 77.6113 68.5475 76.9266 69.498 75.6902C69.949 75.1022 70.2793 74.3974 70.3478 73.6563C70.4283 72.8267 70.1142 72.1621 69.5906 71.5379C68.3421 70.0397 66.7472 68.8717 65.0315 67.9615C64.9509 67.9212 64.7093 68.038 64.7576 68.0662C65.9336 68.6905 67.0452 69.4275 68.036 70.3216C68.7972 71.0103 69.8202 71.9084 70.0215 72.9515C70.239 74.0832 69.6792 75.2633 68.914 76.0688C67.7903 77.2488 66.1874 77.571 64.6731 77.0112C64.3227 76.8823 63.9119 76.7212 63.6219 76.4796C63.3883 76.2863 63.2272 75.9439 63.0621 75.6942C62.8204 75.3317 62.5828 74.9693 62.3411 74.6068C61.8619 73.8819 61.3786 73.1569 60.8993 72.432C60.714 72.15 60.561 71.8359 60.2871 71.6345C59.9488 71.3808 59.6025 71.1311 59.2642 70.8774C58.95 70.6438 58.6359 70.4102 58.3177 70.1806C58.1606 70.0638 58.0036 69.947 57.8465 69.8302C57.7096 69.7295 57.3592 69.5564 57.3189 69.3751C57.2867 69.2462 57.4156 68.9684 57.4518 68.8395C57.5203 68.6019 57.5968 68.3642 57.6814 68.1347C58.1808 66.8177 59.0306 65.6336 60.1985 64.8321C60.8308 64.4012 61.6524 63.9662 62.4418 64.0146C63.1507 64.0589 63.7105 64.4818 64.081 65.0657C64.6287 65.9196 64.7617 67.0513 64.7496 68.0461C64.7496 68.1065 65.0395 68.0622 65.0395 67.9695L65.0436 67.9736Z" fill="#EDEDEC"/>
<path d="M60.7868 69.3792C60.1947 69.4195 59.6913 68.9845 59.51 68.4367C59.3006 67.7964 59.51 67.0714 59.8403 66.5076C60.0135 66.2096 60.2511 65.9115 60.5652 65.7585C60.8794 65.6054 61.2459 65.7061 61.5117 65.9236C62.0433 66.3586 62.148 67.0795 62.0474 67.7199C61.9467 68.3602 61.5681 69.3107 60.7827 69.3792C60.7344 69.3832 60.6095 69.3993 60.5894 69.4517C60.5693 69.504 60.6055 69.5161 60.6619 69.5121C61.4553 69.4436 61.9789 68.8798 62.2205 68.1468C62.4622 67.4138 62.4743 66.5398 61.9265 65.9518C61.3788 65.3638 60.5612 65.4725 60.0095 65.9679C59.4577 66.4633 59.067 67.3775 59.1395 68.1468C59.212 68.916 59.8484 69.5644 60.6579 69.5121C60.7062 69.5121 60.8311 69.4919 60.8512 69.4396C60.8713 69.3872 60.8311 69.3752 60.7787 69.3792H60.7868Z" fill="#EDEDEC"/>
<path d="M63.9804 74.0833C63.4286 73.6926 62.9574 73.161 62.8567 72.4682C62.7641 71.8158 62.9413 70.9338 63.6945 70.7928C64.4476 70.6518 65.2249 70.9942 65.7565 71.4573C66.3969 72.0131 66.6184 72.867 66.3526 73.6765C66.1875 74.1759 65.8048 74.6471 65.2289 74.6108C64.7698 74.5827 64.3509 74.341 63.9844 74.0833C63.9119 74.0309 63.6542 74.1477 63.7106 74.188C64.073 74.4417 64.4677 74.6632 64.9067 74.7276C65.39 74.8001 65.9015 74.6551 66.2438 74.3048C66.8923 73.6443 66.9164 72.4682 66.3848 71.7393C65.8854 71.0506 64.9832 70.6438 64.1415 70.6357C63.7831 70.6357 63.4045 70.7082 63.1024 70.9136C62.7319 71.1674 62.5829 71.6064 62.5507 72.0373C62.4822 72.9515 62.9856 73.6805 63.7065 74.188C63.779 74.2403 64.0368 74.1235 63.9804 74.0833Z" fill="#EDEDEC"/>
<defs>
<radialGradient id="paint0_radial_374_707" cx="0" cy="0" r="1" gradientUnits="userSpaceOnUse" gradientTransform="translate(67.0295 68.4929) scale(77.3998 77.3998)">
<stop offset="0.46" stop-color="#F4E860"/>
<stop offset="1" stop-color="#A9BDB4"/>
</radialGradient>
<radialGradient id="paint1_radial_374_707" cx="0" cy="0" r="1" gradientUnits="userSpaceOnUse" gradientTransform="translate(63.2315 66.6968) scale(47.2382)">
<stop offset="0.46" stop-color="#231815"/>
<stop offset="0.87" stop-color="#3F4653"/>
<stop offset="0.89" stop-color="#424851"/>
<stop offset="0.92" stop-color="#4E4E4D"/>
<stop offset="0.94" stop-color="#615A47"/>
<stop offset="0.96" stop-color="#7C693E"/>
<stop offset="0.98" stop-color="#9F7E32"/>
<stop offset="1" stop-color="#D29C21"/>
</radialGradient>
</defs>
</svg>
