<svg width="480" height="436" viewBox="0 0 480 436" fill="none" xmlns="http://www.w3.org/2000/svg">
<path d="M338.762 247.023L372.412 259.838L320.316 255.047L291.579 252.404L313.448 271.234L343.583 297.18L311.691 285.22L291.207 277.538L299.996 297.572L336.621 381.048L241.413 330.917L223.241 321.349L227.119 337.105L220.599 326.39L214.047 344.506L195.823 394.894L190.488 344.781L188.418 325.333L174.72 339.294L134.626 380.16L148.862 343.724L154.347 329.683L139.348 331.18L72.6744 337.83L123.848 301.738L142.852 288.335L119.829 285.056L51.3512 275.304L148.243 249.785L177.855 241.985L148.866 232.12L95.0453 213.804L130.711 207.402L150.016 203.937L135.042 191.269L70.1059 136.334L138.862 146.586L159.984 149.735L147.806 132.193L106.226 72.2924L171.899 97.406L188.897 103.906L184.101 86.3512L168.025 27.5169L216.598 70.646L223.682 76.936L229.786 69.6912L257.671 36.5961L255.191 91.2814L254.468 107.21L268.641 99.9045L292.938 87.3799L281.997 112.023L269.399 140.395L295.453 123.515L314.6 111.11L305.179 121.496L288.847 139.499L313.012 136.874L400.343 127.388L332.983 176.328L318.013 187.205L335.707 192.622L389.41 209.065L338.555 229.852L316.909 238.7L338.762 247.023Z" fill="#FFF08B" stroke="#FDE021" stroke-width="18.4615"/>
<path d="M219.615 206.34L214.308 205.301L214.762 204.206L212.672 203.283L200.673 198.654L201.652 196.831C196.807 192.336 194.87 186.516 195.866 179.424C178.597 164.03 174.049 145.475 181.969 122.831C186.905 106.983 197.05 95.5211 211.347 89.6656C223.984 84.4882 239.699 83.7235 258.044 87.3941L258.435 87.4894C259.394 87.6854 260.337 87.9059 261.27 88.1332C295.47 96.4684 311.98 117.59 310.343 150.898C310.2 157.576 308.845 164.289 306.318 170.866C299.557 189.236 285.448 199.515 264.339 201.46C263.25 202.965 261.671 204.783 259.343 206.466L258.726 206.918L258.061 207.293C257.125 207.818 256.159 208.27 255.147 208.644L255.091 210.89L244.076 210.117L243.176 210.105L243.223 211.463L236.736 209.976L230.398 209.853L230.604 208.576L228.278 208.046L224.973 207.401L224.642 208.573L219.595 206.345L219.615 206.34Z" fill="#010101" stroke="black" stroke-width="0.923077" stroke-miterlimit="10"/>
<path d="M207.094 171.954C214.195 178.355 201.163 184.462 215.862 190.521C215.982 190.569 216.091 190.623 216.211 190.672C216.611 189.253 217.35 187.72 217.62 186.919C218.449 185.088 219.546 181.42 221.507 181.672L221.561 181.684C223.127 182.942 221.478 185.901 220.595 188.303C220.036 189.523 219.601 190.81 219.049 191.843C222.481 193.169 226.061 194.23 229.671 195.053C229.613 193.354 230.151 191.094 230.249 190.072C230.624 188.177 230.843 184.559 232.708 184.354L232.761 184.367C234.487 185.202 233.567 188.452 233.267 190.93C232.934 192.572 232.824 194.344 232.301 195.61C235.362 196.215 238.426 196.651 241.435 196.923C241.77 196.938 242.112 196.965 242.462 196.994C242.487 196.002 242.621 194.905 242.701 193.682C242.864 191.537 243.262 186.173 245.463 187.689C246.359 188.802 246.198 190.513 246.109 192.158C245.943 193.54 245.903 195.488 245.629 197.163C247.763 197.203 249.892 196.997 251.732 195.967C255.969 192.885 254.259 189.117 261.373 188.676C276.24 187.723 288.393 182.174 294.197 166.274C296.156 161.224 297.303 155.836 297.4 150.436C298.862 122.076 285.094 106.556 255.685 100.142L255.517 100.101C224.691 93.9442 202.056 101.486 194.263 126.901C187.454 146.171 191.62 159.549 207.085 171.952L207.094 171.954ZM263.367 125.976C272.286 123.254 282.246 133.807 284.789 145.696C287.334 157.577 282.921 165.842 272.576 169.017C263.316 171.863 255.032 167.434 252.487 155.553C249.942 143.672 254.438 128.705 263.356 125.983L263.367 125.976ZM240.353 158.772C241.991 159.152 243.925 160.876 245.03 163.104C246.367 165.774 246.011 168.135 244.239 168.381C242.605 168.604 240.328 166.938 238.945 164.577C236.634 166.038 233.848 166.47 232.499 165.52C231.038 164.486 231.803 162.224 234.213 160.467C236.216 158.997 238.723 158.356 240.353 158.772ZM208.795 127.175C216.498 117.792 230.18 113.001 236.858 119.515C243.534 126.038 240.672 141.403 232.969 150.787C225.265 160.17 215.886 160.294 208.955 153.502C201.219 145.92 201.083 136.556 208.788 127.164L208.795 127.175Z" fill="#010101" stroke="black" stroke-width="0.923077" stroke-miterlimit="10"/>
<path d="M183.407 218.644C179.561 217.593 176.207 215.213 173.959 211.917L173.807 211.691C173.561 211.311 173.341 210.937 173.137 210.577C169.145 208.267 164.914 206.05 160.523 203.991C156.579 202.145 152.515 200.439 148.42 198.905C146.162 199.296 143.905 199.217 141.685 198.676C136.153 197.327 131.574 193.095 129.74 187.63C127.984 182.42 128.871 176.79 132.088 172.405C133.137 168.274 135.671 164.768 139.306 162.463C143.164 160.014 147.899 159.219 152.313 160.295C154.533 160.836 156.656 161.852 158.472 163.245C160.626 164.834 161.995 166.712 162.873 168.291C170.208 172.714 178.333 176.634 187.537 180.176C189.824 179.783 192.187 179.85 194.487 180.411C197.658 181.183 200.484 182.832 202.68 185.175C207.978 190.75 208.76 199.31 204.602 205.79C204.418 206.084 204.229 206.358 204.042 206.624C203.861 207.332 203.613 208.082 203.275 208.856C200.137 216.479 191.903 220.724 183.875 218.767C183.715 218.728 183.556 218.689 183.387 218.648L183.407 218.644Z" fill="#010101" stroke="black" stroke-width="0.923077" stroke-miterlimit="10"/>
<path d="M146.366 186.09C147.065 185.96 147.69 185.556 148.394 185.446L148.52 185.429C149.023 185.373 149.571 185.516 150.065 185.693C155.485 187.616 160.824 189.802 166.024 192.246C171.716 194.913 177.29 197.872 182.656 201.147C183.968 201.862 183.87 203.391 184.658 204.6C185.164 205.344 185.959 205.905 186.834 206.137C188.675 206.652 190.689 205.637 191.372 203.789C191.834 202.856 191.421 201.729 191.765 200.815C192.191 200.025 193.215 199.682 193.664 198.878C194.687 197.376 194.489 195.323 193.286 194.079C192.112 192.795 190.1 192.559 188.589 193.358C187.721 193.758 186.87 193.777 185.994 193.432C174.536 189.218 163.362 184.029 153.065 177.434C151.948 176.456 152.088 174.523 150.719 173.615C148.59 171.844 145.17 173.034 144.612 175.798C144.385 176.58 144.712 177.479 144.389 178.229C144.017 178.947 143.122 179.266 142.659 179.934C140.43 182.686 142.976 186.808 146.386 186.086L146.366 186.09Z" fill="#010101" stroke="black" stroke-width="0.923077" stroke-miterlimit="10"/>
<path d="M263.573 235.492C258.12 234.163 253.631 230.103 251.754 224.854C251.46 224.085 251.256 223.339 251.114 222.645C251.073 222.579 251.031 222.521 250.99 222.455C246.658 215.731 247.732 206.691 253.538 201.214C256.694 198.207 260.994 196.534 265.358 196.61L265.667 196.619C266.673 196.657 267.703 196.795 268.71 197.022C277.413 194.143 285.909 190.527 294.024 186.234C294.925 184.806 296.292 183.087 298.341 181.619C302.296 178.732 307.283 177.753 312.088 178.924C318.313 180.442 323.146 185.376 324.504 191.563C324.518 191.623 324.531 191.683 324.545 191.743C324.581 191.789 324.606 191.842 324.641 191.889C328.368 197.58 328.28 204.846 324.386 210.506C320.475 216.2 313.717 218.893 307.091 217.438C302.915 218.793 298.756 220.312 294.709 221.991C290.224 223.844 285.886 225.866 281.763 228.015C281.592 228.294 281.412 228.57 281.219 228.862L281.061 229.087L280.894 229.31C278.51 232.467 275.078 234.671 271.216 235.547C268.716 236.124 266.078 236.103 263.582 235.495L263.573 235.492Z" fill="#010101" stroke="black" stroke-width="0.923077" stroke-miterlimit="10"/>
<path d="M265.149 209.57C264.156 209.554 263.146 209.958 262.435 210.641C261.135 211.85 260.877 213.962 261.914 215.504C262.344 216.249 263.262 216.652 263.602 217.422C263.923 218.348 263.496 219.449 263.899 220.385C264.502 222.245 266.464 223.345 268.318 222.912C269.193 222.72 270.005 222.202 270.554 221.489C271.395 220.272 271.455 218.743 272.85 218.075C278.326 215.079 283.989 212.401 289.751 210.011C295.021 207.831 300.407 205.905 305.864 204.231C306.413 204.064 307.01 203.927 307.554 204.012L307.669 204.04C308.22 204.137 308.745 204.416 309.273 204.601C312.622 205.878 315.812 201.92 313.741 198.902C313.31 198.156 312.399 197.765 312.052 196.984C311.746 196.193 312.094 195.261 311.862 194.433C311.341 191.735 308.052 190.52 305.911 192.135C304.287 193.246 304.447 195.61 302.555 196.354C292.149 202.066 281.2 206.722 269.884 210.253C268.165 211.021 266.894 209.628 265.143 209.559L265.149 209.57Z" fill="#010101" stroke="black" stroke-width="0.923077" stroke-miterlimit="10"/>
<path d="M115.253 311.585C108.619 309.969 103.559 304.772 102.172 298.239C101.846 296.907 101.735 295.656 101.734 294.536C101.303 293.64 100.912 292.612 100.639 291.454C99.2424 286.236 100.348 280.593 103.672 276.235C107.011 271.852 112.17 269.277 117.591 269.261C119.003 269.219 120.404 269.373 121.781 269.708C123.015 270.009 124.091 270.422 124.994 270.849C136.029 269.481 147.431 266.912 159.664 263.049C159.897 262.748 160.159 262.444 160.438 262.145L160.63 261.938C164.528 257.851 170.169 255.883 175.766 256.654C176.376 256.737 176.989 256.849 177.592 256.996C185.043 258.812 190.48 265.324 190.988 272.961C191.024 273.356 191.044 273.737 191.049 274.106C192.987 278.175 193.285 282.879 191.827 287.26C190.213 292.129 186.616 296.026 181.963 297.952C178.484 299.42 174.57 299.737 170.902 298.843C169.908 298.601 168.935 298.269 168.008 297.864L167.821 297.781C167.821 297.781 167.585 297.667 167.561 297.652C161.657 298.492 155.634 299.631 149.608 301.053C144.051 302.363 138.49 303.927 133.047 305.698C132.86 305.925 132.653 306.157 132.446 306.389C128.163 311.135 121.622 313.128 115.273 311.581L115.253 311.585Z" fill="#010101" stroke="black" stroke-width="0.923077" stroke-miterlimit="10"/>
<path d="M177.592 277.162C177.46 276.114 178.227 275.086 178.069 273.993C177.994 271.744 176.212 269.784 174.047 269.52C172.585 269.305 171.017 269.836 169.996 270.905C168.83 272.184 168.649 273.976 166.79 274.389C152.466 279.117 137.675 282.667 122.656 284.175C120.922 283.997 119.767 282.087 117.8 282.248C114.705 282.134 112.248 285.282 113.193 288.29C113.43 289.6 114.727 290.339 115.194 291.479C115.26 292.757 114.382 294.012 114.806 295.367C115.418 299.122 120.476 300.449 122.889 297.638C123.549 296.971 123.795 295.995 124.405 295.306L124.491 295.223C124.867 294.835 125.444 294.589 125.977 294.408C132.759 292.079 139.656 290.088 146.629 288.445C154.12 286.684 161.717 285.297 169.357 284.354C170.931 284.069 171.833 285.352 173.205 286.016C174.386 286.539 175.762 286.526 176.96 286.009C179.504 284.981 180.572 281.664 179.151 279.303C178.778 278.515 177.83 278.002 177.6 277.165L177.592 277.162Z" fill="#010101" stroke="black" stroke-width="0.923077" stroke-miterlimit="10"/>
<path d="M261.006 365.452C252.312 363.333 246.463 354.949 247.51 346.25C247.541 345.928 247.588 345.619 247.639 345.331C245.405 340.041 242.94 334.807 240.292 329.746C237.418 324.263 234.332 318.953 231.093 313.927C231.066 313.921 230.821 313.804 230.821 313.804L230.637 313.712C226.287 311.635 222.943 307.817 221.435 303.212C219.843 298.418 220.423 293.155 223.047 288.738C225.405 284.756 229.165 281.896 233.517 280.707C237.764 277.081 243.666 275.629 249.225 276.984C252.005 277.661 254.583 279.015 256.691 280.912C260.912 284.644 263.111 290.198 262.581 295.793L262.55 296.078C262.497 296.489 262.44 296.879 262.372 297.239C267.477 309.038 273.015 319.361 279.217 328.612C281.052 329.427 283.324 330.8 285.262 333.164C288.799 337.275 290.235 342.869 289.112 348.273C287.998 353.641 284.462 358.175 279.611 360.533C278.557 361.076 277.524 361.455 276.568 361.712C275.722 362.447 274.699 363.177 273.475 363.801C269.674 365.898 265.28 366.484 261.017 365.445L261.006 365.452Z" fill="#010101" stroke="black" stroke-width="0.923077" stroke-miterlimit="10"/>
<path d="M275.319 341.503C274.145 339.908 271.948 340.277 270.677 339.082C261.982 326.728 254.963 313.201 249.143 299.269C248.232 297.597 249.471 296.289 249.672 294.568C249.813 293.096 249.18 291.557 248.061 290.588C246.223 288.897 243.068 289.107 241.431 291.044C240.883 291.597 240.652 292.511 239.968 292.89C239.19 293.265 238.183 292.879 237.345 293.117C234.628 293.575 232.833 296.556 233.726 299.156C234.12 300.4 235.023 301.449 236.177 302.003C237.571 302.616 239.135 302.451 239.946 303.835C244.234 310.238 248.17 316.893 251.751 323.726C255.082 330.084 258.101 336.6 260.792 343.264C261.013 343.788 261.199 344.38 261.151 344.924L261.141 345.043C261.023 345.956 260.448 346.777 260.379 347.72C259.839 351.383 264.154 354.337 267.391 352.357C268.664 351.801 269.055 350.305 270.062 349.525C271.23 349.131 272.632 349.633 273.776 348.951C276.667 347.697 277.429 343.778 275.315 341.521L275.319 341.503Z" fill="#010101" stroke="black" stroke-width="0.923077" stroke-miterlimit="10"/>
<path d="M192.432 298.607C182.397 296.162 174.945 290.551 171.468 282.822C168.289 275.768 168.808 267.581 172.915 259.761L173.048 259.52C177.404 251.647 184.865 245.821 192.991 243.923C197.156 242.961 201.531 243.029 206.016 244.122C208.44 244.713 210.831 245.597 213.139 246.743C214.38 247.366 215.491 248.022 216.368 248.556C216.762 248.793 217.254 249.092 217.603 249.281C218.028 249.271 218.657 249.237 219.145 249.205C220.394 249.133 221.95 249.041 223.672 249.112C225.854 249.192 228.101 249.505 230.268 250.033C231.05 250.223 231.833 250.442 232.591 250.693L232.627 250.702C242.843 253.832 250.53 263.397 252.234 275.138C253.831 286.118 249.541 296.361 241.045 301.878L240.888 301.981L240.734 302.075C236.319 304.765 228.666 307.391 217.308 304.623C216.02 304.309 214.692 303.929 213.368 303.493C211.047 302.748 209.108 301.786 207.544 301.019C206.746 300.627 205.663 300.09 205.265 299.984C204.952 299.917 203.762 299.9 202.891 299.885C201.233 299.858 199.193 299.813 196.928 299.458C195.399 299.246 193.888 298.962 192.432 298.607Z" fill="#010101" stroke="black" stroke-width="0.923077" stroke-miterlimit="10"/>
<path d="M228.74 263.077L228.606 263.044C226.847 262.465 224.997 262.146 223.15 262.082C219.9 261.949 216.59 262.799 213.548 261.653C211.34 260.87 209.457 259.404 207.366 258.367C203.784 256.581 199.649 255.714 195.933 256.569C191.05 257.704 186.791 261.458 184.376 265.83C178.109 277.746 187.321 285.131 198.814 286.642C202.025 287.171 205.35 286.644 208.514 287.444C211.62 288.248 214.306 290.201 217.362 291.172C222.84 292.978 229.267 293.894 234.011 291.012C244.047 284.496 239.622 266.293 228.757 263.081L228.74 263.077ZM202.999 273.89C201.202 276.954 195.638 276.163 193.399 273.8C191.319 271.674 192.601 267.901 195.348 267.281C198.729 266.523 203.945 270.223 203.042 273.787L202.999 273.89ZM225.167 281.796L225.01 281.786C222.433 281.554 218.701 279.957 218.833 276.967C219.096 274.838 222.561 273.272 225.699 273.632C231.626 274.051 231.216 282.178 225.167 281.796Z" fill="#010101" stroke="black" stroke-width="0.923077" stroke-miterlimit="10"/>
<path d="M211.63 271.026C207.243 269.957 203.874 267.676 201.541 264.227C199.402 264.28 197.284 264.055 195.233 263.555C191.494 262.644 188.068 260.906 184.447 258.074L184.164 257.845C183.906 257.631 183.609 257.418 183.309 257.185C181.68 255.95 179.227 254.081 177.234 251.401C173.384 246.254 172.591 240.026 175.048 234.316L175.484 233.293L176.085 232.366C176.371 231.927 176.669 231.51 176.984 231.107C176.155 226.612 177.292 221.964 180.054 218.335C179.659 216.082 179.715 213.563 180.514 210.774L180.588 210.471L180.697 210.178C181.272 208.463 182.111 206.907 183.157 205.542C182.272 200.544 183.777 195.346 187.296 191.581C191.299 187.293 197.323 185.494 203.024 186.884C203.335 186.96 203.652 187.046 203.959 187.14C207.397 188.166 210 189.959 211.902 191.27C212.161 191.445 212.459 191.65 212.726 191.828C212.923 191.829 213.198 191.821 213.562 191.796L214.441 191.738C215.101 191.691 215.999 191.637 216.619 191.562C219.899 189.791 225.248 187.319 231.634 188.876C235.23 189.752 238.496 191.8 241.09 194.796C242.034 195.864 242.713 196.83 243.216 197.545C243.216 197.545 243.23 197.568 243.236 197.579C243.602 197.818 243.964 198.067 244.33 198.306C245.39 199.017 246.944 200.054 247.708 200.392C247.996 200.368 248.484 200.298 248.853 200.247C250.537 200.017 252.822 199.708 255.486 199.933C256.495 200 257.493 200.149 258.47 200.387C264.713 201.909 269.407 206.716 270.722 212.93C271.724 217.675 270.58 222.471 267.697 226.212C268.394 230.355 267.567 234.466 265.32 237.91C265.096 238.251 264.868 238.572 264.631 238.891C264.831 240.041 264.919 241.23 264.863 242.431C264.716 245.87 263.525 249.11 261.513 251.746C262.273 256.093 261.244 260.606 258.624 264.157C254.609 269.656 248.496 271.01 246.188 271.53L246.029 271.567C243.611 272.07 241.033 272.58 238.217 272.789C235.825 273.072 233.363 272.905 230.894 272.303C228.283 271.667 225.978 270.625 223.989 269.519C220.361 271.6 216.29 272.134 211.821 271.092L211.626 271.044L211.63 271.026Z" fill="#010101" stroke="black" stroke-width="0.923077" stroke-miterlimit="10"/>
<path d="M232.176 216.5C235.241 216.504 237.736 219.211 240.419 220.364L240.537 220.421C244.392 222.443 248.53 221.399 252.669 220.582C254.079 220.276 255.782 219.768 256.732 218.992C259.392 216.947 258.055 212.997 254.57 212.863C252.42 212.65 250.157 213.294 247.988 213.358C242.969 213.613 239.098 210.26 235.029 207.686C233.307 206.372 232.687 204.818 231.347 203.324C228.312 199.741 224.939 201.781 221.635 203.612C219.813 204.458 216.987 204.551 214.355 204.738C212.602 204.829 210.818 204.855 209.128 204.377C206.093 203.666 203.301 200.443 200.218 199.541C197.564 198.697 195.229 201.188 196.021 203.697C196.54 205.631 199.004 207.493 201.214 209.199C202.685 210.311 204.273 211.479 205.951 212.162C209.471 213.782 213.844 212.155 217.437 213.049C218.627 213.415 219.149 214.173 219.023 214.924C218.215 217.711 211.743 217.367 209.266 217.536C205.143 217.783 202.098 214.979 198.795 212.969C196.765 211.683 193.804 211.828 192.97 214.299C191.991 217.751 195.441 219.74 198.231 222.04C200.76 224.021 203.507 225.726 206.821 225.677C209.196 225.813 212.199 225.105 214.438 225.839C216.435 226.523 216.358 228.275 214.677 229.117C212.627 230.086 209.991 230.094 207.721 230.265C204.513 230.538 201.558 229.808 198.944 227.863C197.263 226.728 195.458 225.215 193.439 224.93C191.171 224.546 189.312 226.626 189.73 228.78C190.183 231.179 192.765 232.9 195.139 234.787C197.668 236.769 200.415 238.474 203.728 238.425C206.103 238.561 209.106 237.853 211.346 238.587C212.527 238.988 213.009 239.792 212.793 240.568C211.693 243.162 206.311 242.783 203.766 243.038C201.791 243.075 199.979 242.868 198.215 241.996C194.846 240.572 190 234.721 186.933 239.416C185.321 243.156 189.92 245.755 192.403 247.81C195.18 249.975 197.996 251.433 201.634 251.209C203.938 251.441 209.925 249.482 210.812 252.184C211.305 254.922 211.392 257.626 214.74 258.404C218.052 259.174 219.421 256.749 220.968 254.443C223.488 251.423 230.303 260.823 236.942 259.823C239.1 259.69 241.265 259.257 243.383 258.823C245.182 258.423 247.16 257.87 248.186 256.434C249.451 254.747 248.724 252.122 246.7 251.431C243.474 250.343 239.853 252.087 236.482 251.52C233.438 251.079 230.857 249.198 227.949 247.379C226.979 246.728 225.887 245.953 225.205 245.043C223.928 243.329 224.758 241.573 226.991 242.061C229.429 242.636 231.643 244.597 233.916 245.697C236.922 247.381 239.952 247.3 243.21 246.701C245.548 246.254 248.266 245.946 250.263 244.691C252.232 243.514 252.578 240.539 250.656 239.157C247.726 237.275 243.968 239.118 240.71 238.861C237.276 238.786 234.637 236.872 231.407 234.87C230.49 234.27 229.503 233.606 228.751 232.83C226.578 230.699 227.982 228.283 231.023 229.589C233.008 230.365 234.844 231.829 236.759 232.814C240.071 234.75 243.445 234.528 247.051 233.815C250.261 233.261 255.945 232.396 254.86 227.989C253.963 225.134 250.266 225.41 247.801 225.798C242.385 226.916 239.019 225.126 234.633 222.193C233.187 221.21 230.978 219.89 230.792 218.093C230.725 217.248 231.307 216.552 232.169 216.489L232.176 216.5Z" fill="#010101" stroke="black" stroke-width="0.923077" stroke-miterlimit="10"/>
<path d="M128.01 193.089C121.331 191.462 117.709 187.472 115.847 184.41L115.699 184.167L115.562 183.917C110.806 175.291 113.153 164.066 120.902 158.375L121.049 158.27C124.268 155.976 129.86 153.667 138.265 155.621C138.589 155.681 138.92 155.752 139.249 155.832C150.421 158.555 157.569 169.063 155.189 179.263L155.111 179.583C152.91 188.349 144.355 194.182 134.265 193.823C132.729 193.797 130.463 193.678 128.003 193.078L128.01 193.089Z" fill="#010101" stroke="black" stroke-width="0.923077" stroke-miterlimit="10"/>
<path d="M134.615 180.868C137.575 180.996 141.692 179.843 142.56 176.421L142.588 176.305C143.516 172.323 139.315 168.936 135.609 168.315C133.744 167.861 130.594 167.394 128.569 168.84C125.902 170.798 125.351 174.854 126.897 177.669C128.639 180.532 132.121 180.834 134.613 180.877L134.615 180.868Z" fill="#010101" stroke="black" stroke-width="0.923077" stroke-miterlimit="10"/>
<path d="M134.845 180.045C131.106 179.134 127.835 176.877 125.612 173.671C122.92 169.879 121.496 164.89 121.691 159.938L121.702 159.583L121.81 158.479L121.928 157.877C122.985 152.354 126.053 149.364 128.448 147.829C131.681 145.745 135.542 145.104 139.317 146.024C144.868 147.377 148.408 151.667 150.405 155.026C152.208 158.064 154.083 162.588 153.274 167.475C152.685 171.607 150.503 175.293 147.196 177.679C143.66 180.235 139.153 181.095 134.845 180.045Z" fill="#010101" stroke="black" stroke-width="0.923077" stroke-miterlimit="10"/>
<path d="M134.644 160.478C134.568 162.38 135.071 164.649 136.221 166.229C137.484 168.119 140.265 167.977 140.477 165.477C141.082 163.214 135.674 155.07 134.661 160.331L134.644 160.478Z" fill="#010101" stroke="black" stroke-width="0.923077" stroke-miterlimit="10"/>
<path d="M117.125 179.939C114.096 179.201 109.661 177.828 106.065 174.429C102.179 170.751 100.608 165.633 101.874 160.725C103.204 155.551 107.416 151.72 112.864 150.703C116.143 150.1 119.648 150.267 123.573 151.223C124.479 151.444 125.412 151.709 126.363 152.016C141.368 156.85 139.755 167.726 139.142 170.288L139.041 170.706L138.902 171.162C137.976 174.128 133.78 183.556 118.792 180.317L118.685 180.291C118.193 180.19 117.658 180.069 117.116 179.937L117.125 179.939Z" fill="#010101" stroke="black" stroke-width="0.923077" stroke-miterlimit="10"/>
<path d="M114.963 165.007C116.515 166.478 119.328 167.172 121.394 167.61C122.457 167.841 126.109 168.683 126.545 167.274L126.558 167.221C126.905 165.866 123.322 164.663 122.398 164.363C120.2 163.658 117.481 163.042 115.225 163.462C114.88 163.528 114.491 163.659 114.415 163.97C114.322 164.353 114.68 164.741 114.963 165.007Z" fill="#010101" stroke="black" stroke-width="0.923077" stroke-miterlimit="10"/>
<path d="M113.172 185.408C111.112 184.906 104.824 183.374 101.559 177.447C99.7124 174.088 99.3462 170.091 100.572 166.474C103.21 158.624 110.837 157.075 115.142 156.853L115.238 156.848C118.379 156.654 121.517 156.9 124.55 157.583C124.754 157.633 124.976 157.687 125.207 157.743C134.132 159.918 136.919 165.682 137.79 168.916L138.42 171.244L138.134 173.971L138.079 174.353C137.486 178.116 135.3 181.509 132.069 183.659C125.765 187.856 116.751 186.281 113.172 185.408Z" fill="#010101" stroke="black" stroke-width="0.923077" stroke-miterlimit="10"/>
<path d="M125.293 172.319L125.306 172.266C124.962 171.006 122.931 170.501 121.728 170.227C119.873 169.813 117.923 169.667 116.034 169.781C115.376 169.818 113.107 169.868 112.859 170.617C112.049 173.026 124.925 174.649 125.295 172.31L125.293 172.319Z" fill="#010101" stroke="black" stroke-width="0.923077" stroke-miterlimit="10"/>
<path d="M112.178 191.363C107.063 190.117 104.316 187.131 102.905 184.848C100.455 180.871 100.207 175.999 102.262 171.83C105.844 164.55 113.811 163.733 116.81 163.428C118.768 163.227 120.415 163.186 122.054 163.294C122.823 163.34 124.48 163.452 126.291 163.893C134.257 165.835 137.321 172.127 137.52 176.93L137.594 178.756L137.167 180.591L137.141 180.585C136.174 184.727 132.869 190.983 121.796 192.003C119.631 192.201 117.459 192.161 115.305 191.89L115.158 191.873C114.555 191.801 113.43 191.669 112.16 191.359L112.178 191.363Z" fill="#010101" stroke="black" stroke-width="0.923077" stroke-miterlimit="10"/>
<path d="M121.208 176.241C120.208 176.176 119.218 176.226 118.215 176.33C117.53 176.399 113.162 176.803 113.931 178.054C114.397 178.807 116.127 178.928 116.956 179.036C118.161 179.188 119.395 179.216 120.609 179.097C121.418 179.021 124.633 178.713 124.59 177.535L124.585 177.478C124.538 176.431 121.986 176.289 121.199 176.238L121.208 176.241Z" fill="#010101" stroke="black" stroke-width="0.923077" stroke-miterlimit="10"/>
<path d="M314.535 210.578C312.412 210.061 310.42 209.161 308.616 207.911L308.342 207.722C304.257 204.787 301.638 200.345 300.954 195.216C300.197 189.533 301.905 183.424 305.527 178.771C310.573 171.771 316.294 169.823 320.228 169.426L320.412 169.405C322.428 169.237 324.451 169.391 326.431 169.874C333.803 171.67 339.613 177.653 341.246 185.113L341.301 185.39L341.347 185.665C342.852 194.392 338.041 200.922 333.673 204.894C329.413 208.884 322.193 212.435 314.519 210.565L314.535 210.578Z" fill="#010101" stroke="black" stroke-width="0.923077" stroke-miterlimit="10"/>
<path d="M315.893 197.19L315.988 197.261C318.888 199.267 322.748 197.43 324.9 195.384C326.755 193.708 329.172 191.19 328.6 187.887C327.92 184.755 324.83 182.062 321.536 182.342C319.059 182.586 316.994 185.011 315.887 186.587C313.509 189.491 312.576 194.81 315.89 197.199L315.893 197.19Z" fill="#010101" stroke="black" stroke-width="0.923077" stroke-miterlimit="10"/>
<path d="M308.441 200.902C305.989 200.304 303.7 199.078 301.778 197.348C295.717 192.01 294.144 181.279 296.995 174.8C299.82 168.389 306.496 165.063 313.237 166.706C315.377 167.228 317.425 168.245 319.324 169.724L319.814 170.107L320.626 170.87L320.865 171.126C324.272 174.725 326.483 179.416 326.951 184.04C327.522 189.132 325.636 194.152 321.877 197.51C318.213 200.788 313.192 202.06 308.441 200.902Z" fill="#010101" stroke="black" stroke-width="0.923077" stroke-miterlimit="10"/>
<path d="M310.369 187.644C312.174 189.393 314.352 187.664 314.062 185.409C313.885 183.464 312.772 181.422 311.461 180.039L311.354 179.937C307.131 176.639 308.42 186.331 310.36 187.642L310.369 187.644Z" fill="#010101" stroke="black" stroke-width="0.923077" stroke-miterlimit="10"/>
<path d="M319.21 192.524C317.824 192.186 316.499 191.637 315.271 190.886L314.992 190.714L314.725 190.536C312.781 189.206 303.808 182.066 312.125 168.218C314.858 163.658 317.9 160.426 321.426 158.338C324.667 156.417 328.385 155.826 331.893 156.681C333.465 157.064 334.941 157.725 336.282 158.635C340.475 161.512 342.658 166.394 342.156 171.724C341.653 176.977 338.876 181.291 336.51 184.452L336.452 184.533C331.367 191.381 325.571 194.065 319.221 192.517L319.21 192.524Z" fill="#010101" stroke="black" stroke-width="0.923077" stroke-miterlimit="10"/>
<path d="M321.988 179.793L322.037 179.824C323.299 180.593 325.484 177.557 326.139 176.68C327.407 174.984 329.065 172.61 329.27 170.484C329.307 170.098 329.314 169.563 329 169.345C328.742 169.169 328.357 169.32 328.061 169.493C326.085 170.659 324.446 172.916 323.249 174.903C322.747 175.731 320.852 179.008 321.997 179.795L321.988 179.793Z" fill="#010101" stroke="black" stroke-width="0.923077" stroke-miterlimit="10"/>
<path d="M323.503 195.519C321.487 195.027 319.586 194.065 318.005 192.747L317.709 192.496L315.71 190.616L314.633 188.461C312.783 184.686 311.712 178.634 317.146 171.202C318.988 168.685 321.19 166.435 323.69 164.502L323.75 164.451C325.644 162.963 330.669 159 337.472 160.658C338.733 160.965 339.942 161.448 341.053 162.105C346.038 165.015 349.917 171.826 346.664 179.922C344.99 184.071 341.753 187.679 339.968 189.457C334.582 194.829 329.045 196.869 323.512 195.521L323.503 195.519Z" fill="#010101" stroke="black" stroke-width="0.923077" stroke-miterlimit="10"/>
<path d="M326.263 182.746L326.301 182.783C328.116 184.299 336.745 174.594 334.546 173.305C333.869 172.914 332.134 174.365 331.603 174.772C330.099 175.931 328.727 177.32 327.6 178.863C326.871 179.853 325.681 181.578 326.254 182.744L326.263 182.746Z" fill="#010101" stroke="black" stroke-width="0.923077" stroke-miterlimit="10"/>
<path d="M327.549 199.075C324.644 198.367 322.011 196.699 320.149 194.371C317.108 190.58 315.267 183.823 319.99 177.112C321.064 175.594 322.233 174.419 322.741 173.912C323.946 172.709 325.217 171.654 326.786 170.539C329.16 168.858 334.635 164.976 341.305 166.601C346.536 167.876 350.495 172.146 351.384 177.475C352.549 184.463 348.206 189.261 346.778 190.843L346.676 190.95C345.238 192.577 343.623 194.038 341.865 195.314C340.016 196.652 334.387 200.741 327.549 199.075Z" fill="#010101" stroke="black" stroke-width="0.923077" stroke-miterlimit="10"/>
<path d="M330.21 186.203L330.245 186.249C330.981 187.172 333.622 185.283 334.272 184.811C335.265 184.092 336.17 183.268 336.984 182.355C337.543 181.719 338.77 180.502 338.617 179.618C338.377 178.165 334.817 180.744 334.259 181.145C333.44 181.727 332.662 182.337 331.944 183.047C331.396 183.601 329.552 185.384 330.207 186.212L330.21 186.203Z" fill="#010101" stroke="black" stroke-width="0.923077" stroke-miterlimit="10"/>
<path d="M275.979 389.114C265.126 386.431 260.318 376.126 258.691 372.557C254.241 363.252 253.707 350.722 262.513 343.538L262.829 343.285C267.355 339.746 273.064 338.586 278.917 340.013C285.249 341.556 291.556 346.304 295.481 352.458C300.108 359.131 302.082 365.534 301.358 371.506L301.335 371.679C300.551 377.429 297.542 382.43 292.856 385.77C288.168 389.119 282.217 390.389 276.548 389.252L276.263 389.183L275.977 389.123L275.979 389.114Z" fill="#010101" stroke="black" stroke-width="0.923077" stroke-miterlimit="10"/>
<path d="M288.511 369.91C288.948 366.325 286.419 362.056 284.696 359.621C281.623 354.644 274.963 350.263 270.818 353.508L270.701 353.602C267.183 356.473 268.406 362.91 270.418 367.063C272.031 370.61 274.579 375.421 279.08 376.528C283.386 377.389 287.86 374.647 288.502 369.908L288.511 369.91Z" fill="#010101" stroke="black" stroke-width="0.923077" stroke-miterlimit="10"/>
<path d="M289.249 389.296C284.231 388.073 279.912 384.242 277.979 379.299C276.145 374.606 276.671 369.377 279.392 365.294L280.223 364.038L282.001 362.371L282.673 361.885C286.082 359.43 290.438 358.609 294.63 359.63C301.557 361.319 306.912 367.51 307.358 374.36C307.768 380.656 304.001 386.451 297.99 388.78L297.482 388.976L296.964 389.133C294.473 389.863 291.807 389.919 289.249 389.296Z" fill="#010101" stroke="black" stroke-width="0.923077" stroke-miterlimit="10"/>
<path d="M290.247 372.422L290.174 372.489C288.963 374.303 291.359 377.259 293.323 376.683C296.489 375.459 292.084 371.09 290.247 372.422Z" fill="#010101" stroke="black" stroke-width="0.923077" stroke-miterlimit="10"/>
<path d="M286.263 392.797C280.668 391.434 275.982 386.789 274.322 380.952C272.767 375.498 274.13 369.917 277.956 366.01L279.118 364.825L281.297 363.52L282.016 363.196C284.895 361.911 288.056 361.636 291.165 362.394C297.381 363.909 302.525 369.578 303.673 376.167C304.704 382.076 302.302 387.752 297.411 390.967L296.425 391.621L295.335 392.08C292.464 393.292 289.338 393.537 286.274 392.791L286.263 392.797Z" fill="#010101" stroke="black" stroke-width="0.923077" stroke-miterlimit="10"/>
<path d="M287.286 375.054L287.208 375.101C285.434 376.909 288.325 380.966 290.295 380.137C292.343 378.791 289.12 374.239 287.297 375.047L287.286 375.054Z" fill="#010101" stroke="black" stroke-width="0.923077" stroke-miterlimit="10"/>
<path d="M277.903 396.252C272.29 394.884 268.076 390.308 266.9 384.296C265.681 378.077 267.989 371.822 272.791 368.351L273.92 367.534L275.949 366.654L276.814 366.384C279.143 365.7 281.63 365.647 284.001 366.225C288.673 367.363 292.627 370.954 294.586 375.828C296.502 380.532 296.048 385.817 293.37 389.994C290.872 393.895 286.71 396.355 282.177 396.625C280.734 396.716 279.297 396.592 277.903 396.252Z" fill="#010101" stroke="black" stroke-width="0.923077" stroke-miterlimit="10"/>
<path d="M280.455 378.825L280.371 378.861C278.888 379.931 279.436 383.84 281.374 383.681C282.389 383.646 283.209 382.208 282.571 380.687C282.235 379.823 281.366 378.557 280.444 378.831L280.455 378.825Z" fill="#010101" stroke="black" stroke-width="0.923077" stroke-miterlimit="10"/>
<path d="M281.786 394.777C276.173 393.41 271.959 388.833 270.784 382.822C269.564 376.602 271.872 370.348 276.674 366.876L277.85 366.024L279.885 365.155L280.697 364.91C283.035 364.227 285.515 364.163 287.887 364.741C292.558 365.88 296.512 369.47 298.472 374.345C300.381 379.038 299.936 384.324 297.266 388.504C294.768 392.405 290.604 394.874 286.08 395.146C284.637 395.237 283.2 395.113 281.797 394.771L281.786 394.777Z" fill="#010101" stroke="black" stroke-width="0.923077" stroke-miterlimit="10"/>
<path d="M284.338 377.359L284.254 377.395C282.772 378.465 283.319 382.374 285.258 382.216C286.273 382.181 287.092 380.742 286.454 379.221C286.118 378.358 285.249 377.091 284.327 377.366L284.338 377.359Z" fill="#010101" stroke="black" stroke-width="0.923077" stroke-miterlimit="10"/>
<path d="M89.4428 318.287C87.9775 317.93 86.5598 317.415 85.2122 316.767L84.9431 316.635L84.6851 316.497C79.6103 313.725 75.8519 308.94 74.3845 303.357C72.9238 297.785 73.8068 292.012 76.8812 287.093L76.9733 286.946C80.2218 281.891 85.8383 278.241 93.6615 276.08C98.7885 274.449 104.554 274.216 109.563 275.437C117.423 277.352 123.054 282.792 124.601 289.986L124.684 290.382C126.865 301.553 118.443 310.837 109.076 315.135C105.956 316.634 98.0129 320.376 89.4517 318.289L89.4428 318.287Z" fill="#010101" stroke="black" stroke-width="0.923077" stroke-miterlimit="10"/>
<path d="M111.936 292.718C110.824 287.57 102.909 286.658 97.3716 288.509C94.4953 289.277 89.823 290.934 87.8642 293.969C85.3293 298.021 87.0098 302.997 90.8741 305.097C95.0372 307.128 100.07 305.069 103.583 303.383C107.788 301.48 112.841 297.326 111.968 292.857L111.938 292.709L111.936 292.718Z" fill="#010101" stroke="black" stroke-width="0.923077" stroke-miterlimit="10"/>
<path d="M78.0811 309.543C74.3599 308.637 71.1709 306.428 69.084 303.321L68.7795 302.87L68.5191 302.392C65.6313 297.197 66.0157 291.115 69.5134 286.506C73.2264 281.63 80.014 279.396 86.4172 280.956C91.9678 282.309 96.1041 286.274 97.4586 291.547L97.6726 292.371L97.9704 294.788L97.8097 296.265C97.3511 300.559 95.0191 304.473 91.4232 307.005C87.6023 309.689 82.6125 310.638 78.0743 309.532L78.0811 309.543Z" fill="#010101" stroke="black" stroke-width="0.923077" stroke-miterlimit="10"/>
<path d="M84.9369 294.888L84.923 294.791C84.3562 292.591 78.1802 293.119 79.8383 296.094C80.978 297.793 84.7033 297.053 84.9369 294.888Z" fill="#010101" stroke="black" stroke-width="0.923077" stroke-miterlimit="10"/>
<path d="M78.0697 314.118C73.8868 313.098 70.3816 310.37 68.4546 306.643L67.9111 305.588L67.5664 304.449C66.0385 299.426 67.3192 294.108 70.977 290.235C75.0529 285.918 81.716 283.964 87.542 285.384C91.7693 286.414 95.2726 289.189 97.1379 292.976L97.4908 293.693L98.3272 296.1L98.4647 297.744C98.8588 302.595 96.9173 307.225 93.1311 310.463C89.0253 313.973 83.2584 315.373 78.0808 314.111L78.0697 314.118Z" fill="#010101" stroke="black" stroke-width="0.923077" stroke-miterlimit="10"/>
<path d="M85.5375 298.802L85.5037 298.709C84.6227 296.913 79.2351 298.34 79.9536 300.689C80.9328 302.585 85.743 301.328 85.5397 298.793L85.5375 298.802Z" fill="#010101" stroke="black" stroke-width="0.923077" stroke-miterlimit="10"/>
<path d="M82.074 322.063C79.6672 321.476 77.4491 320.267 75.6443 318.556C72.336 315.443 70.7069 310.875 71.2876 306.271C71.9082 301.347 74.9399 296.992 79.4102 294.617C81.5614 293.465 85.817 291.781 90.7815 292.991C94.2008 293.825 97.145 295.879 99.0953 298.774L99.5095 299.393L100.527 301.364L100.934 302.866C102.261 308.058 100.658 313.58 96.6449 317.639C92.6667 321.669 87.225 323.318 82.0829 322.065L82.074 322.063Z" fill="#010101" stroke="black" stroke-width="0.923077" stroke-miterlimit="10"/>
<path d="M88.3426 305.993C87.803 305.193 86.3362 305.617 85.5235 306.059C84.0679 306.825 83.7774 308.449 84.5335 309.132C85.9237 310.497 88.8339 307.845 88.3875 306.079L88.3493 306.004L88.3426 305.993Z" fill="#010101" stroke="black" stroke-width="0.923077" stroke-miterlimit="10"/>
<path d="M80.0364 318.449C77.6297 317.863 75.4115 316.653 73.6067 314.942C70.2984 311.829 68.6694 307.261 69.25 302.657C69.8706 297.734 72.9023 293.379 77.3748 290.995C79.526 289.843 83.7816 288.159 88.7461 289.369C92.1654 290.202 95.1096 292.257 97.0598 295.152L97.501 295.815L98.4985 297.79L98.8896 299.242C100.217 304.433 98.614 309.955 94.6006 314.014C90.6224 318.044 85.1786 319.702 80.0364 318.449Z" fill="#010101" stroke="black" stroke-width="0.923077" stroke-miterlimit="10"/>
<path d="M86.3435 302.454L86.3053 302.379C85.7656 301.579 84.2989 302.003 83.4861 302.445C82.0305 303.211 81.74 304.835 82.4961 305.518C83.8863 306.884 86.7966 304.231 86.3502 302.465L86.3435 302.454Z" fill="#010101" stroke="black" stroke-width="0.923077" stroke-miterlimit="10"/>
<path d="M207.087 171.952C214.188 178.353 201.156 184.46 215.855 190.519C215.975 190.567 216.084 190.621 216.204 190.67C216.604 189.251 217.343 187.718 217.612 186.917C218.442 185.086 219.539 181.418 221.5 181.67L221.554 181.683C223.12 182.94 221.471 185.899 220.588 188.301C220.028 189.521 219.594 190.808 219.042 191.842C222.474 193.167 226.054 194.228 229.664 195.051C229.606 193.352 230.144 191.092 230.242 190.07C230.617 188.175 230.836 184.557 232.701 184.352L232.754 184.365C234.48 185.2 233.56 188.45 233.26 190.928C232.927 192.57 232.817 194.342 232.294 195.608C235.355 196.213 238.419 196.649 241.428 196.921C241.763 196.936 242.105 196.963 242.455 196.992C242.479 196 242.614 194.903 242.694 193.68C242.857 191.535 243.255 186.171 245.456 187.687C246.352 188.8 246.191 190.512 246.102 192.156C245.936 193.538 245.896 195.486 245.622 197.161C247.756 197.201 249.885 196.995 251.725 195.965C255.962 192.883 254.252 189.115 261.366 188.674C276.233 187.721 288.386 182.172 294.19 166.272C296.149 161.222 297.296 155.834 297.393 150.434C298.854 122.074 285.087 106.554 255.678 100.14L255.509 100.099C224.684 93.9422 202.049 101.485 194.256 126.899C187.447 146.169 191.613 159.547 207.078 171.95L207.087 171.952ZM263.36 125.974C272.279 123.252 282.239 133.805 284.782 145.694C287.327 157.575 282.914 165.84 272.569 169.015C263.309 171.861 255.025 167.432 252.48 155.551C249.935 143.67 254.431 128.703 263.349 125.981L263.36 125.974ZM240.346 158.77C241.984 159.15 243.918 160.874 245.023 163.102C246.36 165.772 246.004 168.133 244.232 168.379C242.598 168.602 240.321 166.936 238.938 164.575C236.627 166.036 233.841 166.468 232.492 165.518C231.031 164.484 231.796 162.222 234.206 160.465C236.209 158.995 238.716 158.354 240.346 158.77ZM208.788 127.173C216.491 117.79 230.173 112.999 236.851 119.513C243.527 126.036 240.665 141.401 232.962 150.785C225.258 160.168 215.879 160.292 208.948 153.5C201.212 145.918 201.076 136.555 208.781 127.162L208.788 127.173Z" fill="white"/>
<path d="M146.359 186.089C147.058 185.958 147.683 185.555 148.387 185.444L148.513 185.427C149.016 185.371 149.564 185.514 150.057 185.691C155.478 187.614 160.817 189.8 166.017 192.244C171.709 194.911 177.283 197.87 182.649 201.145C183.961 201.86 183.863 203.389 184.651 204.598C185.157 205.343 185.952 205.904 186.827 206.136C188.668 206.65 190.682 205.635 191.365 203.787C191.827 202.854 191.414 201.728 191.758 200.814C192.184 200.023 193.208 199.68 193.657 198.876C194.68 197.375 194.482 195.321 193.279 194.077C192.104 192.793 190.093 192.557 188.582 193.356C187.714 193.757 186.863 193.775 185.987 193.43C174.529 189.216 163.355 184.027 153.058 177.432C151.941 176.454 152.081 174.521 150.712 173.613C148.583 171.842 145.163 173.033 144.605 175.796C144.378 176.578 144.705 177.477 144.382 178.227C144.01 178.946 143.115 179.264 142.652 179.932C140.423 182.684 142.968 186.806 146.379 186.084L146.359 186.089Z" fill="white"/>
<path d="M265.143 209.569C264.15 209.553 263.139 209.956 262.428 210.639C261.128 211.848 260.87 213.96 261.907 215.502C262.337 216.247 263.255 216.65 263.595 217.42C263.916 218.346 263.489 219.447 263.892 220.383C264.495 222.243 266.457 223.343 268.312 222.91C269.186 222.718 269.998 222.201 270.547 221.487C271.388 220.27 271.449 218.741 272.843 218.073C278.319 215.077 283.982 212.4 289.745 210.01C295.014 207.829 300.4 205.903 305.857 204.23C306.406 204.062 307.003 203.925 307.547 204.011L307.662 204.039C308.213 204.135 308.738 204.414 309.267 204.599C312.615 205.877 315.805 201.918 313.734 198.9C313.304 198.155 312.392 197.763 312.046 196.982C311.739 196.192 312.087 195.26 311.855 194.431C311.334 191.734 308.045 190.518 305.904 192.133C304.28 193.244 304.44 195.608 302.548 196.352C292.142 202.064 281.193 206.72 269.877 210.252C268.158 211.019 266.887 209.627 265.136 209.558L265.143 209.569Z" fill="white"/>
<path d="M177.584 277.161C177.453 276.112 178.22 275.084 178.062 273.991C177.987 271.742 176.205 269.782 174.04 269.518C172.578 269.303 171.01 269.834 169.989 270.903C168.822 272.182 168.642 273.974 166.783 274.387C152.459 279.115 137.668 282.665 122.649 284.173C120.914 283.995 119.76 282.085 117.793 282.246C114.698 282.132 112.241 285.28 113.186 288.288C113.423 289.598 114.72 290.337 115.187 291.477C115.253 292.755 114.375 294.01 114.799 295.365C115.411 299.12 120.469 300.447 122.882 297.636C123.542 296.969 123.788 295.993 124.398 295.304L124.483 295.221C124.86 294.833 125.437 294.587 125.97 294.406C132.752 292.077 139.649 290.086 146.622 288.444C154.113 286.682 161.71 285.295 169.35 284.352C170.924 284.067 171.826 285.35 173.198 286.014C174.379 286.537 175.755 286.525 176.953 286.007C179.497 284.979 180.565 281.662 179.144 279.301C178.771 278.513 177.823 278 177.593 277.163L177.584 277.161Z" fill="white"/>
<path d="M275.312 341.501C274.138 339.906 271.941 340.275 270.67 339.08C261.975 326.726 254.956 313.199 249.137 299.267C248.225 297.595 249.464 296.287 249.666 294.566C249.806 293.094 249.173 291.555 248.054 290.586C246.216 288.895 243.061 289.105 241.425 291.042C240.876 291.595 240.645 292.509 239.961 292.888C239.183 293.264 238.176 292.877 237.338 293.115C234.621 293.573 232.826 296.554 233.719 299.154C234.113 300.398 235.016 301.447 236.17 302.001C237.564 302.614 239.128 302.449 239.94 303.833C244.228 310.236 248.163 316.891 251.745 323.724C255.075 330.082 258.094 336.599 260.785 343.262C261.006 343.786 261.192 344.378 261.145 344.922L261.134 345.042C261.016 345.954 260.441 346.775 260.372 347.718C259.832 351.381 264.148 354.335 267.384 352.355C268.657 351.799 269.048 350.303 270.056 349.523C271.223 349.129 272.625 349.631 273.769 348.949C276.66 347.696 277.423 343.776 275.308 341.519L275.312 341.501Z" fill="white"/>
<path d="M228.733 263.075L228.599 263.042C226.84 262.463 224.989 262.144 223.143 262.08C219.893 261.947 216.583 262.797 213.541 261.651C211.333 260.868 209.45 259.402 207.359 258.365C203.777 256.579 199.642 255.712 195.926 256.567C191.043 257.702 186.784 261.456 184.369 265.829C178.102 277.744 187.314 285.129 198.807 286.641C202.018 287.169 205.343 286.643 208.507 287.442C211.613 288.246 214.299 290.2 217.355 291.17C222.833 292.976 229.26 293.893 234.004 291.01C244.039 284.494 239.614 266.292 228.75 263.079L228.733 263.075ZM202.992 273.888C201.195 276.952 195.631 276.161 193.392 273.798C191.312 271.672 192.594 267.899 195.341 267.279C198.722 266.521 203.938 270.221 203.035 273.786L202.992 273.888ZM225.16 281.795L225.003 281.784C222.426 281.552 218.694 279.955 218.826 276.966C219.089 274.836 222.554 273.271 225.692 273.631C231.619 274.049 231.209 282.177 225.16 281.795Z" fill="white"/>
<path d="M232.167 216.498C235.233 216.502 237.727 219.209 240.41 220.362L240.528 220.419C244.383 222.441 248.521 221.397 252.66 220.58C254.07 220.274 255.773 219.766 256.724 218.99C259.383 216.946 258.046 212.995 254.561 212.861C252.412 212.648 250.148 213.292 247.979 213.356C242.96 213.611 239.089 210.258 235.02 207.684C233.298 206.37 232.678 204.816 231.338 203.322C228.303 199.739 224.93 201.779 221.627 203.61C219.804 204.456 216.978 204.549 214.346 204.736C212.594 204.827 210.809 204.853 209.119 204.375C206.085 203.664 203.292 200.441 200.209 199.539C197.555 198.695 195.22 201.186 196.013 203.695C196.531 205.629 198.995 207.491 201.206 209.197C202.676 210.309 204.264 211.478 205.942 212.16C209.462 213.78 213.836 212.153 217.428 213.047C218.619 213.413 219.14 214.171 219.014 214.922C218.207 217.709 211.734 217.365 209.257 217.534C205.134 217.781 202.089 214.977 198.786 212.967C196.756 211.681 193.796 211.826 192.961 214.297C191.983 217.749 195.432 219.738 198.222 222.038C200.752 224.019 203.498 225.724 206.812 225.675C209.187 225.811 212.19 225.103 214.429 225.837C216.426 226.521 216.35 228.273 214.668 229.115C212.618 230.084 209.983 230.092 207.712 230.263C204.504 230.536 201.549 229.806 198.936 227.861C197.254 226.726 195.449 225.213 193.43 224.928C191.162 224.544 189.303 226.624 189.721 228.778C190.174 231.177 192.757 232.898 195.13 234.786C197.659 236.767 200.406 238.472 203.72 238.423C206.094 238.559 209.097 237.851 211.337 238.585C212.519 238.986 213.001 239.79 212.784 240.566C211.685 243.161 206.302 242.781 203.757 243.036C201.783 243.073 199.97 242.867 198.207 241.994C194.837 240.57 189.992 234.72 186.925 239.414C185.312 243.154 189.911 245.753 192.394 247.809C195.171 249.973 197.987 251.431 201.625 251.207C203.929 251.439 209.916 249.48 210.804 252.182C211.296 254.92 211.383 257.624 214.731 258.403C218.044 259.172 219.413 256.747 220.96 254.441C223.479 251.421 230.295 260.821 236.933 259.821C239.091 259.688 241.256 259.256 243.374 258.821C245.174 258.421 247.152 257.868 248.177 256.432C249.442 254.745 248.715 252.12 246.691 251.429C243.466 250.341 239.844 252.085 236.474 251.518C233.429 251.078 230.848 249.196 227.941 247.377C226.97 246.726 225.878 245.951 225.196 245.041C223.919 243.327 224.749 241.571 226.983 242.059C229.42 242.634 231.635 244.595 233.907 245.695C236.913 247.379 239.943 247.298 243.201 246.699C245.539 246.252 248.257 245.944 250.254 244.689C252.224 243.512 252.569 240.537 250.647 239.155C247.717 237.273 243.959 239.116 240.701 238.859C237.267 238.785 234.628 236.87 231.398 234.868C230.481 234.268 229.494 233.604 228.742 232.828C226.569 230.697 227.973 228.281 231.014 229.587C232.999 230.363 234.835 231.827 236.75 232.812C240.062 234.748 243.436 234.526 247.042 233.813C250.252 233.259 255.936 232.394 254.852 227.987C253.954 225.132 250.257 225.408 247.793 225.796C242.376 226.914 239.01 225.124 234.624 222.191C233.179 221.208 230.969 219.888 230.784 218.091C230.716 217.246 231.299 216.55 232.16 216.487L232.167 216.498Z" fill="white"/>
<path d="M134.608 180.866C137.567 180.994 141.685 179.841 142.552 176.419L142.58 176.303C143.509 172.321 139.308 168.934 135.602 168.313C133.737 167.859 130.587 167.392 128.562 168.838C125.895 170.796 125.344 174.852 126.89 177.667C128.632 180.53 132.114 180.832 134.605 180.875L134.608 180.866Z" fill="white"/>
<path d="M134.637 160.476C134.561 162.378 135.064 164.647 136.214 166.227C137.477 168.117 140.258 167.975 140.47 165.475C141.075 163.212 135.667 155.068 134.654 160.329L134.637 160.476Z" fill="white"/>
<path d="M114.956 165.006C116.509 166.476 119.321 167.17 121.387 167.608C122.451 167.839 126.102 168.681 126.538 167.272L126.551 167.219C126.898 165.864 123.316 164.661 122.392 164.361C120.193 163.656 117.474 163.04 115.218 163.46C114.873 163.526 114.484 163.657 114.408 163.969C114.316 164.351 114.673 164.739 114.956 165.006Z" fill="white"/>
<path d="M125.286 172.317L125.299 172.264C124.956 171.004 122.924 170.499 121.721 170.225C119.866 169.811 117.917 169.665 116.027 169.779C115.369 169.816 113.1 169.866 112.852 170.615C112.042 173.024 124.918 174.647 125.288 172.308L125.286 172.317Z" fill="white"/>
<path d="M121.201 176.239C120.201 176.174 119.211 176.224 118.208 176.328C117.523 176.397 113.156 176.801 113.924 178.052C114.39 178.805 116.12 178.926 116.949 179.034C118.154 179.186 119.389 179.214 120.602 179.095C121.411 179.02 124.627 178.711 124.583 177.533L124.578 177.476C124.531 176.429 121.98 176.287 121.192 176.237L121.201 176.239Z" fill="white"/>
<path d="M315.886 197.188L315.982 197.259C318.881 199.265 322.741 197.428 324.893 195.382C326.748 193.706 329.165 191.188 328.593 187.885C327.914 184.753 324.823 182.06 321.529 182.34C319.052 182.584 316.987 185.009 315.881 186.585C313.502 189.489 312.569 194.808 315.884 197.197L315.886 197.188Z" fill="white"/>
<path d="M310.362 187.642C312.167 189.391 314.345 187.662 314.055 185.407C313.878 183.462 312.764 181.42 311.454 180.037L311.347 179.935C307.124 176.637 308.413 186.329 310.353 187.64L310.362 187.642Z" fill="white"/>
<path d="M321.981 179.791L322.03 179.822C323.292 180.591 325.477 177.555 326.132 176.678C327.4 174.982 329.058 172.608 329.263 170.482C329.3 170.096 329.308 169.561 328.994 169.343C328.735 169.167 328.35 169.318 328.055 169.491C326.078 170.657 324.44 172.914 323.242 174.901C322.74 175.729 320.845 179.006 321.99 179.793L321.981 179.791Z" fill="white"/>
<path d="M326.256 182.744L326.294 182.782C328.109 184.297 336.738 174.592 334.539 173.303C333.862 172.912 332.128 174.363 331.596 174.77C330.092 175.929 328.72 177.318 327.593 178.861C326.864 179.851 325.674 181.576 326.247 182.742L326.256 182.744Z" fill="white"/>
<path d="M330.203 186.201L330.239 186.247C330.974 187.171 333.615 185.281 334.265 184.809C335.258 184.091 336.164 183.266 336.978 182.353C337.536 181.717 338.763 180.5 338.611 179.616C338.37 178.164 334.81 180.742 334.252 181.143C333.433 181.725 332.655 182.336 331.937 183.046C331.389 183.599 329.546 185.382 330.201 186.21L330.203 186.201Z" fill="white"/>
<path d="M288.504 369.908C288.941 366.323 286.412 362.054 284.688 359.619C281.616 354.642 274.956 350.261 270.811 353.506L270.694 353.6C267.176 356.471 268.399 362.908 270.411 367.061C272.024 370.608 274.572 375.419 279.073 376.526C283.379 377.387 287.853 374.645 288.495 369.906L288.504 369.908Z" fill="white"/>
<path d="M290.24 372.42L290.167 372.487C288.956 374.301 291.352 377.257 293.316 376.682C296.482 375.457 292.077 371.089 290.24 372.42Z" fill="white"/>
<path d="M287.279 375.052L287.201 375.099C285.427 376.907 288.318 380.964 290.288 380.135C292.335 378.789 289.113 374.237 287.29 375.045L287.279 375.052Z" fill="white"/>
<path d="M280.448 378.823L280.364 378.859C278.881 379.929 279.429 383.838 281.367 383.68C282.382 383.644 283.201 382.206 282.564 380.685C282.228 379.822 281.359 378.555 280.437 378.829L280.448 378.823Z" fill="white"/>
<path d="M284.331 377.357L284.247 377.393C282.765 378.463 283.312 382.372 285.251 382.214C286.266 382.179 287.085 380.74 286.447 379.219C286.111 378.356 285.243 377.089 284.32 377.364L284.331 377.357Z" fill="white"/>
<path d="M111.929 292.716C110.817 287.568 102.902 286.656 97.3648 288.507C94.4885 289.275 89.8162 290.932 87.8573 293.967C85.3224 298.019 87.003 302.995 90.8673 305.095C95.0304 307.126 100.063 305.067 103.576 303.381C107.782 301.478 112.834 297.324 111.961 292.855L111.931 292.707L111.929 292.716Z" fill="white"/>
<path d="M84.9301 294.887L84.9161 294.789C84.3493 292.589 78.1734 293.117 79.8315 296.092C80.9711 297.791 84.6965 297.051 84.9301 294.887Z" fill="white"/>
<path d="M85.5305 298.8L85.4966 298.707C84.6156 296.911 79.228 298.338 79.9465 300.688C80.9258 302.583 85.7359 301.326 85.5326 298.791L85.5305 298.8Z" fill="white"/>
<path d="M88.3358 305.991C87.7962 305.191 86.3294 305.615 85.5166 306.057C84.061 306.823 83.7706 308.447 84.5266 309.13C85.9168 310.495 88.8271 307.843 88.3807 306.077L88.3425 306.002L88.3358 305.991Z" fill="white"/>
<path d="M86.3366 302.453L86.2984 302.377C85.7588 301.577 84.292 302.001 83.4793 302.444C82.0237 303.209 81.7332 304.833 82.4893 305.517C83.8795 306.882 86.7898 304.23 86.3434 302.464L86.3366 302.453Z" fill="white"/>
<path d="M427.408 86.8899L418.061 76.8522L461.165 53.6779L424.893 39.1636L368.986 78.7802L388.814 84.3569L346.823 112.316L427.408 86.8899Z" fill="#FDE021"/>
<path d="M36.2668 185.046L39.2369 177.676L0.266892 169.728L20.6841 155.879L74.7064 171.959L62.6881 178.106L102.61 189.099L36.2668 185.046Z" fill="#FDE021"/>
<path d="M366.166 361.218L370.584 354.615L403.096 385.145L401.635 359.494L352.187 319.884L354.781 333.909L319.01 304.161L366.166 361.218Z" fill="#FDE021"/>
<path d="M373.078 174.478L476.358 139.294L479.999 151.403L374.495 179.19L373.078 174.478Z" fill="#FFF08B"/>
<path d="M102.875 121.15L59.8376 86.045L65.8409 79.3655L105.211 118.551L102.875 121.15Z" fill="#FFF08B"/>
</svg>
