<svg width="300" height="44" viewBox="0 0 300 44" fill="none" xmlns="http://www.w3.org/2000/svg">
<g clip-path="url(#clip0_598_1777)">
<path d="M32.6354 29.2134C32.425 28.8586 32.4971 28.3955 32.8217 28.1369C35.9356 25.6231 37.9313 21.7681 37.9313 17.45V16.2352C37.9313 8.36885 31.5593 2 23.7026 2H0.853605C0.378712 2 0 2.37888 0 2.85399V40.6882C0 41.1573 0.378712 41.5422 0.853605 41.5422H13.6757C14.1446 41.5422 14.5293 41.1633 14.5293 40.6882V32.034C14.5293 31.5649 14.908 31.18 15.3829 31.18H18.593C19.4105 31.18 20.1679 31.613 20.5827 32.3227L25.7103 41.1212C25.8606 41.3858 26.1432 41.5422 26.4437 41.5422H38.3401C38.9953 41.5422 39.4101 40.8265 39.0735 40.2612L32.6293 29.2195L32.6354 29.2134ZM20.739 20.6374H14.2167C13.7478 20.6374 13.3631 20.2586 13.3631 19.7835V13.3906C13.3631 12.9215 13.7418 12.5366 14.2167 12.5366H20.9253C23.1976 12.5366 25.0311 14.4069 24.9709 16.6923C24.9108 18.9776 22.9632 20.6314 20.739 20.6314V20.6374Z" fill="#010101"/>
<path d="M135.423 2.85399V15.3812C135.423 15.8503 135.044 16.2352 134.569 16.2352H124.603C124.134 16.2352 123.749 15.8563 123.749 15.3812V2.85399C123.749 2.37888 123.37 2 122.902 2H110.079C109.611 2 109.226 2.37888 109.226 2.85399V40.6882C109.226 41.1573 109.605 41.5422 110.079 41.5422H122.902C123.37 41.5422 123.755 41.1633 123.755 40.6882V28.161C123.755 27.6919 124.134 27.307 124.609 27.307H134.575C135.044 27.307 135.429 27.6859 135.429 28.161V40.6882C135.429 41.1573 135.808 41.5422 136.283 41.5422H149.105C149.574 41.5422 149.958 41.1633 149.958 40.6882V2.85399C149.952 2.37888 149.568 2 149.099 2H136.277C135.808 2 135.423 2.37888 135.423 2.85399Z" fill="#010101"/>
<path d="M191.785 2.85399C191.785 2.3849 191.406 2 190.931 2H153.625C153.156 2 152.771 2.37888 152.771 2.85399V12.2238C152.771 12.6929 153.15 13.0778 153.625 13.0778H164.373C164.842 13.0778 165.227 13.4567 165.227 13.9318V40.6882C165.227 41.1573 165.606 41.5422 166.081 41.5422H178.903C179.371 41.5422 179.756 41.1633 179.756 40.6882V13.9258C179.756 13.4567 180.135 13.0718 180.61 13.0718H190.937C191.406 13.0718 191.791 12.6929 191.791 12.2178V2.85399H191.785Z" fill="#010101"/>
<path d="M209.296 2H196.48C196.008 2 195.626 2.38234 195.626 2.85399V40.6822C195.626 41.1538 196.008 41.5362 196.48 41.5362H209.296C209.767 41.5362 210.149 41.1538 210.149 40.6822V2.85399C210.149 2.38234 209.767 2 209.296 2Z" fill="#010101"/>
<path d="M105.799 19.6993C105.744 19.2723 105.384 18.9475 104.951 18.9475H100.346H92.9764H87.0372C86.2558 18.9475 85.8891 19.9097 86.4662 20.433L92.2911 25.6832C92.5917 25.9538 92.6578 26.4049 92.4534 26.7537C91.149 28.9969 88.7204 30.5185 85.9552 30.5185H83.8573C79.7996 30.5185 76.4814 27.1987 76.4814 23.1393V20.89C76.4814 16.8125 79.7816 13.5108 83.8573 13.5108H86.1836C88.534 13.5108 90.62 14.6234 91.9545 16.3495C92.1228 16.566 92.3693 16.6983 92.6398 16.6983H104.374C104.939 16.6983 105.348 16.163 105.197 15.6157C103.075 7.79751 95.8979 2 87.434 2H81.573C71.7986 2 63.8096 9.99263 63.8096 19.7654V24.2699C63.8096 34.0427 71.7986 42.0353 81.567 42.0353H88.0772C97.8456 42.0353 105.835 34.0427 105.835 24.2699V20.4149C105.835 20.0541 105.823 19.8737 105.799 19.6993Z" fill="#010101"/>
<path d="M299.964 19.6993C299.909 19.2723 299.549 18.9475 299.116 18.9475H294.511H287.141H281.202C280.421 18.9475 280.054 19.9097 280.631 20.433L286.456 25.6832C286.757 25.9538 286.823 26.4049 286.618 26.7537C285.314 28.9969 282.885 30.5185 280.12 30.5185H278.022C273.965 30.5185 270.646 27.1987 270.646 23.1393V20.89C270.646 16.8125 273.947 13.5108 278.022 13.5108H280.349C282.699 13.5108 284.785 14.6234 286.12 16.3495C286.288 16.566 286.534 16.6983 286.805 16.6983H298.539C299.104 16.6983 299.513 16.163 299.362 15.6157C297.24 7.79751 290.063 2 281.593 2H275.732C265.964 2 257.975 9.99263 257.975 19.7654V24.2699C257.975 34.0427 265.964 42.0353 275.732 42.0353H282.242C292.011 42.0353 300 34.0427 300 24.2699V20.4149C300 20.0541 299.988 19.8737 299.964 19.6993Z" fill="#010101"/>
<path d="M240.176 2.85399V18.1537C240.176 18.6348 239.575 18.8513 239.274 18.4784L225.851 2.30672C225.689 2.11427 225.448 2 225.196 2H215.451C214.982 2 214.598 2.37888 214.598 2.85399V40.6882C214.598 41.1573 214.976 41.5422 215.451 41.5422H227.306C227.774 41.5422 228.159 41.1633 228.159 40.6882V25.9238C228.159 25.4487 228.748 25.2322 229.061 25.593L242.46 41.2475C242.622 41.4339 242.857 41.5482 243.109 41.5482H252.679C253.148 41.5482 253.533 41.1693 253.533 40.6942V2.85399C253.533 2.3849 253.154 2 252.679 2H241.035C240.566 2 240.182 2.37888 240.182 2.85399H240.176Z" fill="#010101"/>
<path d="M60.5097 22.7666L55.4903 22.7305C54.811 22.8508 54.24 22.1652 54.4383 21.4675L59.7102 3.96675C59.9026 3.29317 59.3736 2.6196 58.7124 2.69177L46.9903 2.60156C46.6296 2.64366 46.3231 2.90828 46.2209 3.28115L39.0734 27.5056C38.8811 28.1792 39.4101 28.8528 40.0713 28.7806L46.9963 28.6363C47.6095 28.5641 48.1205 29.1414 48.0183 29.7849L46.5635 40.3335C46.4072 41.3198 47.5854 41.9092 48.1866 41.1454L61.3874 24.3663C61.9344 23.6687 61.3573 22.6102 60.5097 22.7666Z" fill="#FDE021"/>
<path d="M45.9865 44.0082L45.9985 43.936L45.9805 43.9601L45.9865 44.0082Z" fill="#FDE021"/>
</g>
<defs>
<clipPath id="clip0_598_1777">
<rect width="300" height="44" fill="white"/>
</clipPath>
</defs>
</svg>
