<svg width="532" height="149" viewBox="0 0 532 149" fill="none" xmlns="http://www.w3.org/2000/svg">
<rect width="532" height="112" rx="4" fill="#010101"/>
<path d="M487.291 94.2407L474.836 94.1525C473.15 94.4463 471.733 92.7717 472.226 91.0676L485.307 48.3346C485.785 46.6893 484.472 45.0441 482.831 45.2203L453.744 45C452.849 45.1028 452.088 45.7492 451.835 46.66L434.099 105.831C433.622 107.476 434.935 109.122 436.575 108.945L453.759 108.593C455.281 108.416 456.548 109.827 456.295 111.399L452.685 137.165C452.297 139.574 455.221 141.013 456.712 139.148L489.469 98.1629C490.826 96.4588 489.394 93.8734 487.291 94.2554V94.2407Z" fill="#010101"/>
<path d="M461.571 139.84L461.591 139.72L461.561 139.76L461.571 139.84Z" fill="#010101"/>
<path d="M76.0868 66.2672C75.7446 65.69 75.8619 64.9367 76.39 64.5161C81.4552 60.4269 84.7016 54.1561 84.7016 47.132V45.1559C84.7016 32.36 74.3365 22 61.5562 22H24.3885C23.616 22 23 22.6163 23 23.3892V84.9328C23 85.6958 23.616 86.3219 24.3885 86.3219H45.2458C46.0085 86.3219 46.6344 85.7056 46.6344 84.9328V70.8553C46.6344 70.0923 47.2504 69.4662 48.0229 69.4662H53.2445C54.5744 69.4662 55.8065 70.1705 56.4812 71.3249L64.8221 85.6372C65.0666 86.0676 65.5262 86.3219 66.0151 86.3219H85.3665C86.4324 86.3219 87.1071 85.1578 86.5595 84.2382L76.0771 66.277L76.0868 66.2672ZM56.7354 52.3169H46.1259C45.3632 52.3169 44.7373 51.7006 44.7373 50.9278V40.5286C44.7373 39.7656 45.3534 39.1395 46.1259 39.1395H57.0386C60.7348 39.1395 63.7172 42.1819 63.6194 45.8994C63.5216 49.6169 60.3534 52.3071 56.7354 52.3071V52.3169Z" fill="white"/>
<path d="M243.288 23.3892V43.7667C243.288 44.5298 242.672 45.1559 241.899 45.1559H225.687C224.924 45.1559 224.298 44.5396 224.298 43.7667V23.3892C224.298 22.6163 223.682 22 222.92 22H202.062C201.3 22 200.674 22.6163 200.674 23.3892V84.9328C200.674 85.6958 201.29 86.3219 202.062 86.3219H222.92C223.682 86.3219 224.308 85.7056 224.308 84.9328V64.5552C224.308 63.7921 224.924 63.166 225.697 63.166H241.909C242.672 63.166 243.298 63.7824 243.298 64.5552V84.9328C243.298 85.6958 243.914 86.3219 244.686 86.3219H265.544C266.306 86.3219 266.932 85.7056 266.932 84.9328V23.3892C266.922 22.6163 266.297 22 265.534 22H244.677C243.914 22 243.288 22.6163 243.288 23.3892Z" fill="white"/>
<path d="M334.97 23.3892C334.97 22.6261 334.353 22 333.581 22H272.896C272.134 22 271.508 22.6163 271.508 23.3892V38.6308C271.508 39.3938 272.124 40.0199 272.896 40.0199H290.38C291.143 40.0199 291.769 40.6362 291.769 41.4091V84.9328C291.769 85.6958 292.385 86.3219 293.157 86.3219H314.014C314.777 86.3219 315.403 85.7056 315.403 84.9328V41.3993C315.403 40.6362 316.019 40.0101 316.792 40.0101H333.591C334.353 40.0101 334.979 39.3938 334.979 38.621V23.3892H334.97Z" fill="white"/>
<path d="M363.455 22H342.607C341.84 22 341.219 22.6219 341.219 23.3892V84.923C341.219 85.6902 341.84 86.3122 342.607 86.3122H363.455C364.222 86.3122 364.843 85.6902 364.843 84.923V23.3892C364.843 22.6219 364.222 22 363.455 22Z" fill="white"/>
<path d="M195.099 50.7908C195.011 50.0962 194.424 49.5679 193.72 49.5679H186.23H174.242H164.581C163.309 49.5679 162.713 51.1332 163.652 51.9843L173.127 60.5247C173.616 60.9649 173.723 61.6986 173.391 62.266C171.269 65.915 167.318 68.3901 162.82 68.3901H159.408C152.807 68.3901 147.41 62.99 147.41 56.3866V52.7278C147.41 46.095 152.778 40.7243 159.408 40.7243H163.192C167.015 40.7243 170.408 42.5341 172.579 45.3418C172.853 45.694 173.254 45.9092 173.694 45.9092H192.781C193.701 45.9092 194.366 45.0385 194.121 44.1483C190.669 31.4306 178.994 22 165.226 22H155.692C139.792 22 126.797 35.0013 126.797 50.8984V58.2257C126.797 74.1228 139.792 87.1241 155.682 87.1241H166.272C182.162 87.1241 195.158 74.1228 195.158 58.2257V51.9549C195.158 51.368 195.138 51.0745 195.099 50.7908Z" fill="white"/>
<path d="M510.941 50.7908C510.853 50.0962 510.266 49.5679 509.562 49.5679H502.072H490.083H480.422C479.151 49.5679 478.555 51.1332 479.493 51.9843L488.969 60.5247C489.458 60.9649 489.565 61.6986 489.233 62.266C487.111 65.915 483.16 68.3901 478.662 68.3901H475.25C468.649 68.3901 463.252 62.99 463.252 56.3866V52.7278C463.252 46.095 468.62 40.7243 475.25 40.7243H479.034C482.857 40.7243 486.25 42.5341 488.421 45.3418C488.695 45.694 489.096 45.9092 489.536 45.9092H508.623C509.542 45.9092 510.207 45.0385 509.963 44.1483C506.511 31.4306 494.836 22 481.058 22H471.524C455.634 22 442.639 35.0013 442.639 50.8984V58.2257C442.639 74.1228 455.634 87.1241 471.524 87.1241H482.114C498.004 87.1241 510.999 74.1228 510.999 58.2257V51.9549C510.999 51.368 510.98 51.0745 510.941 50.7908Z" fill="white"/>
<path d="M413.685 23.3892V48.2766C413.685 49.0592 412.707 49.4114 412.218 48.8049L390.383 22.4989C390.119 22.1859 389.728 22 389.317 22H373.467C372.704 22 372.078 22.6163 372.078 23.3892V84.9328C372.078 85.6959 372.694 86.322 373.467 86.322H392.75C393.512 86.322 394.138 85.7056 394.138 84.9328V60.916C394.138 60.1432 395.096 59.791 395.605 60.3779L417.401 85.8426C417.665 86.1459 418.046 86.3317 418.457 86.3317H434.024C434.787 86.3317 435.413 85.7154 435.413 84.9426V23.3892C435.413 22.6261 434.797 22 434.024 22H415.083C414.321 22 413.695 22.6163 413.695 23.3892H413.685Z" fill="white"/>
<path d="M121.429 55.78L113.264 55.7213C112.159 55.917 111.23 54.8017 111.553 53.6669L120.128 25.199C120.441 24.1033 119.581 23.0076 118.505 23.125L99.4373 22.9783C98.8506 23.0468 98.3519 23.4772 98.1857 24.0837L86.5592 63.4889C86.2463 64.5845 87.1068 65.6802 88.1824 65.5628L99.4471 65.328C100.445 65.2106 101.276 66.1498 101.109 67.1966L98.7431 84.3556C98.4888 85.96 100.405 86.9187 101.383 85.6763L122.857 58.3822C123.746 57.2474 122.808 55.5257 121.429 55.78Z" fill="#FDE021"/>
<path d="M97.8047 90.3328L97.8243 90.2155L97.7949 90.2546L97.8047 90.3328Z" fill="#FDE021"/>
</svg>
